<svg xmlns="http://www.w3.org/2000/svg" viewBox="0 0 193.67 156.06">
  <defs>
    <style>
      .a, .b, .c, .d, .f {
        fill: none;
        stroke-miterlimit: 22.93;
      }

      .a, .b {
        stroke: #003a69;
        stroke-width: 0.96px;
      }

      .a, .d, .f {
        stroke-linecap: round;
      }

      .c {
        stroke: #001c33;
      }

      .c, .d {
        stroke-width: 0.96px;
      }

      .d, .f {
        stroke: #1989d0;
      }

      .e {
        fill: #1989d0;
        fill-rule: evenodd;
      }

      .f {
        stroke-width: 2.4px;
      }
    </style>
  </defs>
  <title>Asset-1</title>
  <g>
    <path class="a" d="M100.6,20A58.07,58.07,0,1,1,42.54,78,58.07,58.07,0,0,1,100.6,20Zm0-19.48A77.55,77.55,0,1,1,23.05,78,77.55,77.55,0,0,1,100.6.48Z"/>
    <path class="b" d="M119,9.27l-1.61,6m18.78,1.1-3.11,5.39m17.86,5.92-4.4,4.4m15.71,10.34-5.39,3.11M54.66,32.09l-4.4-4.4m17.86-5.92L65,16.38m18.78-1.1-1.61-6m1.61,131.51-1.61,6m-14.06-12.5L65,139.68M54.66,124l-4.4,4.4m-5.92-17.86L39,113.62m-1.1-18.78-6,1.61M35.64,78H29.41m8.44-16.81-6-1.61m12.5-14.06L39,42.44M169.36,59.6l-6,1.61M171.79,78h-6.22m3.8,18.42-6-1.61m-1.1,18.78-5.39-3.11m-5.92,17.86-4.4-4.4M136.2,139.68l-3.11-5.39M119,146.79l-1.61-6M100.6,6.84v6.22"/>
    <line class="b" x1="100.6" y1="142.99" x2="100.6" y2="149.22"/>
    <line class="c" x1="42.54" y1="78.03" x2="158.65" y2="78.03"/>
    <line class="d" x1="40.65" y1="78.21" x2="160.55" y2="77.85"/>
    <polygon class="e" points="165.06 77.94 168.03 76.21 171 74.49 171.01 77.93 171.01 81.36 168.04 79.65 165.06 77.94"/>
    <polygon class="e" points="36.14 78.12 33.17 76.41 30.19 74.7 30.19 78.13 30.2 81.57 33.17 79.84 36.14 78.12"/>
    <path class="f" d="M154.87,83.39A54.53,54.53,0,1,1,106,23.77"/>
    <polygon class="e" points="100.6 99.37 104.48 106.09 108.36 112.8 100.6 112.8 92.84 112.8 96.72 106.09 100.6 99.37"/>
    <polygon class="e" points="7.24 14.55 8.57 15.89 5.62 18.84 8.57 21.8 7.24 23.13 4.29 20.18 1.33 23.13 0 21.8 2.95 18.84 0 15.89 1.33 14.55 4.29 17.51 7.24 14.55"/>
    <path class="e" d="M190.45,128.15a3.22,3.22,0,1,1-3.23,3.23,3.23,3.23,0,0,1,3.23-3.23"/>
    <path class="e" d="M87.43,49.12l19.85-.1L108,72.88,88.14,73Zm22.63.95.3,10h2.53l0-1.26h-1.1L111.53,51h1.1l0-.93ZM85,60.16l-.3-10H82.18l0,.93h1.1l.23,7.79h-1.1l0,1.26ZM84.63,47.4,110,47.28l.06,2.18,3.15,0,0,1.53h.57l.23,7.79h-.57l.06,1.87-3.15,0,.36,12.19h1.65l-.1-3.24,8.68,0,.1,3.24,11-.05.48,16.15-68.08.33L64,73.06,75,73,75,69.77l8.68,0,.1,3.24h1.65L85,60.77l-3.15,0-.06-1.87h-.57L81,51.13h.57l0-1.53,3.15,0Z"/>
  </g>
</svg>
