<svg xmlns="http://www.w3.org/2000/svg" viewBox="0 0 197.8 156.06">
  <defs>
    <style>
      .a {
        fill: #0d4d82;
      }

      .a, .b, .f {
        fill-rule: evenodd;
      }

      .a, .b {
        opacity: 0.5;
      }

      .b {
        fill: #2071b3;
      }

      .c, .d, .e, .g, .h {
        fill: none;
        stroke-miterlimit: 22.93;
      }

      .c, .d {
        stroke: #003a69;
      }

      .c, .d, .h {
        stroke-width: 0.96px;
      }

      .d, .e, .g {
        stroke-linecap: round;
      }

      .e, .g, .h {
        stroke: #1989d0;
      }

      .e {
        stroke-width: 2.4px;
      }

      .f {
        fill: #1989d0;
      }

      .g {
        stroke-width: 0.96px;
      }
    </style>
  </defs>
  <title>Asset-3</title>
  <g>
    <path class="a" d="M94.48,105.74c-25.34,5.54-32.22,5.44-57.31,5.44-8.67,0-16.37.87-24,1.28v5.44c7.63-.42,15.33-1.28,24-1.28,25.09,0,32,.11,57.31-5.44,9.34-2,17.73-.83,29.44-3.69,9.21-2.24,23.2-3.1,32.61-1.19,8.59,1.74,12.73.65,16.9-1.38v-4.3l-.77-.78c-3.93,1.79-8.08,2.65-16.14,1-9.41-1.91-23.4-1-32.61,1.19-11.71,2.85-20.1,1.64-29.44,3.69"/>
    <path class="b" d="M42.12,83.86,13.17,112.45h0c7.63-.42,15.33-1.28,24-1.28,25.09,0,32,.11,57.31-5.44,9.34-2,17.73-.83,29.44-3.69,9.21-2.24,23.2-3.1,32.61-1.19,8.06,1.63,12.21.77,16.14-1l-.54-.55L157,83.86Z"/>
    <polygon class="c" points="41.81 84.17 157.29 84.17 173.43 100.62 173.27 104.75 196.73 130.87 1.1 130.87 13.14 117.88 13.17 112.45 41.81 84.17"/>
    <path class="b" d="M99.55,20A58.07,58.07,0,1,1,41.48,78,58.07,58.07,0,0,1,99.55,20m0-19.48A77.55,77.55,0,1,1,22,78,77.55,77.55,0,0,1,99.55.48Z"/>
    <path class="d" d="M156.3,130.87a77.53,77.53,0,0,1-113.51,0H75.45a58.2,58.2,0,0,0,48.2,0ZM99.55.48a77.59,77.59,0,0,1,73.84,101.31l0-1.17L157.29,84.17h0a58.07,58.07,0,1,0-115.48,0L25.3,100.47A77.6,77.6,0,0,1,99.55.48Z"/>
    <path class="e" d="M123.22,127.15a54.53,54.53,0,1,1,25.45-72.79"/>
    <polygon class="f" points="179.45 7.29 182.79 7.29 182.79 14.69 190.18 14.69 190.18 18.03 182.79 18.03 182.79 25.42 179.45 25.42 179.45 18.03 172.06 18.03 172.06 14.69 179.45 14.69 179.45 7.29"/>
    <line class="g" x1="99.55" y1="78.03" x2="99.55" y2="89.13"/>
    <circle class="h" cx="99.55" cy="78.03" r="11.1"/>
  </g>
</svg>
