<svg xmlns="http://www.w3.org/2000/svg" viewBox="0 0 160.99 156.06">
  <g>
    <path d="M80.17,20A58.07,58.07,0,1,1,22.11,78,58.07,58.07,0,0,1,80.17,20m0-19.48A77.55,77.55,0,1,1,2.62,78,77.55,77.55,0,0,1,80.17.48Z" fill="#2071b3" fill-rule="evenodd" opacity="0.5"/>
    <path d="M80.17,20A58.07,58.07,0,1,1,22.11,78,58.07,58.07,0,0,1,80.17,20Zm0-19.48A77.55,77.55,0,1,1,2.62,78,77.55,77.55,0,0,1,80.17.48Z" fill="none" stroke="#003a69" stroke-linecap="round" stroke-miterlimit="22.93" stroke-width="0.96"/>
    <line x1="160.39" y1="8.87" x2="160.39" y2="31.12" fill="none" stroke="#1989d0" stroke-linecap="round" stroke-miterlimit="22.93" stroke-width="1.2"/>
    <path d="M6.82,7.78A6.83,6.83,0,1,1,0,14.61,6.83,6.83,0,0,1,6.82,7.78" fill="#1989d0" fill-rule="evenodd"/>
    <path d="M62.05,122.69l3.39-1.77.18.34-4,2.08a2.77,2.77,0,0,0-.52.38,2.14,2.14,0,0,1,.94-1" fill="#003a69"/>
    <path d="M55.19,115.73v1.69H44.75V115h9.76a.69.69,0,0,1,.68.7" fill="#003a69"/>
    <polygon points="60.29 126.25 65.98 123.33 66.18 123.67 60.12 126.78 60.29 126.25" fill="#003a69"/>
    <polygon points="71.42 118.24 65.86 121.15 65.67 120.81 71.42 117.79 71.42 118.24" fill="#003a69"/>
    <path d="M72.68,117.42h-.53a.58.58,0,0,1,.53,0" fill="#003a69"/>
    <polygon points="65.37 121.69 65.76 121.49 66.48 122.78 66.09 122.97 65.37 121.69" fill="#003a69"/>
    <path d="M75.31,115.73v.34H71.42v1.35H66.13V115h8.48a.7.7,0,0,1,.7.7" fill="#003a69"/>
    <polygon points="71.09 117.69 66.14 120.27 66.14 117.69 71.09 117.69" fill="#003a69"/>
    <rect x="90.66" y="116.75" width="7.74" height="2.77" fill="#003a69"/>
    <path d="M65.89,117.42H56.14v-1.69a.7.7,0,0,1,.7-.7h9Z" fill="#003a69"/>
    <path d="M81.55,117.19v2.33h-6v-2.33a.61.61,0,0,1,.61-.61H81a.62.62,0,0,1,.6.61" fill="#003a69"/>
    <path d="M83.33,116.75H90.4v2.77H82.7v-2.15a.63.63,0,0,1,.63-.62" fill="#003a69"/>
    <polygon points="65.98 121.37 71.42 118.54 71.42 119.13 73 119.13 73.13 119.36 66.71 122.66 65.98 121.37" fill="#003a69"/>
    <polygon points="66.21 123.2 66.6 123 66.8 123.34 66.42 123.55 66.21 123.2" fill="#003a69"/>
    <path d="M73.3,119.13h.11s0,.05-.06.08Z" fill="#003a69"/>
    <path d="M61.75,123.58l3.39-1.78.71,1.28-5.45,2.8.42-1.29a2.16,2.16,0,0,1,.93-1" fill="#003a69"/>
    <path d="M73.52,118.88h-.37l-.3-.5a.87.87,0,0,0-1.12-.31l0,0v-.42H73l.5.81a.72.72,0,0,1,.06.39" fill="#003a69"/>
    <path d="M71.85,118.31a.6.6,0,0,1,.78.21l.22.36H71.68v-.48Z" fill="#003a69"/>
    <rect x="84.77" y="104.66" width="3.73" height="0.78" fill="#003a69"/>
    <path d="M83.76,105.06a.39.39,0,0,1,.39-.39h.36v.78h-.36a.38.38,0,0,1-.39-.39" fill="#003a69"/>
    <rect x="89.96" y="105.61" width="6.43" height="3.17" fill="#003a69"/>
    <polygon points="81.45 108.19 80.39 107.02 80.39 106.57 82.98 106.57 81.45 108.19" fill="#003a69"/>
    <polygon points="74.12 122.91 73.58 122.84 73.89 122.69 74.12 122.91" fill="#003a69"/>
    <path d="M102.6,107.36h.22a.25.25,0,0,0,.25-.25.24.24,0,0,0-.25-.24h-.22Zm0-.77h.47v-1.74h-.47Zm0-2h.22a.25.25,0,0,0,0-.5h-.22Zm0-.75h.47v-1.74h-.47Zm0-2h.22a.25.25,0,0,0,0-.5h-.22Zm-1,5.51h.7v-.49h-.7Zm0-.77h.7v-1.74h-.7Zm0-2h.7v-.5h-.7Zm0-.75h.7v-1.74h-.7Zm0-2h.7v-.5h-.7Zm-.85,5.51h.62v-.49h-.62Zm0-.77h.62v-1.74h-.62Zm0-2h.62v-.5h-.62Zm0-.75h.62v-1.74h-.62Zm0-2h.62v-.5h-.62Zm-.87,5.51h.62v-.49H99.9Zm0-.77h.62v-1.74H99.9Zm0-2h.62v-.5H99.9Zm0-.75h.62v-1.74H99.9Zm0-2h.62v-.5H99.9Zm-1,5.51h.79v-.49h-.79Zm0-.77h.79v-1.74h-.79Zm0-2h.79v-.5h-.79Zm0-.75h.79v-1.74h-.79Zm0-2h.79v-.5h-.79Zm.74,13.21h.78v.39h.22v-2.38h-1Zm0-2.27H100a.66.66,0,0,0,.67-.67v-1.06a.66.66,0,0,0-.67-.67h-.31ZM80.47,5.5l.14.41h1.26l.2-.41Zm2.69.42a.53.53,0,0,0-.53.53.53.53,0,1,0,1.05,0A.51.51,0,0,0,83.16,5.92Zm1.61,34.29,1-1.44h-1ZM85.1,7.57V8.86a.08.08,0,0,0,.09.09c.06,0,.1,0,.1-.09V7.4H82.11l-.46-.67H80.9l-.48.67h-1V6.53h-1.2V7.82h.19v.11H76.57a.09.09,0,0,0-.1.09c0,.06,0,.09.1.09h1.89v.72h-.23v.4H76.61a.1.1,0,0,0-.09.1.08.08,0,0,0,.09.09h1.62V61.9a.09.09,0,0,0,.09.09.08.08,0,0,0,.09-.09V9h.24V7.68h-.19V6.73h.86V7.6H85.1ZM77.47,65.43V76.9a.09.09,0,0,0,.09.09.08.08,0,0,0,.09-.09V65.43a.09.09,0,0,0-.09-.1C77.5,65.33,77.47,65.36,77.47,65.43Zm.35-7.7h.3V11.64h-.3Zm.47,7.7V76.77a.09.09,0,0,0,.09.1.09.09,0,0,0,.1-.1V65.43a.09.09,0,0,0-.1-.1C78.32,65.33,78.29,65.36,78.29,65.43Zm1.41-2.85h.14v.34h-.26v1.82h.61V60.79h-.61V62C79.78,62,79.7,62.58,79.7,62.58Zm1.89,14.26a.11.11,0,0,0,0-.13s-.09,0-.12,0l-.44.38s-.06,0-.08.06l-.6.51s0,.1,0,.13l.06,0a.1.1,0,0,0,.07,0l.48-.42v1.31a.08.08,0,0,0,.09.09.08.08,0,0,0,.09-.09V77.21Zm.14-.8a.09.09,0,0,0,0-.12.1.1,0,0,0-.13,0l-.53.5V75.23h.27v-.9a.09.09,0,0,0-.1-.09.09.09,0,0,0-.09.09v.73h-.26v1.53l-.41.37V74.13H81.8a.09.09,0,0,0,.1-.09c0-.07,0-.1-.1-.1H80.31v3.39Zm2.2,1.85V74.38l-2.22,2.16v1.35Zm-2.22.78h2.22v-.2H81.71ZM83.39,74H82.15l-.44.45v1.2ZM84,73.7l-3.7-4v4ZM81.51,43.52V44h-.19v.55h-.2v.79h.22L83,42.78V40.85l-1.43,2,.32.67ZM83.7,11.71a2.44,2.44,0,0,1,0,.7A2.75,2.75,0,0,1,84,13V11.46Zm.34-.88v-.69l-.65.69c.14.07.23.41.23.41Zm-1,4.08.14.21H84V13.71A2,2,0,0,1,83.06,14.91Zm.9,38V46.76l-.65.88v5.23Zm-.65.43v.56l.42-.56Zm0-11,.64-.95V39.42l-.64.78Zm0-10,.59-.75v-.43l-.59.81ZM83.53,31l.25-.24h-.52V31Zm-.19-6.45v.38l.59-.75v-.43Zm.45-1.35h-.45v.48Zm-.09-7.54h-.31v.44Zm-.3,1.32v.5L84,16.6h-.36Zm-.06,1.32v4.48H84V17.27Zm0,7.37v4.68H84V24.65Zm0,7.37v4.68H84V32ZM84,42.47l-.64.82v2H84Zm0,11.61-.65.85v5.21H84Zm0,14.16H81v1l2.9,3.2Zm-.62-.93V65.44h-.57V63.87H83v-1.1l-2,2.76v1.78Zm.37-6.52H81v3.8Zm-.7-.65V55.43l-2,2.75v1.94Zm0-5.75V53.3H81v3.9Zm0-1.52v-4.7l-2,2.77v1.93Zm0-6.08v-.7H81v3.62Zm0-1.48V43.85L82,45.3h1Zm0-14.59H80V31h3.08Zm-2.76-.49H83v-4ZM83,25.43V25l-3.14,4.58V30Zm0,8.13L80.3,37.62H83Zm0-.75v-.43L79.89,37v.38Zm0-1.36h-3.4v5.14Zm0-7.39h-3.4v5.15Zm0-.49v-.41l-2.91,0-.38.39Zm0-.89V18.81l-2.64,3.87Zm.34-12.56h-.79c.16,0,.44.31.44.31Zm-2.92,5.5-.34.31a.56.56,0,0,1,.51.22h2.43v-.53Zm.79,1a1.41,1.41,0,0,1,.21.91c0,.69-1.12,1.17-1.82.86v3.25l3.4-5Zm-1-1.51.33-.34-.38-.34-.57.68Zm-.19-1.21s-.14-.14-.14-.61c0,0-.11-.06-.28-.47v1.54Zm.72-3.78s-1.15,0-1.15,0v1.4A1.85,1.85,0,0,1,80.78,10.12ZM84,9.4a.08.08,0,0,0,.09-.09A.08.08,0,0,0,84,9.22H79.56a.09.09,0,0,0-.09.09.08.08,0,0,0,.09.09ZM81,42.3l2-3v-.52l-3.45,0v2.14Zm-1.47,1.26v.9l.66-.9Zm.73,1.33-.38.48h.38Zm0,7.31-.47.67h.47Zm0,7.29-.54.7h.54Zm0-1V53.35h-.6v6Zm0-7.5V46h-.67v5.89Zm-.36-28.24L83,18v-.56l-3.61,5.26h.42ZM84.07,9a.1.1,0,0,0,.1-.1c0-.06,0-.09-.1-.09H79.21v-1h5.27v1a.09.09,0,0,0,.18,0V7.62H79V9h5Zm1.2,56v-.47h-.65v-.42h1.3A.09.09,0,0,0,86,64a.09.09,0,0,0-.1-.1h-1.3v-.54h1.3a.09.09,0,0,0,.1-.09.1.1,0,0,0-.1-.1h-1.3v-.37h.65v-.47h-.65s-.05-.07-.08-.07a.07.07,0,0,0-.08.07v5.21a.08.08,0,0,0,.09.09.09.09,0,0,0,.1-.09V65h.62Zm2.56,18.31h1.28v-3.1l-1.28,1.17Zm0-2.75,1.08-1.11H87.83Zm0-1.68H89l-.33-.41h-.86Zm-.57,4.43V82l-1.43,1.34Zm-1.82-.49L87.26,81V79.46H85.44Zm1.82-4.35H84.68v.41h2.58Zm-2.41,1h-.17v3.84h.17Zm6.31,22.58H84.8v.69h6.36Zm0,1V104a.42.42,0,0,1-.42.42h-2V103H88.5v1.43H84.77V102.9h-.26v1.51h-.36a.65.65,0,0,0-.65.65.66.66,0,0,0,.65.66h.36v3.2h.26v-3.2H88.5V109h.27v-4.34h2a.7.7,0,0,0,.69-.68v-.54H93v.14h1.28v.26h2.25v-.92H91.43v.13h-.24ZM83,104.25h.47l-1.18-1.18-.25.27Zm-1.32.8v.63h1.51l-.55-.63Zm1.82-2.4v-.6h.42v-.56l-1.12,1.18h.7Zm-1.82-2.9v.37H83l.26-.37Zm2-.9-1.91-2.09v.76L83,98.85Zm-1.28,0-.68-.7v.7Zm1.54-.39V95.19H81.68v.89Zm-1.18-10-1-1.11v1.11Zm-1,.48v.45h1.9l-.42-.45Zm1.66-.48h.53l-2-2h-.23v.31Zm-1.66,1.4v1l2.19,2.25v-3.2ZM83,94.12H81.73v.61h1.91C83.58,94.71,83,94.12,83,94.12Zm.83-.45-1.44-1.48h-.64l1.43,1.48Zm-1.16,0-1-1v1Zm-.54-1.83-.42-.46v.46Zm-.24-6h.59l1.26-1.34h-2.1v1.15Zm1-2.65L81.71,82v1.21Zm-1.15.61V84h2l-.18-.2Zm1.76-.61h.37L81.73,81v.39Zm.46-.49V79.48H81.66v.9Zm-1.29,3.83,1.29,1.36V85.26Zm11.15,18a.09.09,0,0,0-.09.1.09.09,0,0,0,.09.09H96.4v.75H89.93a.07.07,0,0,0-.06,0,.09.09,0,0,0-.09.1v3.36a.09.09,0,0,0,.09.09H96.4v.17h.26v-5.25H96.4v.65H93.79ZM97,101.33H91.47v1.42h5.15v1h.32v-2.47Zm1.32,0h-1v2.47h.39v-2h.65Zm-.64,2.75h-.39v1.5h.39Zm-.4,2.51h.39v-.75h-.39Zm1.37-4.48h-.8v1.74h.8Zm.07,2h-.79v.5h.79Zm-.85,2.47h.79v-1.74h-.79Zm.85.3h-.79v.49h.79Zm-.38,4.22v4.12H99V110.3H98.3Zm0-1.1h.79v-1.06a.79.79,0,0,0-.79-.7Zm-7.14,5.55a.52.52,0,0,0,.53.53h5a.53.53,0,0,0,.53-.53v-4.71a.53.53,0,0,0-.53-.53h-5a.52.52,0,0,0-.53.53Zm-7.13,0a.52.52,0,0,0,.52.53h5a.52.52,0,0,0,.52-.53v-4.71a.52.52,0,0,0-.52-.53h-5a.52.52,0,0,0-.52.53Zm-.55-6.08,14.64.16a.09.09,0,0,0,.1-.1.09.09,0,0,0-.1-.09l-14.64-.15a.09.09,0,0,0-.09.09A.1.1,0,0,0,83.48,109.46Zm-3.26-2.36,1.23,1.35,1.94-2H80.2v.7Zm0-5.53,1.26,1.25,2-2H80.22Zm0-.86a.08.08,0,0,0,.09.09c.07,0,.1,0,.1-.09v-.5H81.6a.08.08,0,0,0,.09-.09.08.08,0,0,0-.09-.09h-.5V95.29h.5a.09.09,0,0,0,.09-.1.09.09,0,0,0-.09-.09h-.5v-.3h.5a.09.09,0,0,0,0-.18h-.5V89.91h.5a.09.09,0,0,0,.09-.1.09.09,0,0,0-.09-.09h-.5v-.29h.5a.09.09,0,0,0,.09-.1.08.08,0,0,0-.09-.09h-.5V86.35a.09.09,0,1,0-.18,0v3h-.58V86.41a.08.08,0,0,0-.09-.09.08.08,0,0,0-.09.09v14.3Zm-1.06,14.77,1.9-1.59-1.9-1.54ZM79,101.8a.08.08,0,0,0,.09.09.08.08,0,0,0,.09-.09V86.41a.08.08,0,0,0-.09-.09.08.08,0,0,0-.09.09Zm-1.73-.28a.09.09,0,0,0,.1.09.09.09,0,0,0,.09-.09V79.63a.07.07,0,0,0-.06-.07h.22a.08.08,0,0,0-.07.07v21.89a.09.09,0,0,0,.1.09.09.09,0,0,0,.09-.09V79.63a.07.07,0,0,0-.06-.07H78a.09.09,0,0,0-.06.07v21.89a.09.09,0,1,0,.18,0V79.63a.06.06,0,0,0-.06-.07h.24a.08.08,0,0,0-.07.07v21.89a.09.09,0,0,0,.1.09.08.08,0,0,0,.09-.09V79.63a.07.07,0,0,0-.06-.07H79a.09.09,0,0,0-.06.07v6.21a.09.09,0,0,0,.09.09c.06,0,.1,0,.1-.09V79.63s0-.06-.07-.07h1.14a.09.09,0,0,0-.06.07v6.21a.09.09,0,0,0,.09.09.08.08,0,0,0,.09-.09V84.58h.58v1.26a.09.09,0,0,0,.09.09.08.08,0,0,0,.09-.09V84.58h.5a.09.09,0,0,0,.09-.1.08.08,0,0,0-.09-.09h-.5v-.3h.5a.09.09,0,0,0,0-.18h-.5V79.6a.08.08,0,0,0-.06-.08h.48a.09.09,0,0,0,.1-.09.09.09,0,0,0-.1-.09H76.67v-.41h7.25a.09.09,0,0,0,.09-.09.08.08,0,0,0-.09-.09H80.34V64.9a.09.09,0,0,0-.09-.1c-.06,0-.09,0-.09.1V78.75H76.47v.76h.79a.1.1,0,0,0-.06.08v21.93Zm-11.42,8.25h-.93v.94h.93Zm2.84.38H66.38V113h2.27Zm-10.75-8.8h3.34v-1.17H57.9ZM63,106.88v-3.37H60.66Zm-2.21-2.76v3.49H63Zm.87-4.26h1.46v-.72H61.61Zm1.48-1V97.59h-.92a.56.56,0,0,0-.56.56v.73Zm-5.19,1h3.17v-.72H57.9Zm0-1h3.17v-.73a.56.56,0,0,0-.56-.56H57.9ZM63,96.58H58.38a.47.47,0,0,0-.48.48v.08h2.73a.79.79,0,0,1,.72.46v.05a.78.78,0,0,1,.72-.48H63.6A.58.58,0,0,0,63,96.58Zm.82,1.47v1l.73.73V98.07a.23.23,0,0,0-.23-.23h-.25A.22.22,0,0,0,63.83,98.05Zm.73,2.69v-.67l-.73-.73v.72Zm-.73-.34v1.68h.73v-1Zm.91-3-.27-.13a1.05,1.05,0,0,0-.36-.08,0,0,0,0,0,0,0v.29a.9.9,0,0,1,.45.13l.21.12Zm5.9,5.89-5.53-5.52v.51l5.53,5.44Zm0,.9-5.53-5.52v1.51l5.53,5.44Zm0,1.9-5.53-5.52v.51l5.53,5.44Zm1.62,2.16.17-.38-1.4-1.4v.56Zm-1.21-.89v1.07l.74.73.39-.68Zm1.5.37.55-1.12L71,104.58v1.71Zm-1.5-4v.51l2.17,2.21.16-.44Zm5.7,5.25v-6.81l-1.9,3.58.11.2-.46.88Zm-.7-.19-1.69-1.66-.17.37,1.33,1.29Zm-1-.15-1-1-.5.94.45.38h1Zm-.28,2a.09.09,0,0,0,0-.11.1.1,0,0,0-.08,0,7.32,7.32,0,0,1-.87-.59l-.08-.06-1.29,2a.09.09,0,0,0,0,.12.06.06,0,0,0,0,0,.1.1,0,0,0,.08,0l1.2-1.85C74.68,110.74,74.75,110.71,74.79,110.69Zm-3.11,3.71,1.25-1.8-.39-.28V112l-.44-.35-1.44,2.74h1ZM71,110.6l-1.45-1.53v2.27h1Zm-1.46,2.72.9-1.65h-.9Zm-6-4.74,5.55.09-5.55-5.55Zm0-5.91h.54l1.14,1.13a.05.05,0,0,0,0,0s0,0,0,0l6,6a.11.11,0,0,0,.06,0,.11.11,0,0,0,.07,0,.09.09,0,0,0,0-.12L70,108.3l.35-.44.34.33V107.1l-5.54-5.52v1.17l.52.49s0,0,0,0l-.3.37-1.13-1.14h-.63a.09.09,0,0,0-.09.1S63.49,102.67,63.54,102.67Zm-.45-2.49H61.63v1.17h1.46Zm-2.61,9.22h2.38v4.82h-.61a.09.09,0,0,0,0,.18H63v-6a.1.1,0,0,0-.1-.1.09.09,0,0,0-.09.1v.83H60.63v-1a.09.09,0,0,0-.09-.09.08.08,0,0,0-.09.09v1.14ZM38.89,109h-.1c-2.22,0-2.45.59-2.47.65l0,.11h2.58Zm5.56-2.12H39a.09.09,0,0,0-.09.1A.09.09,0,0,0,39,107h5.47a.08.08,0,0,0,.09-.09A.1.1,0,0,0,44.45,106.83ZM48.06,109H46.47v1.21h1.59ZM44,111.73h2.35l1.6,1.37H48a.06.06,0,0,0,.06,0,.08.08,0,0,0,0-.12l-1.67-1.4H44.12v-1.51h1.62a.09.09,0,0,0,0-.18h-.56v-1a.09.09,0,0,0-.18,0v1h-.18v-1.23a.09.09,0,1,0-.18,0v1.23h-.73v1.86Zm-1-2.13a.08.08,0,0,0,.09.09.08.08,0,0,0,.09-.09v-.87h1v1a.09.09,0,0,0,.09.09.08.08,0,0,0,.09-.09v-1.18H43v1Zm.49-1.58v.34a.09.09,0,0,0,.1.09.09.09,0,0,0,.09-.09v-.51h-.14v-.53h-.81v.53H40.6v-.53h-.81v.53h-.47a.09.09,0,1,0,0,.18h4.1Zm-1,.54H39.21a.09.09,0,0,0-.09.09.09.09,0,0,0,.09.1h3l-.37.81h-2.6a.09.09,0,1,0,0,.18h2.71Zm-2.56,4.65a1.29,1.29,0,1,0-1.29-1.29A1.31,1.31,0,0,0,39.9,113.21Zm-3,0a1.29,1.29,0,1,0-1.29-1.29A1.29,1.29,0,0,0,36.87,113.21Zm-3.25-1.32-.5.47-.24-.32c1.3-1.26,2.89-2.79,3-2.81s.25.43.25.43c0-.48.64-.63.64-.63l2-.25V107l.43-.45h5.71v2h.21v.18h4.78a1.24,1.24,0,0,1-1.25-1.24v-.87h-.28v-.37h1.7v.29h-.62v.56a.86.86,0,0,0,.87.87v-.56h.46V106h2v-.54H51.6V105h-.17a1.77,1.77,0,0,1-1.76-1.76v-.39h-.14v-.38h1.56v.32h-.47v.59a.83.83,0,0,0,.83.83l.24-.25H60v-.53H56.82V97.66a.62.62,0,0,1,.13-.38l.78-1H63a.87.87,0,0,1,.88.87.77.77,0,0,1,1,.08l8.58,8.55.84-1.63h.23l2.1-3.89v-.59h-.34V95.18h.43V80.6c0-.34-1-.59-1-.59V77.8l.43-.16v-.46l.55-.28V65.49h-.19v-.75h-.26V60.42h.28v-.76h.17V57.73h.4v-48h-.31v1.48H76.6v-.39h-.19V6.93h.39V7.4h.93V5.81l.92-.88H84l.85.79v.81a1.08,1.08,0,0,1,.92-.62c.89,0,1.21,2.1,1.21,2.1H85.77l-.45.87v1.3H85V12h-.27V37.57H89V38.8H86.39l-1.63,2.44V61.45h.77v.45h1.11v.62h-.25v.54H86v.69h.22v1l-.23.11-.25.73h-.41v2.18h-.7V77.91h4.43v-.34a.22.22,0,0,1,.22-.22.21.21,0,0,1,.22.22v.34h0a.59.59,0,0,1,.59.59v.74a.42.42,0,0,1-.42.42h-.22l-.27.25h.16v3.94h-4.2l-.57.6v17.27l6.31,0v-.56H101.4c1.14,0,2.37.08,2.37.42s-.3.32-.3.32v2.22s.25,0,.25.26a.25.25,0,0,1-.28.27v2.2a.27.27,0,0,1,.28.28c0,.45-.78.45-.78.45H98.87c.56.25.42,1.08.42,1.08h.44v1.46c1.71,0,1.53,1.44,1.53,1.44h.44v2.66l.23,1.73v1.38s.42,0,.42.53-.45.51-.45.51a.48.48,0,0,1,.39.5c0,.43-.33.81-.33,1.54a7.78,7.78,0,0,0,.33,2.33v.22a.07.07,0,0,0-.08-.08l-19.49-.22v-2.89h7.7v2.89h.26v-2.89h7.74v2.89h.26v-2.89h3.14v-.26H98.68v-2.77h3.07v-.26H83.44v-4.64h0v-.54h.07l-.07,0v-1.74a.1.1,0,0,0-.1-.09.09.09,0,0,0-.09.09v1.62c-.16-.16-1.28-1.35-1.71-1.84l-.06-.06-1.2,1.25v.82h3v.54H79.52l2,1.6L83.26,112v.73l-1.33,1.08,1.33,1.09v.76l-.14-.1s-.91-.74-1.47-1.22l-.05,0-1.94,1.43h3.6v.75a.89.89,0,0,0-.79.88v5.3h-.64v-5.47a.84.84,0,0,0-.85-.85H78.45a.11.11,0,0,0,0-.05l.05-12.4a.09.09,0,0,0-.1-.1.09.09,0,0,0-.09.1l0,10.6-1.76-1.81h0v-1.94H74.44v1.62h0l-1.6,2.35s0,0,0,0H65.44v-2.66l.43-1h-1.8l-.42.91v-2.59H69.2a.09.09,0,0,0,.09-.1.09.09,0,0,0-.09-.09H63.48v5a.09.09,0,1,0,.18,0v-2c.05,0,.08,0,.11-.05l.44-.93h1.43l-.34.83v.07l-.07,0h-.07a.84.84,0,0,0-.84.69l-.44,2H59.73v-4.77l2.1.44a.29.29,0,0,1,.22.28v1.18a.09.09,0,1,0,.18,0v-1.18a.45.45,0,0,0-.35-.45l-2.15-.45v-.31h-9V109l.39.37h8.56v-.06l2.21.47a.84.84,0,0,1,.67.82v1.21a.09.09,0,0,0,.09.1.09.09,0,0,0,.1-.1v-1.21a1,1,0,0,0-.81-1l-2.21-.47h0v-1.69H59v-2.18H53.22v.92h5.39v1.26H51.29l-.61.29a.09.09,0,0,0,0,.11s.08.06.11,0l.57-.28H59.5v1.58H51.18l-.53-.51h-.82a.08.08,0,0,0-.09.09.06.06,0,0,0,0,.06H48.35v1.39h1v1.33h-1v.28l1,.75v2.11H34.92l-.18-.21h0v-1.09l-.51.48-.23-.3.74-.65v-2.13l-.78.7v2l-.37-.48Zm8.59,10.27v-.71a.09.09,0,0,0-.09-.1h-.83l-.79-.71,24.55.15-1.5.78-13.49-.14h0l-7.32-.08a.09.09,0,0,0-.09.1.09.09,0,0,0,.09.09h.48V123Zm-.71-.62H42V122Z" fill="#003a69"/>
    <polygon points="73.05 123.53 72.46 123.44 73.18 123.06 73.05 123.53" fill="#003a69"/>
    <polygon points="72.24 123.58 72.85 123.67 72.12 124.04 72.24 123.58" fill="#003a69"/>
    <path d="M59.12,109.88l.36.08v4.8H56.81a1,1,0,0,0-1,.95v4h-.43v-4a1,1,0,0,0-1-1h-5V110l.36-.32h9.65v.09l-.32-.06a.08.08,0,0,0-.11.06s0,.09.07.09m-9.38.76a.09.09,0,0,0-.1.1.09.09,0,0,0,.1.09h9.57a.08.08,0,0,0,.09-.09.09.09,0,0,0-.09-.1Z" fill="#003a69"/>
    <polygon points="73.36 122.98 74 123.06 73.25 123.47 73.36 122.98" fill="#003a69"/>
    <rect x="51.82" y="123.45" width="1.45" height="0.9" fill="#003a69"/>
    <path d="M73.08,117.42a.85.85,0,0,0-1-.23l-.35.18v-1h3.89v-.6a1,1,0,0,0-.95-1h-.45l.7-.86v-1.26H76v3.55a.09.09,0,0,0,.09.09c.06,0,.1,0,.1-.09v-1h.06a.88.88,0,0,1,.88.89v.23h-.93a.85.85,0,0,0-.85.86v.23Z" fill="#003a69"/>
    <path d="M74.4,112.68h.27v1.2l-.7.85a.06.06,0,0,0,0,0H73l1.45-2.12Z" fill="#003a69"/>
    <path d="M73.19,120.75l-.28-.55-1,.53H71l2.08-1.07.11.2a.67.67,0,0,1-.24.31l.14.22a.75.75,0,0,0,.25-.25l.31.61Z" fill="#003a69"/>
    <path d="M69.82,121.68h-.64l1.49-.76h.86l-1.63.84a.07.07,0,0,0-.08-.08" fill="#003a69"/>
    <rect x="74.58" y="110.91" width="1.79" height="1.58" fill="#003a69"/>
    <polygon points="76.14 114.19 76.14 112.73 76.32 112.73 77.75 114.19 76.14 114.19" fill="#003a69"/>
    <path d="M73.5,122l-6.11,3.29-.2-.36L73,122a.07.07,0,0,0,0-.11.43.43,0,0,0,0,0,.09.09,0,0,0-.09-.09h-2.5l1.63-.84H73l.56,1.09h0Z" fill="#003a69"/>
    <polygon points="66.54 123.78 66.93 123.58 67.5 124.6 67.11 124.8 66.54 123.78" fill="#003a69"/>
    <polygon points="72.43 120.75 72.8 120.56 72.91 120.75 72.43 120.75" fill="#003a69"/>
    <polygon points="65.89 120.37 65.92 120.37 65.4 120.64 65.4 117.69 65.89 117.69 65.89 120.37" fill="#003a69"/>
    <path d="M83.16,6.09a.36.36,0,1,0,.35.36.36.36,0,0,0-.35-.36" fill="#003a69"/>
    <polygon points="67.74 124.49 67.16 123.45 70.13 121.93 72.77 121.93 67.74 124.49" fill="#003a69"/>
    <polygon points="66.83 122.89 68.86 121.85 69.71 121.85 67.02 123.23 66.83 122.89" fill="#003a69"/>
    <path d="M47.3,125.58a1,1,0,0,1,2.05,0,1,1,0,0,1-1,1l-.22,0-.63-.42a1.07,1.07,0,0,1-.17-.59m1.53,0a.51.51,0,1,0-.51.51A.51.51,0,0,0,48.83,125.58Z" fill="#003a69"/>
    <path d="M45.18,124.06a.09.09,0,0,0,.09.09.09.09,0,0,0,.1-.09v-2.43h.32v1.42a.1.1,0,0,0,.1.09.09.09,0,0,0,.09-.09v-1.42l3.5,0a6.53,6.53,0,0,0-2.61,1.22,4,4,0,0,0-.42.54l-.62-.23v1.09h-.89c-.51-.39-1-.78-1.49-1.18v-1.5l1.88,0v2.44Z" fill="#003a69"/>
    <rect x="56.14" y="117.68" width="3.36" height="2.07" fill="#003a69"/>
    <path d="M49.52,125.58a1.2,1.2,0,1,0-2.4,0,1.34,1.34,0,0,0,.07.4l-.62-.44A1.74,1.74,0,1,1,49,127.17l-.62-.39a1.18,1.18,0,0,0,1.13-1.2" fill="#003a69"/>
    <polygon points="48.48 110.13 48.48 109.1 50.5 109.1 50.5 109.52 49.78 109.52 49.32 109.94 49.32 110.13 48.48 110.13" fill="#003a69"/>
    <polygon points="79.98 112.03 82.95 112.03 81.52 113.22 79.98 112.03" fill="#003a69"/>
    <polygon points="83.11 114.59 82.18 113.83 83.11 113.07 83.11 114.59" fill="#003a69"/>
    <path d="M82.81,115.57H80.16l1.41-1,1.24,1" fill="#003a69"/>
    <path d="M81.46,109.49c.93,1,1.35,1.45,1.54,1.63H80.44v-.57Z" fill="#003a69"/>
    <path d="M82.6,124.35c1.46,0,1.52.45,1.52.45v0a.17.17,0,0,1-.08.12c-.15.16-.62.42-2.14.42-1.9,0-2.16-.31-2.18-.32a.12.12,0,0,0-.06-.05l2.19-1.24h.48v.54a2.13,2.13,0,0,1-1.29,0,.08.08,0,0,0-.11,0c0,.05,0,.1,0,.11a1.86,1.86,0,0,0,.68.13,3,3,0,0,0,.8-.13h.06v-.11s0,0,.08,0" fill="#003a69"/>
    <path d="M75.69,123.62h5.38l-5.38,3.08Z" fill="#003a69"/>
    <path d="M48,125.58a.34.34,0,0,1,.34-.34.34.34,0,1,1,0,.68.34.34,0,0,1-.34-.34" fill="#003a69"/>
    <rect x="49.5" y="117.68" width="5.69" height="2.07" fill="#003a69"/>
    <path d="M60.52,124.48a.09.09,0,0,0-.09-.1h-7v-1.12H51.63v1.12h-.9v2.41a.09.09,0,0,0,.09.1.09.09,0,0,0,.1-.1v-2.23h4.3v1.07a.09.09,0,0,0,.1.09.09.09,0,0,0,.09-.09v-1.07h.82v1.07a.09.09,0,0,0,.1.09.09.09,0,0,0,.09-.09v-1.07h4s.06,0,.06-.08m-.73,2.11a.09.09,0,0,0,.1-.09.1.1,0,0,0-.1-.1H51a.1.1,0,0,0-.1.1.09.09,0,0,0,.1.09Zm-9.56-1a1.92,1.92,0,0,0-3.84-.16h0a2,2,0,0,1,1.55-1.72l4.31-1h9.31v-.27H52.21l-4.32,1a2.31,2.31,0,0,0-1.74,1.83l-.52-.38a2.53,2.53,0,0,1,.7-1.26.2.2,0,0,0,.1,0,.22.22,0,0,0,.12-.06l-.17-.19a.13.13,0,0,1,.14,0,.13.13,0,0,1,0,.13s.06-.09.39-.49c.56-.69,3.09-1.29,3.12-1.31v-.08l13.13.14-1.23.64a2.32,2.32,0,0,0-1.12,1.32l-.24.75-.05.14-1.2,3.68.25.08.3-.89.14-.42,1.15-.59a.08.08,0,0,0,.07.07h2.12a.09.09,0,0,0,.09-.1.09.09,0,0,0-.09-.09h-2l4.93-2.53.57,1-7.63,3.87a.07.07,0,0,0,0,.11.09.09,0,0,0,.08,0,0,0,0,0,0,0,0L67,125l.2.35-8.35,4.51.48-1.41H51.15L50,127.77H59.3v-.26H49.55l-.35-.22A1.92,1.92,0,0,0,50.23,125.58Z" fill="#003a69"/>
    <path d="M63.91,118.9v-1.22h.79v1.22a.41.41,0,0,1-.4.4.4.4,0,0,1-.39-.4" fill="#003a69"/>
    <rect x="80.33" y="89.47" width="0.58" height="0.3" fill="#003a69"/>
    <rect x="80.33" y="89.94" width="0.58" height="4.71" fill="#003a69"/>
    <path d="M58.77,130.14a0,0,0,0,0,0,0l14.74-7.94h.09l0,0,.06,0h1.34a.09.09,0,0,0,.09-.1.08.08,0,0,0-.09-.09H73.84l-.56-1.09h.47l.2.41.24-.13-.14-.28h1a.09.09,0,0,0,.09-.09.08.08,0,0,0-.09-.09H74l-.48-.94a.92.92,0,0,0,0-.37.78.78,0,0,0,.24-.33h1.5v-.26H73.77a.83.83,0,0,0-.13-.53l-.4-.67h2.05v4.68h.26v-2.58h6v2.88L75,122.52v1h.55v3.35l5.67-3.23a.08.08,0,0,0,0-.12v0h.57l-6.37,3.59h-.17v-2.33l-9.86,3.51-.09-.22-.92.47a.07.07,0,0,0,0,.11.1.1,0,0,0,.08.05s0,0,0,0l.76-.37.1.2,5.65-2h4a.09.09,0,0,0,.09-.09.08.08,0,0,0-.09-.09h-3.5L75.06,125v2.34h.4l4.12-2.32s0,0,0,.06.25.44,2.33.44c1.54,0,2.09-.26,2.29-.5s.11-.22.09-.25-.08-.62-1.71-.62a.09.09,0,0,0-.06,0v-.45H84.7V127a.09.09,0,0,0,.09.1c.06,0,.09,0,.09-.1v-3.29l13.54.22a.08.08,0,0,0,.09-.08.08.08,0,0,0-.07-.09l-16.73-.27H75.17v-.68l27,.31a.11.11,0,0,0,.1-.08v.81H98.65v2.36l-.29.16v1.35H84.76v-.54H78.09c0,1.72-2.46,1.71-2.46,1.71H64.27l-4.8,2.34-.25-.21,1-.55.05,0v0l1-.51h0l0,0,1.1-.58h.05v0l1.08-.56,0,0v0l1.2-.62h0v0l1.18-.6h.05l0,0,1.21-.62h.05v0l1.2-.62h0l0,0,1.12-.58.05,0v0l1-.54h0v0l1.08-.56h0l0,0,1.09-.56h0l0,0,1.29-.67L74,122.5l-.64.33h0v0l-1.06.55-.05,0v0l-1,.54h0l0,0-1,.54-.05,0,0,0-1,.54h0l0,0-1.2.62h0l0,0-1.21.62h-.05v0l-1.2.62h0v0l-1.14.59h0v0l-1.14.59h0l0,0-1.15.61h0v0l-1,.5,0,0,0,.05-1,.51h0l0,0-.64.33a.08.08,0,0,0,0,.12.08.08,0,0,0,.13,0l.45-.23-.21.51,0,0a0,0,0,0,0,0,0l-.42-.39.11-.31ZM67.85,128h7.58a2.37,2.37,0,0,0,1.76-.54.91.91,0,0,0,.25-.64l-.27,0a.61.61,0,0,1-.19.45,2,2,0,0,1-1.55.45H67.85Z" fill="#003a69"/>
    <polygon points="69.03 106.59 68.7 107.02 67.75 106.07 68.08 105.65 69.03 106.59" fill="#003a69"/>
    <polygon points="59.53 130.2 59.99 130.34 59.34 130.66 59.53 130.2" fill="#003a69"/>
    <rect x="80.33" y="94.82" width="0.58" height="0.3" fill="#003a69"/>
    <path d="M81.48,102.58l-1.09-1.09V101h2.69Zm.23-1.15.42-.44h-.42Z" fill="#003a69"/>
    <polygon points="96.29 103.68 94.39 103.68 94.39 103.42 93.12 103.42 93.12 103.28 91.58 103.28 91.58 103.1 96.29 103.1 96.29 103.68" fill="#003a69"/>
    <polygon points="70.19 107.72 70.19 107.72 69.85 108.16 68.82 107.13 69.17 106.69 70.19 107.72" fill="#003a69"/>
    <rect x="84.62" y="64.71" width="0.48" height="0.12" fill="#003a69"/>
    <polygon points="63.97 127.87 64.55 127.97 63.74 128.39 63.97 127.87" fill="#003a69"/>
    <rect x="80.33" y="95.29" width="0.58" height="4.74" fill="#003a69"/>
    <polygon points="79.3 115.1 79.3 112.73 80.75 113.89 79.3 115.1" fill="#003a69"/>
    <polygon points="61.22 129.67 60.74 129.53 61.38 129.2 61.22 129.67" fill="#003a69"/>
    <path d="M65.09,112.31h.08a.09.09,0,0,0,.06,0v2.5H64l.42-1.93a.7.7,0,0,1,.68-.54" fill="#003a69"/>
    <rect x="65.06" y="109.96" width="0.58" height="0.58" fill="#003a69"/>
    <rect x="66.55" y="110.32" width="1.93" height="2.52" fill="#003a69"/>
    <polygon points="61.6 129.13 62.16 129.2 61.42 129.59 61.6 129.13" fill="#003a69"/>
    <polygon points="62.39 129.06 61.8 128.99 62.58 128.58 62.39 129.06" fill="#003a69"/>
    <path d="M35.2,115h9.31v2.39H37.29c-.72-.78-1.42-1.58-2.09-2.39m9.28,2.65v2.71h.27v-2.71h4.58v2.24h5.86v.67h.27v-.67h.43v.63h.27v-.63h3.52v-2.25h3.7V120a.09.09,0,0,0,.1.09.09.09,0,0,0,.09-.09v-2.35h.2v1.21a.59.59,0,0,0,.58.58.59.59,0,0,0,.57-.58v-1.21h.34v3a.06.06,0,0,0,0,0l-24.89-.15c-1-.92-1.93-1.87-2.85-2.86Z" fill="#003a69"/>
    <polygon points="60.57 129.65 61.04 129.79 60.38 130.13 60.57 129.65" fill="#003a69"/>
    <path d="M80.9,79.63v4.31h-.57V79.63s0-.06-.07-.07H81a.09.09,0,0,0,0,.07" fill="#003a69"/>
    <polygon points="60.17 130.21 59.7 130.07 60.35 129.73 60.17 130.21" fill="#003a69"/>
    <rect x="84.62" y="62.55" width="0.48" height="0.12" fill="#003a69"/>
    <rect x="80.33" y="84.11" width="0.58" height="0.3" fill="#003a69"/>
    <polygon points="81.55 6.92 81.9 7.4 80.64 7.4 81 6.92 81.55 6.92" fill="#003a69"/>
    <polygon points="67.95 105.53 67.63 105.95 66.6 104.92 66.93 104.52 67.95 105.53" fill="#003a69"/>
    <path d="M39.9,110.81A1.13,1.13,0,0,1,41,111.93a1.12,1.12,0,1,1-2.24,0,1.12,1.12,0,0,1,1.12-1.12" fill="#003a69"/>
    <polygon points="68.51 125.89 67.91 125.8 68.72 125.38 68.51 125.89" fill="#003a69"/>
    <polygon points="69.68 125.29 69.14 125.16 69.83 124.8 69.68 125.29" fill="#003a69"/>
    <rect x="39.94" y="107.49" width="0.47" height="0.36" fill="#003a69"/>
    <rect x="42.82" y="107.49" width="0.47" height="0.36" fill="#003a69"/>
    <polygon points="67.67 125.94 68.28 126.03 67.47 126.45 67.67 125.94" fill="#003a69"/>
    <polygon points="71.92 124.12 71.34 124.01 72.04 123.64 71.92 124.12" fill="#003a69"/>
    <path d="M77.26,116.33v-.23a1.07,1.07,0,0,0-1-1.06v-.68h1.52a.08.08,0,0,0,.08,0l.36.36h0v1.59a.09.09,0,0,0,0,0Z" fill="#003a69"/>
    <path d="M36.87,110.81A1.12,1.12,0,0,1,38,111.93a1.1,1.1,0,0,1-1.11,1.12,1.12,1.12,0,0,1,0-2.24" fill="#003a69"/>
    <polygon points="71.14 124.15 71.72 124.26 70.98 124.63 71.14 124.15" fill="#003a69"/>
    <polygon points="70.04 124.73 70.58 124.83 69.88 125.21 70.04 124.73" fill="#003a69"/>
    <polygon points="70.78 124.71 70.22 124.59 70.94 124.23 70.78 124.71" fill="#003a69"/>
    <polygon points="68.93 125.3 69.48 125.41 68.73 125.8 68.93 125.3" fill="#003a69"/>
    <polygon points="62.98 128.36 63.74 127.97 63.51 128.49 62.98 128.36" fill="#003a69"/>
    <path d="M38.72,109.54H36.6a3.54,3.54,0,0,1,2.12-.42Z" fill="#003a69"/>
    <polygon points="62.79 128.5 63.31 128.61 62.61 128.99 62.79 128.5" fill="#003a69"/>
    <path d="M65.73,103.34l1.07,1-.32.42-1.06-1,.31-.39v0" fill="#003a69"/>
    <polygon points="64.75 127.83 64.19 127.73 64.95 127.34 64.75 127.83" fill="#003a69"/>
    <polygon points="66.42 126.61 67.04 126.69 66.21 127.11 66.42 126.61" fill="#003a69"/>
    <path d="M80.51,73.52V70.1l3.14,3.42Zm1.39-1,.12.36h.92l-.27-.36Z" fill="#003a69"/>
    <polygon points="65.17 127.24 65.76 127.34 64.98 127.74 65.17 127.24" fill="#003a69"/>
    <polygon points="67.25 126.55 66.65 126.45 67.46 126.03 67.25 126.55" fill="#003a69"/>
    <polygon points="66 127.2 65.4 127.11 66.2 126.7 66 127.2" fill="#003a69"/>
    <path d="M127.65,104.85A54.53,54.53,0,1,1,61.78,26.7" fill="none" stroke="#1989d0" stroke-linecap="round" stroke-miterlimit="22.93" stroke-width="2.4"/>
  </g>
</svg>
