<svg xmlns="http://www.w3.org/2000/svg" viewBox="0 0 157.95 156.06">
  <defs>
    <style>
      .a {
        fill: #2071b3;
        opacity: 0.5;
      }

      .a, .e, .f {
        fill-rule: evenodd;
      }

      .b, .c, .d, .g {
        fill: none;
        stroke-miterlimit: 22.93;
      }

      .b, .c {
        stroke: #003a69;
      }

      .b, .g {
        stroke-linecap: round;
      }

      .b, .c, .d {
        stroke-width: 0.96px;
      }

      .d, .g {
        stroke: #1989d0;
      }

      .e {
        fill: #003a69;
      }

      .f {
        fill: #1989d0;
      }

      .g {
        stroke-width: 2.4px;
      }
    </style>
  </defs>
  <g>
    <path class="a" d="M78.44,20A58.07,58.07,0,1,1,20.37,78,58.07,58.07,0,0,1,78.44,20m0-19.48A77.55,77.55,0,1,1,.89,78,77.55,77.55,0,0,1,78.44.48Z"/>
    <path class="b" d="M78.44,20A58.07,58.07,0,1,1,20.37,78,58.07,58.07,0,0,1,78.44,20Zm0-19.48A77.55,77.55,0,1,1,.89,78,77.55,77.55,0,0,1,78.44.48Z"/>
    <path class="c" d="M3.1,96.52,107,68.36l47.83,20.76M3.18,30.18,107,46.63V68.36m0-21.73,38.32-7.84"/>
    <polygon class="a" points="55.58 46.92 100.57 52.38 100.57 79.5 55.58 94.69 55.58 46.92"/>
    <polygon class="d" points="55.58 46.92 100.57 52.38 100.57 79.5 55.58 94.69 55.58 46.92"/>
    <polyline class="d" points="100.57 79.5 106.94 83.67 71.65 108.09 55.58 94.69"/>
    <path class="e" d="M3.18,27.08a3.11,3.11,0,1,1-3.1,3.1,3.1,3.1,0,0,1,3.1-3.1"/>
    <path class="e" d="M145.34,35.69a3.11,3.11,0,1,1-3.1,3.1,3.1,3.1,0,0,1,3.1-3.1"/>
    <path class="e" d="M154.85,86a3.11,3.11,0,1,1-3.11,3.1,3.1,3.1,0,0,1,3.11-3.1"/>
    <path class="e" d="M3.1,93.42A3.1,3.1,0,1,1,0,96.52a3.1,3.1,0,0,1,3.1-3.1"/>
    <path class="f" d="M152.69,129.85a3.23,3.23,0,1,1-3.23,3.22,3.22,3.22,0,0,1,3.23-3.22"/>
    <path class="g" d="M122.87,109.87a54.69,54.69,0,0,1-88.86,0M81.56,23.39a54.69,54.69,0,0,1,44.65,81.21m-95.55,0A54.69,54.69,0,0,1,75.31,23.39"/>
  </g>
</svg>
