<svg xmlns="http://www.w3.org/2000/svg" viewBox="0 0 158.18 156.06">
  <defs>
    <style>
      .a {
        fill: #2071b3;
        opacity: 0.5;
      }

      .a, .b, .g {
        fill-rule: evenodd;
      }

      .b, .i {
        fill: #1989d0;
      }

      .c, .d, .f {
        fill: none;
        stroke-miterlimit: 22.93;
      }

      .c, .f {
        stroke: #003a69;
      }

      .c, .d {
        stroke-linecap: round;
      }

      .c {
        stroke-width: 0.96px;
      }

      .d {
        stroke: #1989d0;
        stroke-width: 2.4px;
      }

      .e {
        fill: #003a69;
      }

      .f {
        stroke-width: 0.57px;
      }

      .g {
        fill: #133e73;
      }

      .h {
        fill: #1164a7;
      }
    </style>
  </defs>
  <title>Asset-8</title>
  <g>
    <path class="a" d="M80.15,20A58.07,58.07,0,1,1,22.09,78,58.07,58.07,0,0,1,80.15,20m0-19.48A77.55,77.55,0,1,1,2.6,78,77.55,77.55,0,0,1,80.15.48Z"/>
    <polygon class="b" points="6.3 9.03 7.46 10.19 4.89 12.76 7.46 15.32 6.3 16.48 3.73 13.92 1.16 16.48 0 15.32 2.57 12.76 0 10.19 1.16 9.03 3.73 11.6 6.3 9.03"/>
    <path class="c" d="M80.15,20A58.07,58.07,0,1,1,22.09,78,58.07,58.07,0,0,1,80.15,20Zm0-19.48A77.55,77.55,0,1,1,2.6,78,77.55,77.55,0,0,1,80.15.48Z"/>
    <path class="d" d="M127.63,104.85A54.53,54.53,0,1,1,107,30.55"/>
    <rect class="e" x="44.09" y="41.45" width="72.11" height="46.26"/>
    <rect class="f" x="44.09" y="41.45" width="72.11" height="46.26"/>
    <polygon class="g" points="21.87 115.83 138.28 115.83 116.2 87.71 44.09 87.71 21.87 115.83"/>
    <polygon class="f" points="21.87 115.83 138.28 115.83 116.2 87.71 44.09 87.71 21.87 115.83"/>
    <rect class="h" x="45.43" y="42.58" width="69.43" height="44.01"/>
    <rect class="f" x="45.43" y="42.58" width="69.43" height="44.01"/>
    <rect class="e" x="21.87" y="115.83" width="116.4" height="3.81"/>
    <rect class="f" x="21.87" y="115.83" width="116.4" height="3.81"/>
    <polygon class="b" points="67.97 112.99 92.17 112.99 87.58 107.14 72.59 107.14 67.97 112.99"/>
    <polygon class="f" points="67.97 112.99 92.17 112.99 87.58 107.14 72.59 107.14 67.97 112.99"/>
    <polygon class="f" points="126.39 105.39 114.27 89.96 46.01 89.96 33.81 105.39 126.39 105.39"/>
    <rect class="e" x="50.04" y="47.51" width="15.5" height="1.23"/>
    <rect class="e" x="50.04" y="50.28" width="34.88" height="1.23"/>
    <rect class="e" x="50.04" y="52.82" width="12.25" height="1.23"/>
    <rect class="e" x="50.04" y="55.19" width="8.63" height="1.23"/>
    <rect class="e" x="50.04" y="57.76" width="9.63" height="1.23"/>
    <rect class="e" x="50.04" y="61.07" width="18.31" height="1.23"/>
    <rect class="i" x="50.04" y="73.79" width="34.88" height="1.23"/>
    <rect class="i" x="127.21" y="70.46" width="1.16" height="6.29"/>
    <path class="b" d="M150.66,133.71a2.59,2.59,0,1,1-2.59,2.59,2.59,2.59,0,0,1,2.59-2.59"/>
  </g>
</svg>
