<svg xmlns="http://www.w3.org/2000/svg" viewBox="0 0 175.53 156.06">
  <defs>
    <style>
      .a, .j {
        fill: #2071b3;
      }

      .a, .b, .f, .h {
        fill-rule: evenodd;
      }

      .a {
        opacity: 0.5;
      }

      .b, .c {
        fill: #1989d0;
      }

      .d, .e, .g, .i, .k, .l {
        fill: none;
        stroke-miterlimit: 22.93;
      }

      .d, .e, .i {
        stroke: #003a69;
      }

      .d, .g {
        stroke-linecap: round;
      }

      .d, .e, .l {
        stroke-width: 0.96px;
      }

      .f {
        fill: #133e73;
      }

      .g, .k, .l {
        stroke: #1989d0;
      }

      .g {
        stroke-width: 2.4px;
      }

      .h {
        fill: #003a69;
      }

      .i, .k {
        stroke-width: 0.96px;
      }
    </style>
  </defs>
  <title>Asset-7</title>
  <g>
    <path class="a" d="M91,20A58.07,58.07,0,1,1,33,78,58.07,58.07,0,0,1,91,20M91,.48A77.55,77.55,0,1,1,13.48,78,77.55,77.55,0,0,1,91,.48Z"/>
    <path class="b" d="M171.34,16.13a2.1,2.1,0,1,0-.18,3,2.1,2.1,0,0,0,.18-3m2.74-2.43a5.77,5.77,0,1,0-.49,8.14A5.77,5.77,0,0,0,174.08,13.7Z"/>
    <rect class="c" x="13.16" y="4.92" width="2.89" height="15.68"/>
    <rect class="c" x="6.77" y="11.31" width="15.68" height="2.89"/>
    <path class="d" d="M91,20A58.07,58.07,0,1,1,33,78,58.07,58.07,0,0,1,91,20ZM91,.48A77.55,77.55,0,1,1,13.48,78,77.55,77.55,0,0,1,91,.48Z"/>
    <path class="b" d="M35,62.86C40.6,59.69,47.74,55,48.72,53.57c1.12-1.64,8.81-8.5,10.48-6.79,2.27,2.32,16.27,14.41,18.64,13C82.9,56.92,84.41,52,91.35,49c5.4-2.33,4.61,2.68,13.06,6.48,12.56,5.64,4.91-4.1,13.52,3.5,1.94,1.71,20.5,8.58,16.62,11.13-6.54,4.29-5.59,3.61-10.21,7.71H90.62L88.83,73.5H76.45l-.73,4.32H33A58.13,58.13,0,0,1,35,62.86Z"/>
    <path class="e" d="M35,62.86C40.6,59.69,47.74,55,48.72,53.57c1.12-1.64,8.81-8.5,10.48-6.79,2.27,2.32,16.27,14.41,18.64,13C82.9,56.92,84.41,52,91.35,49c5.4-2.33,4.61,2.68,13.06,6.48,12.56,5.64,4.91-4.1,13.52,3.5,1.94,1.71,20.5,8.58,16.62,11.13-6.54,4.29-5.59,3.61-10.21,7.71H90.62L88.83,73.5H76.45l-.73,4.32H33A58.13,58.13,0,0,1,35,62.86Z"/>
    <path class="f" d="M144.42,55.16c-1.93.15-22,4.33-22.51,6.62-1.12,5.34-14.58-1.55-15-.58-5.38,12.32-37.41,6.52-37.25,10.62.12,3-27.54-7.37-27.81-7.75s-3.57-.91-6.89-1.15a58.12,58.12,0,0,0-2,14.9H75.72l.73-4.32H88.83l1.79,4.32H149.1A57.87,57.87,0,0,0,144.42,55.16Z"/>
    <path class="e" d="M144.42,55.16c-1.93.15-22,4.33-22.51,6.62-1.12,5.34-14.58-1.55-15-.58-5.38,12.32-37.41,6.52-37.25,10.62.12,3-27.54-7.37-27.81-7.75s-3.57-.91-6.89-1.15a58.12,58.12,0,0,0-2,14.9H75.72l.73-4.32H88.83l1.79,4.32H149.1A57.87,57.87,0,0,0,144.42,55.16Z"/>
    <path class="g" d="M138.51,104.85a54.53,54.53,0,1,1-20.65-74.3"/>
    <path class="h" d="M79.17,89.6H99.31a4.79,4.79,0,0,1,4.47,3.09H107V78.24h3.46l4.47,20.92H107V95.38h-3a4.79,4.79,0,0,1-4.67,3.78H79.17a4.79,4.79,0,0,1-4.78-4.78h0A4.79,4.79,0,0,1,79.17,89.6Z"/>
    <path class="i" d="M79.17,89.6H99.31a4.79,4.79,0,0,1,4.47,3.09H107V78.24h3.46l4.47,20.92H107V95.38h-3a4.79,4.79,0,0,1-4.67,3.78H79.17a4.79,4.79,0,0,1-4.78-4.78h0A4.79,4.79,0,0,1,79.17,89.6Z"/>
    <path class="b" d="M104.28,90.33a6.41,6.41,0,0,0-5-2.37H93.87v-2.3l-1.32-3.18h8.34v-3.4h-.8V76.4h3.18v2.68h-.8v3.4h3.18v7.85Z"/>
    <path class="i" d="M104.28,90.33a6.41,6.41,0,0,0-5-2.37H93.87v-2.3l-1.32-3.18h8.34v-3.4h-.8V76.4h3.18v2.68h-.8v3.4h3.18v7.85Z"/>
    <path class="b" d="M82.11,75.14H77.84L76,85.8V87a8,8,0,0,1,3.12-.63h2.95ZM92.23,86.32V86l-4.5-10.84h-4.6V86.32ZM93.87,88v-2.3l-5-12.16H76.45l-2,12.16v4.43A6.41,6.41,0,0,1,79.17,88Z"/>
    <path class="i" d="M82.11,75.14H77.84L76,85.8V87a8,8,0,0,1,3.12-.63h2.95ZM92.23,86.32V86l-4.5-10.84h-4.6V86.32ZM93.87,88v-2.3l-5-12.16H76.45l-2,12.16v4.43A6.41,6.41,0,0,1,79.17,88Z"/>
    <circle class="j" cx="79.18" cy="94.38" r="3.74"/>
    <circle class="k" cx="79.18" cy="94.38" r="3.74"/>
    <circle class="j" cx="98.9" cy="94.38" r="3.74"/>
    <circle class="k" cx="98.9" cy="94.38" r="3.74"/>
    <polyline class="l" points="2.11 44.7 102.15 73 145.83 32.41"/>
    <path class="b" d="M102.15,70.89A2.11,2.11,0,1,1,100,73a2.11,2.11,0,0,1,2.11-2.11"/>
    <path class="b" d="M2.11,42.59A2.11,2.11,0,1,1,0,44.7a2.11,2.11,0,0,1,2.11-2.11"/>
    <path class="b" d="M143.78,31a3.36,3.36,0,1,1-3.36,3.36A3.36,3.36,0,0,1,143.78,31"/>
  </g>
</svg>
