<svg xmlns="http://www.w3.org/2000/svg" viewBox="0 0 148.44 149.11">
  <defs>
    <style>
      .a, .b, .e {
        fill: none;
        stroke-miterlimit: 22.93;
      }

      .a {
        stroke: #003a69;
      }

      .a, .e {
        stroke-width: 0.96px;
      }

      .b, .e {
        stroke: #1989d0;
      }

      .b {
        stroke-linecap: round;
        stroke-width: 2.4px;
      }

      .c, .d {
        fill: #1989d0;
      }

      .d {
        fill-rule: evenodd;
      }
    </style>
  </defs>
  <title>Asset-2</title>
  <g>
    <path class="a" d="M74.72,8.2l15,8.66,15,8.66V60.16l-15,8.66-15,8.66-15-8.66-15-8.66V25.52l15-8.66Zm0-7.65L93,11.13,111.34,21.7V64L93,74.55,74.72,85.13,56.41,74.55,38.1,64V21.7L56.41,11.13Z"/>
    <path class="a" d="M38.1,71.63l15,8.66,15,8.66v34.64l-15,8.66-15,8.66-15-8.66-15-8.66V88.95l15-8.66Zm0-7.65L56.41,74.55,74.72,85.13v42.29L56.41,138,38.1,148.56,19.79,138,1.48,127.41V85.13L19.79,74.55Z"/>
    <path class="a" d="M111.34,71.63l15,8.66,15,8.66v34.64l-15,8.66-15,8.66-15-8.66-15-8.66V88.95l15-8.66Zm0-7.65,18.31,10.57L148,85.13v42.29L129.65,138l-18.31,10.57L93,138,74.72,127.41V85.13L93,74.55Z"/>
    <polyline class="b" points="48.04 42.84 48.04 27.44 61.38 19.73 74.72 12.03 88.06 19.73 101.4 27.44 101.4 42.84 101.4 58.24"/>
    <polyline class="b" points="138.02 90.86 138.02 106.27 138.02 121.67 124.68 129.38 111.34 137.08 98 129.38 84.66 121.67"/>
    <polyline class="b" points="64.78 90.86 64.78 106.27 64.78 121.67 51.44 129.38 38.1 137.08 24.76 129.38 11.42 121.67 11.42 106.27 11.42 90.86 24.76 83.16"/>
    <path class="c" d="M108.79,113.73h-1.35l6.41-14.93h1.35Zm.88-7.86a1.65,1.65,0,0,1-.61,1.38,2.56,2.56,0,0,1-3,0,1.65,1.65,0,0,1-.61-1.38v-4.92a1.67,1.67,0,0,1,.62-1.39,2.51,2.51,0,0,1,3,0,1.69,1.69,0,0,1,.6,1.39ZM108.06,101a.5.5,0,0,0-.13-.34.54.54,0,0,0-.76,0,.5.5,0,0,0-.13.34v4.76a.49.49,0,0,0,.53.49.45.45,0,0,0,.36-.15.5.5,0,0,0,.13-.34Zm9.15,10.56a1.65,1.65,0,0,1-.61,1.38,2.56,2.56,0,0,1-3,0,1.65,1.65,0,0,1-.61-1.38v-4.92a1.67,1.67,0,0,1,.62-1.39,2.51,2.51,0,0,1,3,0,1.69,1.69,0,0,1,.6,1.39Zm-1.61-4.84a.5.5,0,0,0-.13-.34.54.54,0,0,0-.76,0,.5.5,0,0,0-.13.34v4.76a.49.49,0,0,0,.53.49.45.45,0,0,0,.36-.15.5.5,0,0,0,.13-.34Z"/>
    <polygon class="d" points="12.82 35.22 15.18 37.58 9.95 42.8 15.18 48.03 12.82 50.39 7.59 45.17 2.36 50.39 0 48.03 5.23 42.8 0 37.58 2.36 35.22 7.59 40.44 12.82 35.22"/>
    <path class="e" d="M38.1,100.12a6.15,6.15,0,0,1,6.15,6c0,.05,0,.11,0,.16a6.15,6.15,0,1,1-12.31,0v-.07A6.15,6.15,0,0,1,38.1,100.12Z"/>
    <polygon class="c" points="87.81 49.35 75.66 39.13 63.06 49.35 87.81 49.35"/>
  </g>
</svg>
