<svg xmlns="http://www.w3.org/2000/svg" viewBox="0 0 195.52 159.12">
  <g>
    <path d="M100.05,20A58.07,58.07,0,1,1,42,78,58.07,58.07,0,0,1,100.05,20m0-19.48A77.55,77.55,0,1,1,22.5,78,77.55,77.55,0,0,1,100.05.48Z" fill="#2071b3" fill-rule="evenodd" opacity="0.5"/>
    <path d="M100.05,20A58.07,58.07,0,1,1,42,78,58.07,58.07,0,0,1,100.05,20Zm0-19.48A77.55,77.55,0,1,1,22.5,78,77.55,77.55,0,0,1,100.05.48Z" fill="none" stroke="#001c33" stroke-linecap="round" stroke-miterlimit="22.93" stroke-width="0.96"/>
    <rect x="11.26" y="4.05" width="5.08" height="27.6" fill="#fcaf2e"/>
    <rect y="15.31" width="27.6" height="5.08" fill="#fcaf2e"/>
    <path d="M138.52,39.41A54.53,54.53,0,1,1,45.94,71.26" fill="none" stroke="#fcaf2e" stroke-linecap="round" stroke-miterlimit="22.93" stroke-width="2.4"/>
    <rect x="188.86" y="125.77" width="2.07" height="11.25" fill="#fcaf2e"/>
    <rect x="184.27" y="130.36" width="11.25" height="2.07" fill="#fcaf2e"/>
    <path d="M88.18,58.7h5.09v42.16H88.18a2.63,2.63,0,0,1-2.62-2.62V61.32A2.63,2.63,0,0,1,88.18,58.7Z" fill="#fcaf2e" fill-rule="evenodd"/>
    <path d="M88.18,58.7h5.09v42.16H88.18a2.63,2.63,0,0,1-2.62-2.62V61.32A2.63,2.63,0,0,1,88.18,58.7Z" fill="none" stroke="#001c33" stroke-miterlimit="22.93" stroke-width="0.96"/>
    <polygon points="93.27 58.7 95.18 58.7 95.18 57.28 110.67 57.28 110.67 58.7 112.58 58.7 112.58 90.9 110.67 90.9 110.67 92.31 95.18 92.31 95.18 90.9 93.27 90.9 93.27 58.7" fill="none" stroke="#001c33" stroke-miterlimit="22.93" stroke-width="0.96"/>
    <rect x="93.27" y="48.48" width="19.32" height="4.64" fill="#133e73"/>
    <rect x="93.27" y="48.48" width="19.32" height="4.64" fill="none" stroke="#001c33" stroke-miterlimit="22.93" stroke-width="0.96"/>
    <rect x="81.43" y="56.56" width="2.88" height="3.62" fill="none" stroke="#001c33" stroke-miterlimit="22.93" stroke-width="0.96"/>
    <path d="M85.82,60.19H80.18L81.38,69l4.18,2.55V61.32A2.64,2.64,0,0,1,85.82,60.19Z" fill="none" stroke="#001c33" stroke-miterlimit="22.93" stroke-width="0.96"/>
    <polygon points="81.43 55.96 84.31 55.96 83.78 41.29 81.85 41.29 81.43 55.96" fill="none" stroke="#001c33" stroke-miterlimit="22.93" stroke-width="0.96"/>
    <path d="M82.87,35.84h0a1,1,0,0,1,1,1v2.88H81.9V36.81A1,1,0,0,1,82.87,35.84Z" fill="none" stroke="#001c33" stroke-miterlimit="22.93" stroke-width="0.96"/>
    <polygon points="93.27 53.89 91.64 58.7 88.25 58.7 88.25 47.72 93.27 47.72 93.27 53.89" fill="#133e73" fill-rule="evenodd"/>
    <polygon points="93.27 53.89 91.64 58.7 88.25 58.7 88.25 47.72 93.27 47.72 93.27 53.89" fill="none" stroke="#001c33" stroke-miterlimit="22.93" stroke-width="0.96"/>
    <path d="M117.67,58.7h-5.09v42.16h5.09a2.63,2.63,0,0,0,2.62-2.62V61.32A2.63,2.63,0,0,0,117.67,58.7Z" fill="#fcaf2e" fill-rule="evenodd"/>
    <path d="M117.67,58.7h-5.09v42.16h5.09a2.63,2.63,0,0,0,2.62-2.62V61.32A2.63,2.63,0,0,0,117.67,58.7Z" fill="none" stroke="#001c33" stroke-miterlimit="22.93" stroke-width="0.96"/>
    <polygon points="112.58 53.89 114.22 58.7 117.61 58.7 117.61 47.72 112.58 47.72 112.58 53.89" fill="#133e73" fill-rule="evenodd"/>
    <polygon points="112.58 53.89 114.22 58.7 117.61 58.7 117.61 47.72 112.58 47.72 112.58 53.89" fill="none" stroke="#001c33" stroke-miterlimit="22.93" stroke-width="0.96"/>
    <polyline points="93.27 69.73 99.82 69.73 100.79 67.17 105.06 67.17 106.13 69.73 112.58 69.73" fill="none" stroke="#001c33" stroke-miterlimit="22.93" stroke-width="0.96"/>
    <path d="M100.74,72.84a3.83,3.83,0,0,1,3.51,2.31h4.29v3h-4.29a3.83,3.83,0,1,1-3.51-5.36Z" fill="#133e73" fill-rule="evenodd"/>
    <path d="M100.74,72.84a3.83,3.83,0,0,1,3.51,2.31h4.29v3h-4.29a3.83,3.83,0,1,1-3.51-5.36Z" fill="none" stroke="#001c33" stroke-miterlimit="22.93" stroke-width="0.96"/>
    <polyline points="93.27 83.54 99.82 83.54 100.79 86.09 105.06 86.09 106.13 83.54 112.58 83.54" fill="none" stroke="#001c33" stroke-miterlimit="22.93" stroke-width="0.96"/>
    <path d="M100.74,74.8a1.88,1.88,0,1,1-1.88,1.87A1.87,1.87,0,0,1,100.74,74.8Z" fill="none" stroke="#001c33" stroke-miterlimit="22.93" stroke-width="0.96"/>
    <rect x="93.27" y="94.38" width="19.32" height="7.99" fill="#fcaf2e"/>
    <rect x="93.27" y="94.38" width="19.32" height="7.99" fill="none" stroke="#001c33" stroke-miterlimit="22.93" stroke-width="0.96"/>
    <polygon points="98.69 107.48 98.69 103.95 107.16 103.95 107.16 107.48 110.49 107.48 110.49 103.95 110.49 102.37 107.16 102.37 98.69 102.37 95.37 102.37 95.37 103.95 95.37 107.48 98.69 107.48" fill="#133e73" fill-rule="evenodd"/>
    <polygon points="98.69 107.48 98.69 103.95 107.16 103.95 107.16 107.48 110.49 107.48 110.49 103.95 110.49 102.37 107.16 102.37 98.69 102.37 95.37 102.37 95.37 103.95 95.37 107.48 98.69 107.48" fill="none" stroke="#001c33" stroke-miterlimit="22.93" stroke-width="0.96"/>
    <rect x="95.37" y="107.48" width="15.12" height="1.58" fill="#fcaf2e"/>
    <rect x="95.37" y="107.48" width="15.12" height="1.58" fill="none" stroke="#001c33" stroke-miterlimit="22.93" stroke-width="0.96"/>
    <rect x="90.26" y="109.05" width="25.33" height="7.99" fill="#fff"/>
    <rect x="90.26" y="109.05" width="25.33" height="7.99" fill="none" stroke="#001c33" stroke-miterlimit="22.93" stroke-width="0.96"/>
    <polygon points="108.18 117.04 115.12 117.04 136.62 158.64 129.68 158.64 108.18 117.04" fill="#fcaf2e" fill-rule="evenodd"/>
    <polygon points="108.18 117.04 115.12 117.04 136.62 158.64 129.68 158.64 108.18 117.04" fill="none" stroke="#001c33" stroke-miterlimit="22.93" stroke-width="0.96"/>
    <polygon points="97.2 117.04 90.26 117.04 68.76 158.64 75.7 158.64 97.2 117.04" fill="#fcaf2e" fill-rule="evenodd"/>
    <polygon points="97.2 117.04 90.26 117.04 68.76 158.64 75.7 158.64 97.2 117.04" fill="none" stroke="#001c33" stroke-miterlimit="22.93" stroke-width="0.96"/>
    <circle cx="83.36" cy="37.06" r="16.94" transform="translate(33.43 113.4) rotate(-80.78)" fill="none" stroke="#fcaf2e" stroke-miterlimit="22.93" stroke-width="0.96"/>
    <circle cx="83.36" cy="37.06" r="6.21" fill="none" stroke="#fcaf2e" stroke-miterlimit="22.93" stroke-width="0.96"/>
  </g>
</svg>
