<svg xmlns="http://www.w3.org/2000/svg" viewBox="0 0 162.29 156.06">
  <g>
    <path d="M84.26,20A58.07,58.07,0,1,1,26.2,78,58.07,58.07,0,0,1,84.26,20m0-19.48A77.55,77.55,0,1,1,6.71,78,77.55,77.55,0,0,1,84.26.48Z" fill="#2071b3" fill-rule="evenodd" opacity="0.5"/>
    <rect x="6.4" y="4.92" width="2.89" height="15.68" fill="#fcaf2e"/>
    <rect y="11.31" width="15.68" height="2.89" fill="#fcaf2e"/>
    <path d="M84.26,20A58.07,58.07,0,1,1,26.2,78,58.07,58.07,0,0,1,84.26,20Zm0-19.48A77.55,77.55,0,1,1,6.71,78,77.55,77.55,0,0,1,84.26.48Z" fill="none" stroke="#001c33" stroke-linecap="round" stroke-miterlimit="22.93" stroke-width="0.96"/>
    <path d="M131.74,104.85a54.53,54.53,0,1,1-20.66-74.3" fill="none" stroke="#fcaf2e" stroke-linecap="round" stroke-miterlimit="22.93" stroke-width="2.4"/>
    <rect x="48.2" y="41.45" width="72.11" height="46.26" fill="#001c33"/>
    <rect x="48.2" y="41.45" width="72.11" height="46.26" fill="none" stroke="#001c33" stroke-miterlimit="22.93" stroke-width="0.57"/>
    <polygon points="25.98 115.83 142.39 115.83 120.31 87.71 48.2 87.71 25.98 115.83" fill="#133e73" fill-rule="evenodd"/>
    <polygon points="25.98 115.83 142.39 115.83 120.31 87.71 48.2 87.71 25.98 115.83" fill="none" stroke="#001c33" stroke-miterlimit="22.93" stroke-width="0.57"/>
    <rect x="49.54" y="42.58" width="69.43" height="44.01" fill="#1164a7"/>
    <rect x="49.54" y="42.58" width="69.43" height="44.01" fill="none" stroke="#001c33" stroke-miterlimit="22.93" stroke-width="0.57"/>
    <rect x="25.98" y="115.83" width="116.4" height="3.81" fill="#001c33"/>
    <rect x="25.98" y="115.83" width="116.4" height="3.81" fill="none" stroke="#001c33" stroke-miterlimit="22.93" stroke-width="0.57"/>
    <polygon points="72.09 112.99 96.28 112.99 91.69 107.14 76.7 107.14 72.09 112.99" fill="#fcaf2e" fill-rule="evenodd"/>
    <polygon points="72.09 112.99 96.28 112.99 91.69 107.14 76.7 107.14 72.09 112.99" fill="none" stroke="#001c33" stroke-miterlimit="22.93" stroke-width="0.57"/>
    <polygon points="130.5 105.39 118.38 89.96 50.12 89.96 37.93 105.39 130.5 105.39" fill="none" stroke="#001c33" stroke-miterlimit="22.93" stroke-width="0.57"/>
    <rect x="54.16" y="47.51" width="15.5" height="1.23" fill="#001c33"/>
    <rect x="54.16" y="50.28" width="34.88" height="1.23" fill="#001c33"/>
    <rect x="54.16" y="52.82" width="12.25" height="1.23" fill="#001c33"/>
    <rect x="54.16" y="55.19" width="8.63" height="1.23" fill="#001c33"/>
    <rect x="54.16" y="57.76" width="9.63" height="1.23" fill="#001c33"/>
    <rect x="54.16" y="61.07" width="18.31" height="1.23" fill="#001c33"/>
    <rect x="54.16" y="73.79" width="34.88" height="1.23" fill="#fcaf2e"/>
    <rect x="131.32" y="70.46" width="1.16" height="6.29" fill="#fcaf2e"/>
    <rect x="128.76" y="73.02" width="6.29" height="1.16" fill="#fcaf2e"/>
    <rect x="153.85" y="131.29" width="1.85" height="10.02" fill="#fcaf2e"/>
    <rect x="149.76" y="135.37" width="10.02" height="1.85" fill="#fcaf2e"/>
  </g>
</svg>
