<svg xmlns="http://www.w3.org/2000/svg" viewBox="0 0 184.67 156.06">
  <g>
    <rect x="6.39" y="6.77" width="2.89" height="15.68" fill="#fcaf2e"/>
    <rect y="13.16" width="15.68" height="2.89" fill="#fcaf2e"/>
    <polyline points="111.8 103.23 161.15 67.02 176.23 67.02" fill="none" stroke="#fff" stroke-miterlimit="22.93" stroke-width="0.57"/>
    <rect x="161.57" y="63.3" width="12.23" height="1.67" fill="#fcaf2e"/>
    <rect x="161.57" y="61.11" width="6.11" height="1.67" fill="#fff"/>
    <rect x="161.57" y="58.91" width="19.94" height="1.67" fill="#fff"/>
    <rect x="164.73" y="13.25" width="12.23" height="1.67" fill="#fcaf2e"/>
    <rect x="164.73" y="11.06" width="6.11" height="1.67" fill="#fff"/>
    <rect x="164.73" y="8.87" width="19.94" height="1.67" fill="#fff"/>
    <rect x="164.73" y="23.75" width="8.27" height="1.67" fill="#001c33"/>
    <rect x="164.73" y="21.56" width="4.14" height="1.67" fill="#fcaf2e"/>
    <rect x="164.73" y="19.37" width="13.49" height="1.67" fill="#001c33"/>
    <path d="M81.19,20A58.07,58.07,0,1,1,23.12,78,58.06,58.06,0,0,1,81.19,20m0-19.48A77.55,77.55,0,1,1,3.64,78,77.55,77.55,0,0,1,81.19.48Z" fill="#2071b3" fill-rule="evenodd" opacity="0.5"/>
    <path d="M81.19,20A58.07,58.07,0,1,1,23.12,78,58.06,58.06,0,0,1,81.19,20Zm0-19.48A77.55,77.55,0,1,1,3.64,78,77.55,77.55,0,0,1,81.19.48Z" fill="none" stroke="#001c33" stroke-linecap="round" stroke-miterlimit="22.93" stroke-width="0.96"/>
    <path d="M87.88,54.21,43.2,73.86c-10.73,6-15.53,12.49-18.1,19.23" fill="none" stroke="#001c33" stroke-miterlimit="22.93" stroke-width="0.96"/>
    <path d="M35,103.94a40.37,40.37,0,0,0-2.33,5.7M92.6,61,59.69,81.22C50.25,86.49,43.19,92,38.33,98.58" fill="none" stroke="#001c33" stroke-miterlimit="22.93" stroke-width="0.96"/>
    <path d="M87.88,54.21a19.85,19.85,0,0,1,9.29-3.35,23.42,23.42,0,0,1,3.77-.36,1.85,1.85,0,0,1,1.21,3.09c-2.52,2.73-5,6.08-7.23,6.55-.78.29-1.94.82-2.71,1.11" fill="none" stroke="#001c33" stroke-miterlimit="22.93" stroke-width="0.96"/>
    <path d="M51.82,70.07H48.93c-.1-1.43-1.91-2.87-3.29-1.42-2.89,3.18-5.79,6-8.67,9.19" fill="none" stroke="#001c33" stroke-miterlimit="22.93" stroke-width="0.96"/>
    <path d="M46.32,69.05A1,1,0,1,0,47.68,69,1,1,0,0,0,46.32,69.05Z" fill="none" stroke="#001c33" stroke-miterlimit="22.93" stroke-width="0.96"/>
    <polyline points="46.42 68.96 44.55 70.88 45.92 72.16 47.66 70.44" fill="none" stroke="#001c33" stroke-miterlimit="22.93" stroke-width="0.96"/>
    <path d="M99.93,51.89a.85.85,0,0,0,.07,1.2.85.85,0,1,0,1.13-1.28A.85.85,0,0,0,99.93,51.89Z" fill="none" stroke="#001c33" stroke-miterlimit="22.93" stroke-width="0.96"/>
    <path d="M97.16,53.46a.55.55,0,1,0,.77-.05A.54.54,0,0,0,97.16,53.46Z" fill="none" stroke="#001c33" stroke-miterlimit="22.93" stroke-width="0.96"/>
    <path d="M99.38,51.4a1.54,1.54,0,0,0-.36.72l-1.2.56a1.17,1.17,0,1,0,.62,1.91,1,1,0,0,0,.15-.2l1.19-.56a1.59,1.59,0,1,0-.4-2.43Z" fill="none" stroke="#001c33" stroke-miterlimit="22.93" stroke-width="0.96"/>
    <line x1="87.88" y1="54.21" x2="92.21" y2="61.25" fill="none" stroke="#001c33" stroke-miterlimit="22.93" stroke-width="0.96"/>
    <line x1="87.47" y1="54.39" x2="91.83" y2="61.49" fill="none" stroke="#001c33" stroke-miterlimit="22.93" stroke-width="0.96"/>
    <line x1="54.42" y1="68.93" x2="61.34" y2="80.2" fill="none" stroke="#001c33" stroke-miterlimit="22.93" stroke-width="0.96"/>
    <line x1="103.99" y1="35.98" x2="80.36" y2="49.57" fill="none" stroke="#001c33" stroke-miterlimit="22.93" stroke-width="0.96"/>
    <line x1="102.88" y1="39.08" x2="81.54" y2="51.42" fill="none" stroke="#001c33" stroke-miterlimit="22.93" stroke-width="0.96"/>
    <path d="M106,104.51l.59-4,7.31-50.08.2-2.09-.57-1.11-6.06-10.54c-1.16-2.16-3-2.56-3.65-.21l-5.1,14.15" fill="none" stroke="#001c33" stroke-miterlimit="22.93" stroke-width="0.96"/>
    <path d="M110.9,112.54c.7-7.79,1.59-15.67,2.29-23.46m-13.1,28.74c3.32-.69,5.68-1.32,9-2M97.94,58.18c.92,15.26,2.1,34.66,3,49.92L88.41,96.77c.17-.57.33-1.14.49-1.71l-3.13-3.67-.83-.33.18-.75-.85.13-.36.76-.71-.52c-.31-1.09-.62-2.17-.94-3.26l-2,10.7.85.62c-.67,2.81-1.33,5.62-2,8.43-.35,3.87,1.4,7.19,8,9.24l4-.68a3.11,3.11,0,0,1,4.21,2" fill="none" stroke="#001c33" stroke-miterlimit="22.93" stroke-width="0.96"/>
    <polyline points="81.09 98.74 82.53 98.79 99.7 114.27" fill="none" stroke="#001c33" stroke-miterlimit="22.93" stroke-width="0.96"/>
    <polyline points="88.41 96.77 87.27 100.18 86.34 100.35 83.23 97.79 84.52 92.65 83.91 91.2" fill="none" stroke="#001c33" stroke-miterlimit="22.93" stroke-width="0.96"/>
    <polyline points="81.48 91.56 82.96 94.53 81.81 98.76" fill="none" stroke="#001c33" stroke-miterlimit="22.93" stroke-width="0.96"/>
    <path d="M86.25,99.87a.5.5,0,1,0,.63-.33A.49.49,0,0,0,86.25,99.87Z" fill="none" stroke="#001c33" stroke-miterlimit="22.93" stroke-width="0.96"/>
    <path d="M86.86,97.49a.41.41,0,0,0,.26.51.4.4,0,0,0,.5-.26.4.4,0,1,0-.76-.25Z" fill="none" stroke="#001c33" stroke-miterlimit="22.93" stroke-width="0.96"/>
    <path d="M83.62,97.38a.4.4,0,0,0,.77.24.39.39,0,0,0-.26-.5A.4.4,0,0,0,83.62,97.38Z" fill="none" stroke="#001c33" stroke-miterlimit="22.93" stroke-width="0.96"/>
    <path d="M84.16,95.13a.41.41,0,0,0,.27.51.4.4,0,0,0,.5-.26.41.41,0,0,0-.26-.51A.42.42,0,0,0,84.16,95.13Z" fill="none" stroke="#001c33" stroke-miterlimit="22.93" stroke-width="0.96"/>
    <path d="M80.94,99.4l1.18,0,1.06.86c-1.28,3.88-2.43,7.75-.77,11.24.16,1.2-.31,1.73-1.19,1.81" fill="none" stroke="#001c33" stroke-miterlimit="22.93" stroke-width="0.96"/>
    <path d="M99.67,48a7.38,7.38,0,0,1,2,.54c4.35,1.89,2.94,7.24-1.47,7.22" fill="none" stroke="#001c33" stroke-miterlimit="22.93" stroke-width="0.96"/>
    <path d="M104.39,36.39a1.13,1.13,0,1,0,1.43-.73A1.14,1.14,0,0,0,104.39,36.39Z" fill="none" stroke="#001c33" stroke-miterlimit="22.93" stroke-width="0.96"/>
    <path d="M108.39,38.33c-2.26-1.3-5.07,3.53-7.75,7" fill="none" stroke="#001c33" stroke-miterlimit="22.93" stroke-width="0.96"/>
    <path d="M103.92,38.35a.45.45,0,1,0,.57-.29A.44.44,0,0,0,103.92,38.35Z" fill="none" stroke="#001c33" stroke-miterlimit="22.93" stroke-width="0.96"/>
    <line x1="98.66" y1="67.39" x2="111.39" y2="67.62" fill="none" stroke="#001c33" stroke-miterlimit="22.93" stroke-width="0.96"/>
    <line x1="100.51" y1="99.2" x2="106.78" y2="99.19" fill="none" stroke="#001c33" stroke-miterlimit="22.93" stroke-width="0.96"/>
    <line x1="103.71" y1="104.02" x2="107.91" y2="112.72" fill="none" stroke="#001c33" stroke-miterlimit="22.93" stroke-width="0.96"/>
    <line x1="105.33" y1="103.22" x2="109.44" y2="111.93" fill="none" stroke="#001c33" stroke-miterlimit="22.93" stroke-width="0.96"/>
    <path d="M107.62,113.29a2,2,0,1,0,2.46-1.27A2,2,0,0,0,107.62,113.29Z" fill="none" stroke="#001c33" stroke-miterlimit="22.93" stroke-width="0.96"/>
    <path d="M102.52,102.06a1.52,1.52,0,1,0,1.91-1A1.53,1.53,0,0,0,102.52,102.06Z" fill="none" stroke="#001c33" stroke-miterlimit="22.93" stroke-width="0.96"/>
    <path d="M103.12,102.25a.89.89,0,1,0,1.12-.58A.89.89,0,0,0,103.12,102.25Z" fill="none" stroke="#001c33" stroke-miterlimit="22.93" stroke-width="0.96"/>
    <path d="M100.46,109.31a2.59,2.59,0,1,0,3.25-1.68A2.59,2.59,0,0,0,100.46,109.31Z" fill="none" stroke="#001c33" stroke-miterlimit="22.93" stroke-width="0.96"/>
    <path d="M95.22,116.08a2.59,2.59,0,1,0,3.25-1.69A2.58,2.58,0,0,0,95.22,116.08Z" fill="none" stroke="#001c33" stroke-miterlimit="22.93" stroke-width="0.96"/>
    <path d="M100.34,110.06c.31,2.11.4,4-1.38,4.54" fill="none" stroke="#001c33" stroke-miterlimit="22.93" stroke-width="0.96"/>
    <path d="M104.3,112.3a8,8,0,0,0-4.21,5.52" fill="none" stroke="#001c33" stroke-miterlimit="22.93" stroke-width="0.96"/>
    <path d="M96.08,116.35a1.68,1.68,0,1,0,2.12-1.09A1.7,1.7,0,0,0,96.08,116.35Z" fill="none" stroke="#001c33" stroke-miterlimit="22.93" stroke-width="0.96"/>
    <path d="M96.79,116.57A.95.95,0,1,0,98,116,.94.94,0,0,0,96.79,116.57Z" fill="none" stroke="#001c33" stroke-miterlimit="22.93" stroke-width="0.96"/>
    <path d="M101.32,109.59a1.68,1.68,0,1,0,2.12-1.09A1.68,1.68,0,0,0,101.32,109.59Z" fill="none" stroke="#001c33" stroke-miterlimit="22.93" stroke-width="0.96"/>
    <path d="M102.21,109.87a.75.75,0,0,0,1.43.46.75.75,0,0,0-1.43-.46Z" fill="none" stroke="#001c33" stroke-miterlimit="22.93" stroke-width="0.96"/>
    <path d="M108.37,113.53a1.17,1.17,0,1,0,1.47-.76A1.16,1.16,0,0,0,108.37,113.53Z" fill="none" stroke="#001c33" stroke-miterlimit="22.93" stroke-width="0.96"/>
    <path d="M108.86,113.69a.65.65,0,0,0,.43.82.64.64,0,0,0,.81-.42.65.65,0,1,0-1.24-.4Z" fill="none" stroke="#001c33" stroke-miterlimit="22.93" stroke-width="0.96"/>
    <line x1="101.57" y1="114.58" x2="107.7" y2="113.08" fill="none" stroke="#001c33" stroke-miterlimit="22.93" stroke-width="0.96"/>
    <path d="M114.09,48.36c.47,4.94,1,7.62,1.73,9.07.26.54.48,1,.62,1.3.42,1-.12,2.26-1.31,2.1-.95-.12-2.23-.66-2.9,1" fill="none" stroke="#001c33" stroke-miterlimit="22.93" stroke-width="0.96"/>
    <path d="M114.23,59.07a.94.94,0,0,0,.62,1.2,1,1,0,0,0,.58-1.82A1,1,0,0,0,114.23,59.07Z" fill="none" stroke="#001c33" stroke-miterlimit="22.93" stroke-width="0.96"/>
    <polyline points="116.4 60.2 113.88 85.59 114.33 85.63 114.04 88.51 113.59 88.46 113.53 89.1 110.59 88.87 110.66 88.17 110.17 88.12 110.46 85.25 110.95 85.3 113.41 60.69" fill="none" stroke="#001c33" stroke-miterlimit="22.93" stroke-width="0.96"/>
    <line x1="110.94" y1="88.9" x2="108.94" y2="110.88" fill="none" stroke="#001c33" stroke-miterlimit="22.93" stroke-width="0.96"/>
    <line x1="110.95" y1="85.3" x2="113.88" y2="85.59" fill="none" stroke="#001c33" stroke-miterlimit="22.93" stroke-width="0.96"/>
    <line x1="110.66" y1="88.17" x2="113.59" y2="88.46" fill="none" stroke="#001c33" stroke-miterlimit="22.93" stroke-width="0.96"/>
    <polyline points="47.27 68.11 74.4 52.39 74.1 51.89 78.38 49.33 78.72 49.89 80.04 49.12 81.62 51.82 80.31 52.56 80.56 52.98 76.28 55.54 75.97 55.01 49.66 69.86" fill="none" stroke="#001c33" stroke-miterlimit="22.93" stroke-width="0.96"/>
    <line x1="78.72" y1="49.89" x2="80.31" y2="52.56" fill="none" stroke="#001c33" stroke-miterlimit="22.93" stroke-width="0.96"/>
    <line x1="74.4" y1="52.39" x2="75.97" y2="55.01" fill="none" stroke="#001c33" stroke-miterlimit="22.93" stroke-width="0.96"/>
    <path d="M35.5,84.12a1.52,1.52,0,0,0-.37,1.14v2.36h3.07V85.15h0a1.54,1.54,0,0,0-2.7-1Z" fill="none" stroke="#001c33" stroke-miterlimit="22.93" stroke-width="0.96"/>
    <path d="M37.82,88.05a3.09,3.09,0,0,0,1.2-.84,3.13,3.13,0,1,0-3.38.9" fill="none" stroke="#001c33" stroke-miterlimit="22.93" stroke-width="0.96"/>
    <line x1="37.82" y1="87.63" x2="37.85" y2="97.3" fill="none" stroke="#001c33" stroke-miterlimit="22.93" stroke-width="0.96"/>
    <line x1="35.66" y1="87.62" x2="35.71" y2="97.37" fill="none" stroke="#001c33" stroke-miterlimit="22.93" stroke-width="0.96"/>
    <polyline points="35 113.14 35.05 103.32 34.47 103.3 34.57 98.82 35.08 98.83 35.08 97.25 38.27 97.27 38.26 98.91 39.04 98.93 38.93 103.41 38.24 103.39 38.17 117.04" fill="none" stroke="#001c33" stroke-miterlimit="22.93" stroke-width="0.96"/>
    <line x1="35.07" y1="98.83" x2="38.26" y2="98.91" fill="none" stroke="#001c33" stroke-miterlimit="22.93" stroke-width="0.96"/>
    <line x1="35.05" y1="103.32" x2="38.24" y2="103.39" fill="none" stroke="#001c33" stroke-miterlimit="22.93" stroke-width="0.96"/>
    <polyline points="48.66 67.54 48.02 66.49 47.15 67.02 47.76 67.97" fill="none" stroke="#001c33" stroke-miterlimit="22.93" stroke-width="0.96"/>
    <path d="M32.18,82c.2-.41.46-1,.69-1.45,1.87-4,4.84-10.43,9-12h0L43,68.1h0c1.62-.7,4-1.7,4.22-1.17l.7-.36c-.61-1.18-3.33,0-5.24.81h0l-1.1.45h0c-4.46,1.68-7.51,8.25-9.43,12.4-.51,1.1-1.25,3-1.6,3.56" fill="none" stroke="#001c33" stroke-miterlimit="22.93" stroke-width="0.96"/>
    <circle cx="103.15" cy="109.39" r="10.62" transform="translate(-15.87 201.26) rotate(-84.35)" fill="none" stroke="#fcaf2e" stroke-miterlimit="22.93" stroke-width="0.96"/>
    <line x1="161.4" y1="8.87" x2="161.4" y2="31.12" fill="none" stroke="#001c33" stroke-linecap="round" stroke-miterlimit="22.93" stroke-width="1.2"/>
    <path d="M128.66,104.85A54.53,54.53,0,1,1,62.79,26.7" fill="none" stroke="#fcaf2e" stroke-linecap="round" stroke-miterlimit="22.93" stroke-width="2.4"/>
  </g>
</svg>
