<svg xmlns="http://www.w3.org/2000/svg" viewBox="0 0 187.73 158.06">
  <g>
    <path d="M91,22A58.07,58.07,0,1,1,33,80,58.07,58.07,0,0,1,91,22M91,2.49A77.55,77.55,0,1,1,13.48,80,77.55,77.55,0,0,1,91,2.49Z" fill="#2071b3" fill-rule="evenodd" opacity="0.5"/>
    <path d="M174.08,15.71a5.77,5.77,0,1,0-.49,8.14,5.76,5.76,0,0,0,.49-8.14" fill="#001c33" fill-rule="evenodd"/>
    <polygon points="177.21 22.28 184.54 25.9 179.74 30.15 172.41 26.54 177.21 22.28" fill="none" stroke="#001c33" stroke-linecap="round" stroke-linejoin="round" stroke-width="0.96"/>
    <polygon points="187.25 33.61 184.54 25.9 179.74 30.15 182.44 37.87 187.25 33.61" fill="none" stroke="#001c33" stroke-linecap="round" stroke-linejoin="round" stroke-width="0.96"/>
    <polygon points="157.9 0.48 165.23 4.09 160.43 8.35 153.1 4.73 157.9 0.48" fill="none" stroke="#001c33" stroke-linecap="round" stroke-linejoin="round" stroke-width="0.96"/>
    <polygon points="167.94 11.81 165.23 4.09 160.43 8.35 163.13 16.07 167.94 11.81" fill="none" stroke="#001c33" stroke-linecap="round" stroke-linejoin="round" stroke-width="0.96"/>
    <path d="M160.37,18.24A9.49,9.49,0,0,0,169.1,29" fill="none" stroke="#fcaf2e" stroke-linecap="round" stroke-miterlimit="22.93" stroke-width="0.96"/>
    <path d="M156.93,17.77a13,13,0,0,0,11.92,14.68" fill="none" stroke="#fcaf2e" stroke-linecap="round" stroke-miterlimit="22.93" stroke-width="0.96"/>
    <path d="M153.49,17.3a16.44,16.44,0,0,0,15.12,18.62" fill="none" stroke="#fcaf2e" stroke-linecap="round" stroke-miterlimit="22.93" stroke-width="0.96"/>
    <path d="M171.34,18.14a2.1,2.1,0,1,0-.18,3,2.1,2.1,0,0,0,.18-3" fill="#fff" fill-rule="evenodd"/>
    <rect x="13.16" y="6.92" width="2.89" height="15.68" fill="#fcaf2e"/>
    <rect x="6.77" y="13.32" width="15.68" height="2.89" fill="#fcaf2e"/>
    <path d="M91,22A58.07,58.07,0,1,1,33,80,58.07,58.07,0,0,1,91,22ZM91,2.49A77.55,77.55,0,1,1,13.48,80,77.55,77.55,0,0,1,91,2.49Z" fill="none" stroke="#001c33" stroke-linecap="round" stroke-miterlimit="22.93" stroke-width="0.96"/>
    <path d="M35,64.87C40.6,61.7,47.74,57,48.72,55.58c1.12-1.64,8.81-8.5,10.48-6.8,2.27,2.33,16.27,14.41,18.65,13C82.9,58.93,84.41,54,91.35,51c5.4-2.33,4.6,2.68,13.06,6.48,12.56,5.65,4.91-4.1,13.52,3.5,1.94,1.72,20.5,8.58,16.62,11.13-6.54,4.29-5.59,3.61-10.21,7.71H90.62l-1.79-4.32H76.45l-.73,4.32H33A58.06,58.06,0,0,1,35,64.87Z" fill="#1989d0" fill-rule="evenodd"/>
    <path d="M35,64.87C40.6,61.7,47.74,57,48.72,55.58c1.12-1.64,8.81-8.5,10.48-6.8,2.27,2.33,16.27,14.41,18.65,13C82.9,58.93,84.41,54,91.35,51c5.4-2.33,4.6,2.68,13.06,6.48,12.56,5.65,4.91-4.1,13.52,3.5,1.94,1.72,20.5,8.58,16.62,11.13-6.54,4.29-5.59,3.61-10.21,7.71H90.62l-1.79-4.32H76.45l-.73,4.32H33A58.06,58.06,0,0,1,35,64.87Z" fill="none" stroke="#001c33" stroke-miterlimit="22.93" stroke-width="0.96"/>
    <path d="M144.42,57.16c-1.93.15-22,4.33-22.51,6.62-1.12,5.34-14.58-1.55-15-.58-5.38,12.33-37.41,6.52-37.25,10.63.12,3-27.55-7.37-27.82-7.75s-3.56-.91-6.88-1.16a58.17,58.17,0,0,0-2,14.91H75.72l.73-4.32H88.83l1.79,4.32H149.1A58,58,0,0,0,144.42,57.16Z" fill="#133e73" fill-rule="evenodd"/>
    <path d="M144.42,57.16c-1.93.15-22,4.33-22.51,6.62-1.12,5.34-14.58-1.55-15-.58-5.38,12.33-37.41,6.52-37.25,10.63.12,3-27.55-7.37-27.82-7.75s-3.56-.91-6.88-1.16a58.17,58.17,0,0,0-2,14.91H75.72l.73-4.32H88.83l1.79,4.32H149.1A58,58,0,0,0,144.42,57.16Z" fill="none" stroke="#001c33" stroke-miterlimit="22.93" stroke-width="0.96"/>
    <path d="M138.51,106.86a54.53,54.53,0,1,1-20.66-74.3" fill="none" stroke="#fcaf2e" stroke-linecap="round" stroke-miterlimit="22.93" stroke-width="2.4"/>
    <path d="M79.17,91.61H99.31a4.79,4.79,0,0,1,4.47,3.09H107V80.25h3.46l4.47,20.91H107V97.38h-3a4.79,4.79,0,0,1-4.67,3.78H79.17a4.79,4.79,0,0,1-4.78-4.77h0A4.79,4.79,0,0,1,79.17,91.61Z" fill="#001c33" fill-rule="evenodd"/>
    <path d="M79.17,91.61H99.31a4.79,4.79,0,0,1,4.47,3.09H107V80.25h3.46l4.47,20.91H107V97.38h-3a4.79,4.79,0,0,1-4.67,3.78H79.17a4.79,4.79,0,0,1-4.78-4.77h0A4.79,4.79,0,0,1,79.17,91.61Z" fill="none" stroke="#001c33" stroke-miterlimit="22.93" stroke-width="0.96"/>
    <path d="M104.28,92.33a6.41,6.41,0,0,0-5-2.36H93.87v-2.3l-1.32-3.19h8.34v-3.4h-.79V78.4h3.18v2.68h-.8v3.4h3.19v7.85Z" fill="#fcaf2e" fill-rule="evenodd"/>
    <path d="M104.28,92.33a6.41,6.41,0,0,0-5-2.36H93.87v-2.3l-1.32-3.19h8.34v-3.4h-.79V78.4h3.18v2.68h-.8v3.4h3.19v7.85Z" fill="none" stroke="#001c33" stroke-miterlimit="22.93" stroke-width="0.96"/>
    <path d="M82.11,77.15H77.84L76,87.8V89a8.1,8.1,0,0,1,3.13-.63h2.94ZM92.23,88.33V88l-4.5-10.84H83.12V88.33ZM93.87,90v-2.3l-5-12.16H76.45l-2,12.16V92.1A6.4,6.4,0,0,1,79.17,90Z" fill="#fcaf2e" fill-rule="evenodd"/>
    <path d="M82.11,77.15H77.84L76,87.8V89a8.1,8.1,0,0,1,3.13-.63h2.94ZM92.23,88.33V88l-4.5-10.84H83.12V88.33ZM93.87,90v-2.3l-5-12.16H76.45l-2,12.16V92.1A6.4,6.4,0,0,1,79.17,90Z" fill="none" stroke="#001c33" stroke-miterlimit="22.93" stroke-width="0.96"/>
    <path d="M79.18,92.65a3.74,3.74,0,1,1-3.73,3.74A3.74,3.74,0,0,1,79.18,92.65Z" fill="#2071b3" fill-rule="evenodd"/>
    <path d="M79.18,92.65a3.74,3.74,0,1,1-3.73,3.74A3.74,3.74,0,0,1,79.18,92.65Z" fill="none" stroke="#001c33" stroke-miterlimit="22.93" stroke-width="0.96"/>
    <path d="M98.9,92.65a3.74,3.74,0,1,1-3.74,3.74A3.73,3.73,0,0,1,98.9,92.65Z" fill="#2071b3" fill-rule="evenodd"/>
    <path d="M98.9,92.65a3.74,3.74,0,1,1-3.74,3.74A3.73,3.73,0,0,1,98.9,92.65Z" fill="none" stroke="#001c33" stroke-miterlimit="22.93" stroke-width="0.96"/>
    <polyline points="2.11 46.71 102.15 75 145.83 34.42" fill="none" stroke="#fff" stroke-miterlimit="22.93" stroke-width="0.96"/>
    <path d="M102.15,72.89a2.11,2.11,0,1,1-2.1,2.11,2.11,2.11,0,0,1,2.1-2.11" fill="#fff" fill-rule="evenodd"/>
    <path d="M2.11,44.6A2.11,2.11,0,1,1,0,46.71,2.1,2.1,0,0,1,2.11,44.6" fill="#fff" fill-rule="evenodd"/>
    <path d="M143.78,33a3.36,3.36,0,1,1-3.36,3.36A3.35,3.35,0,0,1,143.78,33" fill="#fff" fill-rule="evenodd"/>
  </g>
</svg>
