<svg xmlns="http://www.w3.org/2000/svg" viewBox="0 0 157.95 156.06">
  <g id="Слой_2" data-name="Слой 2">
    <g id="Слой_1-2" data-name="Слой 1">
      <g>
        <rect x="151.46" y="127.71" width="1.98" height="10.73" fill="#fcaf2e"/>
        <rect x="147.08" y="132.08" width="10.73" height="1.98" fill="#fcaf2e"/>
        <path d="M78.44,20A58.07,58.07,0,1,1,20.37,78,58.07,58.07,0,0,1,78.44,20m0-19.48A77.55,77.55,0,1,1,.89,78,77.55,77.55,0,0,1,78.44.48Z" fill="#2071b3" fill-rule="evenodd" opacity="0.5"/>
        <path d="M78.44,20A58.07,58.07,0,1,1,20.37,78,58.07,58.07,0,0,1,78.44,20Zm0-19.48A77.55,77.55,0,1,1,.89,78,77.55,77.55,0,0,1,78.44.48Z" fill="none" stroke="#001c33" stroke-linecap="round" stroke-miterlimit="22.93" stroke-width="0.96"/>
        <path d="M3.1,96.52,107,68.36l47.83,20.76M3.18,30.18,107,46.63V68.36m0-21.73,38.32-7.84" fill="none" stroke="#001c33" stroke-miterlimit="22.93" stroke-width="0.96"/>
        <polygon points="55.58 46.92 100.57 52.38 100.57 79.5 55.58 94.69 55.58 46.92" fill="#2071b3" fill-rule="evenodd" opacity="0.5"/>
        <polygon points="55.58 46.92 100.57 52.38 100.57 79.5 55.58 94.69 55.58 46.92" fill="none" stroke="#fcaf2e" stroke-miterlimit="22.93" stroke-width="0.96"/>
        <path d="M21.9,109.47a64.73,64.73,0,0,1,52.84-96.1V29.66a48.47,48.47,0,0,0-39.08,71.08Z" fill="#133e73" fill-rule="evenodd"/>
        <path d="M131,115.71a64.73,64.73,0,0,1-105.15,0L39.62,107a48.46,48.46,0,0,0,77.63,0Z" fill="#fcaf2e" fill-rule="evenodd"/>
        <path d="M82.13,13.37A64.73,64.73,0,0,1,135,109.47l-13.76-8.73A48.46,48.46,0,0,0,82.13,29.66Z" fill="#1989d0" fill-rule="evenodd"/>
        <polyline points="100.57 79.5 106.94 83.67 71.65 108.09 55.58 94.69" fill="none" stroke="#fcaf2e" stroke-miterlimit="22.93" stroke-width="0.96"/>
        <path d="M3.18,27.08a3.11,3.11,0,1,1-3.1,3.1,3.1,3.1,0,0,1,3.1-3.1" fill="#fff" fill-rule="evenodd"/>
        <path d="M145.34,35.69a3.11,3.11,0,1,1-3.1,3.1,3.1,3.1,0,0,1,3.1-3.1" fill="#fff" fill-rule="evenodd"/>
        <path d="M154.85,86a3.11,3.11,0,1,1-3.11,3.1,3.1,3.1,0,0,1,3.11-3.1" fill="#001c33" fill-rule="evenodd"/>
        <path d="M3.1,93.42A3.1,3.1,0,1,1,0,96.52a3.1,3.1,0,0,1,3.1-3.1" fill="#001c33" fill-rule="evenodd"/>
      </g>
    </g>
  </g>
</svg>
