<svg xmlns="http://www.w3.org/2000/svg" viewBox="0 0 202.12 156.06">
  <g id="Слой_2" data-name="Слой 2">
    <g id="Слой_1-2" data-name="Слой 1">
      <g>
        <path d="M105.81,20A58.07,58.07,0,1,1,47.75,78,58.07,58.07,0,0,1,105.81,20m0-19.48A77.55,77.55,0,1,1,28.26,78,77.55,77.55,0,0,1,105.81.48Z" fill="#2071b3" fill-rule="evenodd" opacity="0.5"/>
        <path d="M105.81,20A58.07,58.07,0,1,1,47.75,78,58.07,58.07,0,0,1,105.81,20Zm0-19.48A77.55,77.55,0,1,1,28.26,78,77.55,77.55,0,0,1,105.81.48Z" fill="none" stroke="#001c33" stroke-linecap="round" stroke-miterlimit="22.93" stroke-width="0.96"/>
        <line x1="105.81" y1="6.84" x2="105.81" y2="13.06" fill="none" stroke="#001c33" stroke-miterlimit="22.93" stroke-width="0.96"/>
        <line x1="105.81" y1="142.99" x2="105.81" y2="149.22" fill="none" stroke="#001c33" stroke-miterlimit="22.93" stroke-width="0.96"/>
        <line x1="124.24" y1="9.27" x2="122.63" y2="15.28" fill="none" stroke="#001c33" stroke-miterlimit="22.93" stroke-width="0.96"/>
        <line x1="89" y1="140.78" x2="87.39" y2="146.79" fill="none" stroke="#001c33" stroke-miterlimit="22.93" stroke-width="0.96"/>
        <line x1="141.41" y1="16.38" x2="138.3" y2="21.77" fill="none" stroke="#001c33" stroke-miterlimit="22.93" stroke-width="0.96"/>
        <line x1="73.33" y1="134.29" x2="70.22" y2="139.68" fill="none" stroke="#001c33" stroke-miterlimit="22.93" stroke-width="0.96"/>
        <line x1="156.15" y1="27.69" x2="151.75" y2="32.09" fill="none" stroke="#001c33" stroke-miterlimit="22.93" stroke-width="0.96"/>
        <line x1="59.88" y1="123.97" x2="55.48" y2="128.37" fill="none" stroke="#001c33" stroke-miterlimit="22.93" stroke-width="0.96"/>
        <line x1="167.46" y1="42.43" x2="162.08" y2="45.55" fill="none" stroke="#001c33" stroke-miterlimit="22.93" stroke-width="0.96"/>
        <line x1="49.55" y1="110.51" x2="44.16" y2="113.62" fill="none" stroke="#001c33" stroke-miterlimit="22.93" stroke-width="0.96"/>
        <line x1="174.58" y1="59.6" x2="168.57" y2="61.21" fill="none" stroke="#001c33" stroke-miterlimit="22.93" stroke-width="0.96"/>
        <line x1="43.06" y1="94.84" x2="37.05" y2="96.45" fill="none" stroke="#001c33" stroke-miterlimit="22.93" stroke-width="0.96"/>
        <line x1="177" y1="78.03" x2="170.78" y2="78.03" fill="none" stroke="#001c33" stroke-miterlimit="22.93" stroke-width="0.96"/>
        <line x1="40.85" y1="78.03" x2="34.63" y2="78.03" fill="none" stroke="#001c33" stroke-miterlimit="22.93" stroke-width="0.96"/>
        <line x1="174.58" y1="96.45" x2="168.57" y2="94.84" fill="none" stroke="#001c33" stroke-miterlimit="22.93" stroke-width="0.96"/>
        <line x1="43.06" y1="61.21" x2="37.05" y2="59.6" fill="none" stroke="#001c33" stroke-miterlimit="22.93" stroke-width="0.96"/>
        <line x1="167.46" y1="113.62" x2="162.08" y2="110.51" fill="none" stroke="#001c33" stroke-miterlimit="22.93" stroke-width="0.96"/>
        <line x1="49.55" y1="45.55" x2="44.16" y2="42.43" fill="none" stroke="#001c33" stroke-miterlimit="22.93" stroke-width="0.96"/>
        <line x1="156.15" y1="128.37" x2="151.75" y2="123.97" fill="none" stroke="#001c33" stroke-miterlimit="22.93" stroke-width="0.96"/>
        <line x1="59.88" y1="32.09" x2="55.48" y2="27.69" fill="none" stroke="#001c33" stroke-miterlimit="22.93" stroke-width="0.96"/>
        <line x1="141.41" y1="139.68" x2="138.3" y2="134.29" fill="none" stroke="#001c33" stroke-miterlimit="22.93" stroke-width="0.96"/>
        <line x1="73.33" y1="21.77" x2="70.22" y2="16.38" fill="none" stroke="#001c33" stroke-miterlimit="22.93" stroke-width="0.96"/>
        <line x1="124.24" y1="146.79" x2="122.63" y2="140.78" fill="none" stroke="#001c33" stroke-miterlimit="22.93" stroke-width="0.96"/>
        <line x1="89" y1="15.28" x2="87.39" y2="9.27" fill="none" stroke="#001c33" stroke-miterlimit="22.93" stroke-width="0.96"/>
        <line x1="47.75" y1="78.03" x2="163.86" y2="78.03" fill="none" stroke="#001c33" stroke-miterlimit="22.93" stroke-width="0.96"/>
        <line x1="48.77" y1="96.47" x2="162.86" y2="59.59" fill="none" stroke="#fcaf2e" stroke-linecap="round" stroke-miterlimit="22.93" stroke-width="0.96"/>
        <path d="M86.1,54.38,105,48.22l8,22.51L94.07,76.88Zm21.84-6,3.33,9.41,2.4-.78-.42-1.19-1,.34-2.6-7.35,1-.34-.31-.87ZM87.16,65.64l-3.33-9.41-2.4.78.31.88,1-.34,2.6,7.34-1,.34.42,1.2Zm-4.26-12L107,45.74l.73,2,3-1,.52,1.45.54-.18,2.6,7.35-.54.18.62,1.76-3,1,4.07,11.5,1.58-.51L116,66.27l8.26-2.69,1.08,3,10.48-3.42,5.4,15.24L76.52,99.57,71.13,84.34l10.48-3.43-1.08-3,8.25-2.7,1.08,3.06,1.58-.51-4.07-11.5-3,1-.62-1.76-.55.18-2.6-7.35.55-.18-.52-1.44,3-1Z" fill="#fcaf2e" fill-rule="evenodd"/>
        <polygon points="167.18 58.3 169.48 55.76 171.79 53.21 172.84 56.48 173.9 59.75 170.54 59.02 167.18 58.3" fill="#fcaf2e" fill-rule="evenodd"/>
        <polygon points="44.45 97.76 41.09 97.03 37.73 96.31 38.78 99.58 39.84 102.85 42.14 100.3 44.45 97.76" fill="#fcaf2e" fill-rule="evenodd"/>
        <path d="M132.44,125.61a54.53,54.53,0,1,1,21-74.21" fill="none" stroke="#fcaf2e" stroke-linecap="round" stroke-miterlimit="22.93" stroke-width="2.4"/>
        <polygon points="111.7 98.54 117.28 103.93 122.86 109.31 115.41 111.45 107.95 113.59 109.83 106.07 111.7 98.54" fill="#fff" fill-rule="evenodd"/>
        <polyline points="136.84 55.27 180.79 23.03 202.12 23.03" fill="none" stroke="#fff" stroke-miterlimit="22.93" stroke-width="0.57"/>
        <rect x="181.31" y="19.79" width="12.23" height="1.67" fill="#fcaf2e"/>
        <rect x="181.31" y="17.6" width="6.11" height="1.67" fill="#fff"/>
        <rect x="181.31" y="15.4" width="19.94" height="1.67" fill="#fff"/>
        <rect x="7.75" y="9.34" width="3.5" height="19" fill="#fcaf2e"/>
        <rect y="17.09" width="19" height="3.5" fill="#fcaf2e"/>
        <rect x="194.63" y="125.75" width="2.07" height="11.25" fill="#fcaf2e"/>
        <rect x="190.04" y="130.34" width="11.25" height="2.07" fill="#fcaf2e"/>
      </g>
    </g>
  </g>
</svg>
