<?xml version="1.0" encoding="utf-8"?>
<!-- Generator: Adobe Illustrator 23.0.3, SVG Export Plug-In . SVG Version: 6.00 Build 0)  -->
<svg version="1.1" id="Слой_1" xmlns="http://www.w3.org/2000/svg" xmlns:xlink="http://www.w3.org/1999/xlink" x="0px" y="0px"
	 viewBox="0 0 154.7 192.7" style="enable-background:new 0 0 154.7 192.7;" xml:space="preserve">
<style type="text/css">
	.st0{opacity:0.5;fill-rule:evenodd;clip-rule:evenodd;fill:#2071B3;}
	.st1{fill:none;stroke:#003A69;stroke-width:0.9598;stroke-linecap:round;stroke-miterlimit:22.9256;}
	.st2{fill:none;stroke:#003A69;stroke-width:0.9598;stroke-miterlimit:22.9256;}
	.st3{fill:none;stroke:#1989D0;stroke-width:0.9598;stroke-miterlimit:22.9256;}
	.st4{fill-rule:evenodd;clip-rule:evenodd;fill:#003A69;}
	.st5{fill-rule:evenodd;clip-rule:evenodd;fill:#1989D0;}
	.st6{fill:none;stroke:#1989D0;stroke-width:2.4009;stroke-linecap:round;stroke-miterlimit:22.9256;}
	.st7{fill-rule:evenodd;clip-rule:evenodd;fill:#FCAF2E;}
	.st8{fill-rule:evenodd;clip-rule:evenodd;fill:#FFFFFF;}
	.st9{fill:none;stroke:#FCAF2E;stroke-width:2.4001;stroke-linecap:round;stroke-miterlimit:22.9256;}
	.st10{fill:none;stroke:#001C33;stroke-width:0.9598;stroke-miterlimit:22.9256;}
	.st11{fill:#FCAF2E;}
	.st12{fill:#FFFFFF;}
	.st13{fill:none;stroke:#FEFEFE;stroke-width:0.9598;stroke-miterlimit:22.9256;}
	.st14{fill-rule:evenodd;clip-rule:evenodd;fill:#FEFEFE;}
	.st15{fill:#FEFEFE;}
</style>
<g>
	<rect x="121.5" y="89.3" class="st7" width="12.2" height="1.7"/>
	<rect x="121.5" y="87.2" class="st8" width="6.1" height="1.7"/>
	<rect x="121.5" y="85" class="st8" width="19.9" height="1.7"/>
	<polyline class="st9" points="49.5,86.4 49.5,71 62.9,63.3 76.2,55.6 89.5,63.3 102.9,71 102.9,86.4 102.9,101.9 	"/>
	<polyline class="st9" points="139.5,134.5 139.5,149.9 139.5,165.3 126.2,173 112.8,180.7 99.5,173 86.1,165.3 	"/>
	<path class="st0" d="M39.6,115.2l15,8.7l15,8.7v17.3v17.3l-15,8.7l-15,8.7l-15-8.7l-15-8.7v-17.3v-17.3l15-8.7L39.6,115.2z
		 M39.6,107.6l18.3,10.6l18.3,10.6v21.1V171l-18.3,10.6l-18.3,10.6l-18.3-10.6L2.9,171v-21.1v-21.1l18.3-10.6L39.6,107.6z"/>
	<path class="st10" d="M39.6,115.2l15,8.7l15,8.7v17.3v17.3l-15,8.7l-15,8.7l-15-8.7l-15-8.7v-17.3v-17.3l15-8.7L39.6,115.2z
		 M39.6,107.6l18.3,10.6l18.3,10.6v21.1V171l-18.3,10.6l-18.3,10.6l-18.3-10.6L2.9,171v-21.1v-21.1l18.3-10.6L39.6,107.6z"/>
	<polyline class="st9" points="66.3,134.5 66.3,149.9 66.3,165.3 52.9,173 39.6,180.7 26.2,173 12.9,165.3 12.9,149.9 12.9,134.5 
		26.2,126.8 	"/>
	<path class="st0" d="M76.2,51.8l15,8.7l15,8.7v17.3v17.3l-15,8.7l-15,8.7l-15-8.7l-15-8.7V86.4V69.1l15-8.7L76.2,51.8z M76.2,44.2
		l18.3,10.6l18.3,10.6v21.1v21.1l-18.3,10.6l-18.3,10.6l-18.3-10.6l-18.3-10.6V86.4V65.3l18.3-10.6L76.2,44.2z"/>
	<path class="st10" d="M76.2,51.8l15,8.7l15,8.7v17.3v17.3l-15,8.7l-15,8.7l-15-8.7l-15-8.7V86.4V69.1l15-8.7L76.2,51.8z M76.2,44.2
		l18.3,10.6l18.3,10.6v21.1v21.1l-18.3,10.6l-18.3,10.6l-18.3-10.6l-18.3-10.6V86.4V65.3l18.3-10.6L76.2,44.2z"/>
	<path class="st0" d="M112.8,115.2l15,8.7l15,8.7v17.3v17.3l-15,8.7l-15,8.7l-15-8.7l-15-8.7v-17.3v-17.3l15-8.7L112.8,115.2z
		 M112.8,107.6l18.3,10.6l18.3,10.6v21.1V171l-18.3,10.6l-18.3,10.6l-18.3-10.6L76.2,171v-21.1v-21.1l18.3-10.6L112.8,107.6z"/>
	<path class="st10" d="M112.8,115.2l15,8.7l15,8.7v17.3v17.3l-15,8.7l-15,8.7l-15-8.7l-15-8.7v-17.3v-17.3l15-8.7L112.8,115.2z
		 M112.8,107.6l18.3,10.6l18.3,10.6v21.1V171l-18.3,10.6l-18.3,10.6l-18.3-10.6L76.2,171v-21.1v-21.1l18.3-10.6L112.8,107.6z"/>
	<path class="st11" d="M121.6,134c0-0.5-0.2-0.9-0.5-1.1c-0.3-0.3-0.7-0.4-1.1-0.4c-0.5,0-0.9,0.1-1.2,0.4c-0.3,0.3-0.5,0.7-0.5,1.1
		v15.3c0,0.5,0.2,0.9,0.5,1.1c0.3,0.3,0.7,0.4,1.2,0.4c0.5,0,0.8-0.1,1.1-0.4c0.3-0.3,0.5-0.7,0.5-1.1V134z M125.5,149.2
		c0,0.8-0.1,1.6-0.4,2.3c-0.3,0.7-0.7,1.2-1.2,1.7c-0.5,0.5-1.1,0.8-1.8,1c-0.7,0.2-1.4,0.3-2.1,0.3c-0.8,0-1.5-0.1-2.2-0.3
		c-0.7-0.2-1.3-0.6-1.8-1c-0.5-0.5-0.9-1-1.2-1.7c-0.3-0.7-0.4-1.4-0.4-2.3v-15c0-0.8,0.1-1.6,0.4-2.3c0.3-0.7,0.7-1.2,1.2-1.7
		c0.5-0.5,1.1-0.8,1.8-1.1c0.7-0.2,1.4-0.4,2.2-0.4c1.6,0,3,0.5,4,1.4c1,0.9,1.5,2.3,1.5,4V149.2z M109.9,150.6v3.8h-3.8v-3.8h-7.4
		v-3.3L104,129h3.8l-5.2,17.9h3.5v-5.8h3.8v5.8h1.6v3.7H109.9z"/>
	<path class="st12" d="M110.4,169.2h-0.9l4.2-9.8h0.9L110.4,169.2z M111,164c0,0.4-0.1,0.7-0.4,0.9c-0.3,0.2-0.6,0.3-1,0.3
		c-0.4,0-0.7-0.1-1-0.3c-0.3-0.2-0.4-0.5-0.4-0.9v-3.2c0-0.4,0.1-0.7,0.4-0.9c0.3-0.2,0.6-0.3,1-0.3c0.4,0,0.7,0.1,1,0.3
		c0.3,0.2,0.4,0.5,0.4,0.9V164z M110,160.9c0-0.1,0-0.2-0.1-0.2c-0.1-0.1-0.1-0.1-0.2-0.1c-0.1,0-0.2,0-0.2,0.1
		c-0.1,0.1-0.1,0.1-0.1,0.2v3.1c0,0.1,0,0.2,0.1,0.2c0.1,0.1,0.1,0.1,0.3,0.1c0.1,0,0.2,0,0.2-0.1c0.1-0.1,0.1-0.1,0.1-0.2V160.9z
		 M115.9,167.8c0,0.4-0.1,0.7-0.4,0.9c-0.3,0.2-0.6,0.3-1,0.3c-0.4,0-0.7-0.1-1-0.3c-0.3-0.2-0.4-0.5-0.4-0.9v-3.2
		c0-0.4,0.1-0.7,0.4-0.9c0.3-0.2,0.6-0.3,1-0.3c0.4,0,0.7,0.1,1,0.3c0.3,0.2,0.4,0.5,0.4,0.9V167.8z M114.9,164.6
		c0-0.1,0-0.2-0.1-0.2c-0.1-0.1-0.1-0.1-0.2-0.1c-0.1,0-0.2,0-0.2,0.1c-0.1,0.1-0.1,0.1-0.1,0.2v3.1c0,0.1,0,0.2,0.1,0.2
		s0.1,0.1,0.3,0.1c0.1,0,0.2,0,0.2-0.1c0.1-0.1,0.1-0.1,0.1-0.2V164.6z"/>
	<rect x="7.4" y="77.4" class="st7" width="3.3" height="18.1"/>
	<rect y="84.7" class="st7" width="18.1" height="3.3"/>
	<path class="st13" d="M39.6,142.3c4.1,0,7.4,3.3,7.5,7.3c0,0.1,0,0.1,0,0.2c0,4.2-3.4,7.5-7.5,7.5c-4.2,0-7.5-3.4-7.5-7.5l0-0.1
		C32.1,145.7,35.4,142.3,39.6,142.3z M32,149.9H20.1 M59,149.9H47.1 M39.6,130.4v38.9"/>
	<path class="st14" d="M66.3,92.4c1.7,0,3.1,1.4,3.1,3.1c0,1.7-1.4,3.1-3.1,3.1c-1.7,0-3.1-1.4-3.1-3.1
		C63.2,93.8,64.6,92.4,66.3,92.4 M85.5,92.4c1.7,0,3.1,1.4,3.1,3.1c0,1.7-1.4,3.1-3.1,3.1c-1.7,0-3.1-1.4-3.1-3.1
		C82.3,93.8,83.7,92.4,85.5,92.4z M85.5,89.8c3.2,0,5.8,2.6,5.8,5.7c0,3.2-2.6,5.8-5.8,5.8c-3.2,0-5.7-2.6-5.7-5.8
		C79.7,92.4,82.3,89.8,85.5,89.8z M58.3,79.2l9.5,0.1l6.1,10.2l20.7-2.9l0.2,0.6L89.9,88l-2,1.8c-0.8-0.3-1.6-0.5-2.5-0.5
		c-3.5,0-6.3,2.8-6.3,6.3c0,0.1,0,0.2,0,0.3l-0.1,0.6l-5.7,0l-1-2.4c-0.7-2.7-3.2-4.7-6.1-4.7c-3.4,0-6.1,2.7-6.3,6l-0.5,0l-2.1,0.5
		h-2.5l1.4-7.1h0.9l1.2-2.5h1.3l2.1-3.9h5l3.3,5.8h1l-4-6.9h-8.7V79.2z M61.8,82.8h4.7l1.3,3.1h-7.4L61.8,82.8z M66.3,89.8
		c3.2,0,5.7,2.6,5.7,5.7c0,3.2-2.6,5.8-5.7,5.8c-3.2,0-5.8-2.6-5.8-5.8C60.6,92.4,63.1,89.8,66.3,89.8z"/>
	<polygon class="st14" points="91.9,79.6 68.6,79.4 70.6,82.6 93,82.6 	"/>
	<polygon class="st7" points="74.1,88.7 94.3,85.8 93.3,83.3 70.9,83.3 	"/>
	<rect x="87.9" y="82.1" class="st15" width="8.6" height="0.6"/>
	<rect x="92.6" y="79.4" class="st15" width="2.8" height="0.6"/>
	<rect x="95.1" y="85.5" class="st15" width="2.8" height="0.6"/>
	<path class="st14" d="M123.1,13.2c1.7,0,3.1,1.4,3.1,3.1c0,1.7-1.4,3.1-3.1,3.1c-1.7,0-3.1-1.4-3.1-3.1
		C120,14.6,121.4,13.2,123.1,13.2 M142.3,13.2c1.7,0,3.1,1.4,3.1,3.1c0,1.7-1.4,3.1-3.1,3.1c-1.7,0-3.1-1.4-3.1-3.1
		C139.1,14.6,140.6,13.2,142.3,13.2z M142.3,10.6c3.2,0,5.8,2.6,5.8,5.7c0,3.2-2.6,5.8-5.8,5.8c-3.2,0-5.7-2.6-5.7-5.8
		C136.5,13.2,139.1,10.6,142.3,10.6z M115.1,0l9.5,0.1l6.1,10.2l20.7-2.9l0.2,0.6l-4.9,0.8l-2,1.8c-0.8-0.3-1.6-0.5-2.4-0.5
		c-3.5,0-6.3,2.8-6.3,6.3c0,0.1,0,0.2,0,0.3l-0.1,0.6l-5.7,0l-1-2.4c-0.7-2.7-3.2-4.7-6.1-4.7c-3.4,0-6.1,2.7-6.3,6l-0.5,0l-2.1,0.5
		h-2.5l1.4-7.1h0.9l1.2-2.5h1.3l2.1-3.9h5l3.3,5.8h1l-4-6.9h-8.7V0z M118.6,3.6h4.7l1.3,3.1h-7.4L118.6,3.6z M123.1,10.6
		c3.2,0,5.7,2.6,5.7,5.7c0,3.2-2.6,5.8-5.7,5.8c-3.2,0-5.8-2.6-5.8-5.8C117.4,13.2,120,10.6,123.1,10.6z"/>
	<polygon class="st14" points="148.7,0.4 125.5,0.2 127.4,3.4 149.9,3.4 	"/>
	<polygon class="st7" points="130.9,9.5 151.1,6.6 150.1,4.1 127.7,4.1 	"/>
	<rect x="144.7" y="2.9" class="st15" width="8.6" height="0.6"/>
	<rect x="149.5" y="0.2" class="st15" width="2.8" height="0.6"/>
	<rect x="151.9" y="6.3" class="st15" width="2.8" height="0.6"/>
	<path class="st14" d="M71.7,13.2c1.7,0,3.1,1.4,3.1,3.1c0,1.7-1.4,3.1-3.1,3.1c-1.7,0-3.1-1.4-3.1-3.1C68.6,14.6,70,13.2,71.7,13.2
		 M90.9,13.2c1.7,0,3.1,1.4,3.1,3.1c0,1.7-1.4,3.1-3.1,3.1c-1.7,0-3.1-1.4-3.1-3.1C87.7,14.6,89.1,13.2,90.9,13.2z M90.9,10.6
		c3.2,0,5.8,2.6,5.8,5.7c0,3.2-2.6,5.8-5.8,5.8c-3.2,0-5.7-2.6-5.7-5.8C85.1,13.2,87.7,10.6,90.9,10.6z M63.7,0l9.5,0.1l6.1,10.2
		L100,7.4l0.2,0.6l-4.9,0.8l-2,1.8c-0.8-0.3-1.6-0.5-2.4-0.5c-3.5,0-6.3,2.8-6.3,6.3c0,0.1,0,0.2,0,0.3l-0.1,0.6l-5.7,0l-1-2.4
		c-0.7-2.7-3.2-4.7-6.1-4.7c-3.4,0-6.1,2.7-6.3,6l-0.5,0l-2.1,0.5h-2.5l1.4-7.1h0.9L63.7,7H65l2.1-3.9h5l3.3,5.8h1l-4-6.9h-8.7V0z
		 M67.2,3.6h4.7l1.3,3.1h-7.4L67.2,3.6z M71.7,10.6c3.2,0,5.7,2.6,5.7,5.7c0,3.2-2.6,5.8-5.7,5.8c-3.2,0-5.8-2.6-5.8-5.8
		C66,13.2,68.5,10.6,71.7,10.6z"/>
	<path class="st14" d="M20.3,13.2c1.7,0,3.1,1.4,3.1,3.1c0,1.7-1.4,3.1-3.1,3.1c-1.7,0-3.1-1.4-3.1-3.1
		C17.1,14.6,18.5,13.2,20.3,13.2 M39.4,13.2c1.7,0,3.1,1.4,3.1,3.1c0,1.7-1.4,3.1-3.1,3.1c-1.7,0-3.1-1.4-3.1-3.1
		C36.3,14.6,37.7,13.2,39.4,13.2z M39.4,10.6c3.2,0,5.8,2.6,5.8,5.7c0,3.2-2.6,5.8-5.8,5.8c-3.2,0-5.7-2.6-5.7-5.8
		C33.7,13.2,36.2,10.6,39.4,10.6z M12.3,0l9.5,0.1l6.1,10.2l20.7-2.9L48.8,8l-4.9,0.8l-2,1.8c-0.8-0.3-1.6-0.5-2.5-0.5
		c-3.5,0-6.3,2.8-6.3,6.3c0,0.1,0,0.2,0,0.3L33,17.2l-5.7,0l-1-2.4c-0.7-2.7-3.2-4.7-6.1-4.7c-3.4,0-6.1,2.7-6.3,6l-0.5,0l-2.1,0.5
		H8.9l1.4-7.1h0.9L12.3,7h1.3l2.1-3.9h5L24,8.9h1L21,2h-8.7V0z M15.8,3.6h4.7l1.3,3.1h-7.4L15.8,3.6z M20.3,10.6
		c3.2,0,5.7,2.6,5.7,5.7c0,3.2-2.6,5.8-5.7,5.8c-3.2,0-5.8-2.6-5.8-5.8C14.5,13.2,17.1,10.6,20.3,10.6z"/>
	<polygon class="st14" points="97.2,0.4 74,0.2 77.4,5.8 99.4,6.1 	"/>
	<polygon class="st14" points="45.8,0.4 22.6,0.2 27.1,7.6 36.6,7.8 48.3,6.7 	"/>
	<polygon class="st7" points="79.5,9.5 99.7,6.6 99.6,6.5 77.7,6.5 	"/>
	<polygon class="st7" points="28,9.5 35.9,8.4 27.4,8.4 	"/>
	<rect x="93.3" y="2.9" class="st15" width="8.6" height="0.6"/>
	<rect x="41.8" y="2.9" class="st15" width="8.6" height="0.6"/>
	<rect x="98" y="0.2" class="st15" width="2.8" height="0.6"/>
	<rect x="46.6" y="0.2" class="st15" width="2.8" height="0.6"/>
	<rect x="100.5" y="6.3" class="st15" width="2.8" height="0.6"/>
	<rect x="49.1" y="6.3" class="st15" width="2.8" height="0.6"/>
</g>
</svg>
