<?xml version="1.0" encoding="utf-8"?>
<!-- Generator: Adobe Illustrator 23.0.3, SVG Export Plug-In . SVG Version: 6.00 Build 0)  -->
<svg version="1.1" id="Слой_1" xmlns="http://www.w3.org/2000/svg" xmlns:xlink="http://www.w3.org/1999/xlink" x="0px" y="0px"
	 viewBox="0 0 158 156.1" style="enable-background:new 0 0 158 156.1;" xml:space="preserve">
<style type="text/css">
	.st0{opacity:0.5;fill-rule:evenodd;clip-rule:evenodd;fill:#2071B3;}
	.st1{fill:none;stroke:#003A69;stroke-width:0.9598;stroke-linecap:round;stroke-miterlimit:22.9256;}
	.st2{fill:none;stroke:#003A69;stroke-width:0.9598;stroke-miterlimit:22.9256;}
	.st3{fill:none;stroke:#1989D0;stroke-width:0.9598;stroke-miterlimit:22.9256;}
	.st4{fill-rule:evenodd;clip-rule:evenodd;fill:#003A69;}
	.st5{fill-rule:evenodd;clip-rule:evenodd;fill:#1989D0;}
	.st6{fill:none;stroke:#1989D0;stroke-width:2.4009;stroke-linecap:round;stroke-miterlimit:22.9256;}
	.st7{fill-rule:evenodd;clip-rule:evenodd;fill:#FCAF2E;}
	.st8{fill-rule:evenodd;clip-rule:evenodd;fill:#FFFFFF;}
	.st9{fill:none;stroke:#FCAF2E;stroke-width:2.4001;stroke-linecap:round;stroke-miterlimit:22.9256;}
	.st10{fill:none;stroke:#001C33;stroke-width:0.9598;stroke-miterlimit:22.9256;}
	.st11{fill:#FCAF2E;}
	.st12{fill:#FFFFFF;}
	.st13{fill:none;stroke:#FEFEFE;stroke-width:0.9598;stroke-miterlimit:22.9256;}
	.st14{fill-rule:evenodd;clip-rule:evenodd;fill:#FEFEFE;}
	.st15{fill:#FEFEFE;}
</style>
<g>
	<path class="st0" d="M78.4,20c32.1,0,58.1,26,58.1,58.1c0,32.1-26,58.1-58.1,58.1c-32.1,0-58.1-26-58.1-58.1
		C20.4,46,46.4,20,78.4,20 M78.4,0.5C121.3,0.5,156,35.2,156,78s-34.7,77.5-77.5,77.5c-42.8,0-77.5-34.7-77.5-77.5
		S35.6,0.5,78.4,0.5z"/>
	<path class="st1" d="M78.4,20c32.1,0,58.1,26,58.1,58.1c0,32.1-26,58.1-58.1,58.1c-32.1,0-58.1-26-58.1-58.1
		C20.4,46,46.4,20,78.4,20z M78.4,0.5C121.3,0.5,156,35.2,156,78s-34.7,77.5-77.5,77.5c-42.8,0-77.5-34.7-77.5-77.5
		S35.6,0.5,78.4,0.5z"/>
	<path class="st2" d="M3.1,96.5L107,68.4l47.8,20.8 M3.2,30.2L107,46.6v21.7 M107,46.6l38.3-7.8"/>
	<polygon class="st0" points="55.6,46.9 100.6,52.4 100.6,79.5 55.6,94.7 	"/>
	<polygon class="st3" points="55.6,46.9 100.6,52.4 100.6,79.5 55.6,94.7 	"/>
	<polyline class="st3" points="100.6,79.5 106.9,83.7 71.6,108.1 55.6,94.7 	"/>
	<path class="st4" d="M3.2,27.1c1.7,0,3.1,1.4,3.1,3.1c0,1.7-1.4,3.1-3.1,3.1c-1.7,0-3.1-1.4-3.1-3.1C0.1,28.5,1.5,27.1,3.2,27.1"/>
	<path class="st4" d="M145.3,35.7c1.7,0,3.1,1.4,3.1,3.1c0,1.7-1.4,3.1-3.1,3.1c-1.7,0-3.1-1.4-3.1-3.1
		C142.2,37.1,143.6,35.7,145.3,35.7"/>
	<path class="st4" d="M154.8,86c1.7,0,3.1,1.4,3.1,3.1c0,1.7-1.4,3.1-3.1,3.1c-1.7,0-3.1-1.4-3.1-3.1C151.7,87.4,153.1,86,154.8,86"
		/>
	<path class="st4" d="M3.1,93.4c1.7,0,3.1,1.4,3.1,3.1c0,1.7-1.4,3.1-3.1,3.1S0,98.2,0,96.5C0,94.8,1.4,93.4,3.1,93.4"/>
	<path class="st5" d="M152.7,129.8c1.8,0,3.2,1.4,3.2,3.2c0,1.8-1.4,3.2-3.2,3.2c-1.8,0-3.2-1.4-3.2-3.2
		C149.5,131.3,150.9,129.8,152.7,129.8"/>
	<path class="st6" d="M122.9,109.9c-9.9,13.8-26.1,22.8-44.4,22.8c-18.3,0-34.5-9-44.4-22.8"/>
	<path class="st6" d="M81.6,23.4c28.7,1.6,51.6,25.4,51.6,54.6c0,9.7-2.5,18.7-6.9,26.6"/>
	<path class="st6" d="M30.7,104.6c-4.4-7.9-6.9-17-6.9-26.6c0-29.2,22.8-53,51.6-54.6"/>
</g>
</svg>
