<svg xmlns="http://www.w3.org/2000/svg" viewBox="0 0 197.8 156.06">
  <g id="Слой_2" data-name="Слой 2">
    <g id="Слой_1-2" data-name="Слой 1">
      <g>
        <rect x="175.43" y="8.22" width="3.34" height="18.13" fill="#fcaf2e"/>
        <rect x="168.04" y="15.61" width="18.13" height="3.34" fill="#fcaf2e"/>
        <path d="M99.55,45.69a10.77,10.77,0,0,1,9.28,16.22h0a8.28,8.28,0,0,1-.52.79L99.55,76.15,90.8,62.71a8.28,8.28,0,0,1-.52-.79h0a10.77,10.77,0,0,1,9.28-16.22m0,5.06a5.71,5.71,0,1,1-5.71,5.7A5.71,5.71,0,0,1,99.55,50.75Z" fill="#fcaf2e" fill-rule="evenodd"/>
        <path d="M94.48,105.74c-25.34,5.54-32.22,5.43-57.31,5.43-8.67,0-16.37.87-24,1.29v5.44c7.63-.42,15.33-1.28,24-1.28,25.09,0,32,.1,57.31-5.44,9.33-2,17.73-.83,29.44-3.68,9.2-2.24,23.2-3.1,32.61-1.2,8.58,1.74,12.73.65,16.9-1.37v-4.31l-.77-.78c-3.92,1.79-8.07,2.65-16.13,1-9.41-1.91-23.41-1-32.61,1.19-11.71,2.85-20.11,1.65-29.44,3.69" fill="#0d4d82" fill-rule="evenodd" opacity="0.5"/>
        <path d="M42.12,83.86,13.17,112.45h0c7.63-.42,15.33-1.29,24-1.29,25.09,0,32,.11,57.31-5.43,9.33-2,17.73-.84,29.44-3.69,9.2-2.24,23.2-3.1,32.61-1.19,8.06,1.63,12.21.77,16.13-1l-.53-.54L157,83.86Z" fill="#2071b3" fill-rule="evenodd" opacity="0.5"/>
        <polygon points="41.81 84.17 157.29 84.17 173.43 100.62 173.27 104.75 196.73 130.87 1.1 130.87 13.14 117.88 13.17 112.45 41.81 84.17" fill="none" stroke="#2b2a29" stroke-miterlimit="22.93" stroke-width="0.96"/>
        <path d="M99.55,20A58.07,58.07,0,1,1,41.48,78,58.06,58.06,0,0,1,99.55,20m0-19.48A77.55,77.55,0,1,1,22,78,77.55,77.55,0,0,1,99.55.48Z" fill="#2071b3" fill-rule="evenodd" opacity="0.5"/>
        <path d="M156.3,130.87a77.53,77.53,0,0,1-113.51,0H75.45a58.24,58.24,0,0,0,48.2,0ZM99.55.48a77.58,77.58,0,0,1,73.83,101.31l.05-1.17L157.29,84.17h0a59.39,59.39,0,0,0,.32-6.14A58.07,58.07,0,1,0,41.48,78a56.72,56.72,0,0,0,.33,6.14L25.3,100.47A77.6,77.6,0,0,1,99.55.48Z" fill="none" stroke="#001c33" stroke-linecap="round" stroke-miterlimit="22.93" stroke-width="0.96"/>
        <path d="M123.22,127.15a54.53,54.53,0,1,1,25.45-72.79" fill="none" stroke="#fcaf2e" stroke-linecap="round" stroke-miterlimit="22.93" stroke-width="2.4"/>
        <path d="M156.76,123.4c-.12,0-11.31-6.34-18.27-6.73-2.87-.16-5.36-1.63-11.23-1.52-3.85.07-24.33,1.16-26.31-1.5-.75-1-7.15-1.09-7.13-2.36" fill="none" stroke="#fff" stroke-miterlimit="22.93" stroke-width="0.96"/>
        <path d="M93.82,105.89c0-1.77-6.07-2.89-4.89-4.79.72-1.17,1.85-7.24,10.36-7.54" fill="none" stroke="#fff" stroke-miterlimit="22.93" stroke-width="0.96"/>
        <line x1="99.55" y1="78.03" x2="99.55" y2="90.24" fill="none" stroke="#fcaf2e" stroke-linecap="round" stroke-miterlimit="22.93" stroke-width="0.96"/>
        <path d="M156.76,122.18c-1.34,0-2.44.54-2.44,1.22s1.1,1.22,2.44,1.22,2.44-.54,2.44-1.22-1.09-1.22-2.44-1.22" fill="#fff" fill-rule="evenodd"/>
        <line x1="93.82" y1="105.89" x2="93.82" y2="111.29" fill="none" stroke="#b3b3b3" stroke-miterlimit="22.93" stroke-width="0.96"/>
      </g>
    </g>
  </g>
</svg>
