<svg xmlns="http://www.w3.org/2000/svg" viewBox="0 0 149.91 149.11">
  <g id="Слой_2" data-name="Слой 2">
    <g id="Слой_1-2" data-name="Слой 1">
      <g>
        <rect x="121.49" y="45.74" width="12.23" height="1.67" fill="#fcaf2e"/>
        <rect x="121.49" y="43.54" width="6.11" height="1.67" fill="#fff"/>
        <rect x="121.49" y="41.35" width="19.94" height="1.67" fill="#fff"/>
        <polyline points="49.51 42.84 49.51 27.44 62.85 19.73 76.19 12.03 89.53 19.73 102.87 27.44 102.87 42.84 102.87 58.24" fill="none" stroke="#fcaf2e" stroke-linecap="round" stroke-miterlimit="22.93" stroke-width="2.4"/>
        <polyline points="139.49 90.86 139.49 106.27 139.49 121.67 126.15 129.38 112.81 137.08 99.47 129.38 86.13 121.67" fill="none" stroke="#fcaf2e" stroke-linecap="round" stroke-miterlimit="22.93" stroke-width="2.4"/>
        <path d="M39.57,71.63l15,8.66,15,8.66v34.64l-15,8.66-15,8.66-15-8.66-15-8.66V89l15-8.66Zm0-7.65L57.88,74.55,76.19,85.13v42.28L57.88,138,39.57,148.56,21.26,138,3,127.41V85.13L21.26,74.55Z" fill="#2071b3" fill-rule="evenodd" opacity="0.5"/>
        <path d="M39.57,71.63l15,8.66,15,8.66v34.64l-15,8.66-15,8.66-15-8.66-15-8.66V89l15-8.66Zm0-7.65L57.88,74.55,76.19,85.13v42.28L57.88,138,39.57,148.56,21.26,138,3,127.41V85.13L21.26,74.55Z" fill="none" stroke="#001c33" stroke-miterlimit="22.93" stroke-width="0.96"/>
        <polyline points="66.25 90.86 66.25 106.27 66.25 121.67 52.91 129.38 39.57 137.08 26.23 129.38 12.89 121.67 12.89 106.27 12.89 90.86 26.23 83.16" fill="none" stroke="#fcaf2e" stroke-linecap="round" stroke-miterlimit="22.93" stroke-width="2.4"/>
        <path d="M76.19,8.2l15,8.66,15,8.66V60.16l-15,8.66-15,8.66-15-8.66-15-8.66V25.52l15-8.66Zm0-7.65L94.5,11.13,112.81,21.7V64L94.5,74.55,76.19,85.13,57.88,74.55,39.57,64V21.7L57.88,11.13Z" fill="#2071b3" fill-rule="evenodd" opacity="0.5"/>
        <path d="M76.19,8.2l15,8.66,15,8.66V60.16l-15,8.66-15,8.66-15-8.66-15-8.66V25.52l15-8.66Zm0-7.65L94.5,11.13,112.81,21.7V64L94.5,74.55,76.19,85.13,57.88,74.55,39.57,64V21.7L57.88,11.13Z" fill="none" stroke="#001c33" stroke-miterlimit="22.93" stroke-width="0.96"/>
        <path d="M112.81,71.63l15,8.66,15,8.66v34.64l-15,8.66-15,8.66-15-8.66-15-8.66V89l15-8.66Zm0-7.65,18.31,10.57,18.31,10.58v42.28L131.12,138l-18.31,10.58L94.5,138,76.19,127.41V85.13L94.5,74.55Z" fill="#2071b3" fill-rule="evenodd" opacity="0.5"/>
        <path d="M112.81,71.63l15,8.66,15,8.66v34.64l-15,8.66-15,8.66-15-8.66-15-8.66V89l15-8.66Zm0-7.65,18.31,10.57,18.31,10.58v42.28L131.12,138l-18.31,10.58L94.5,138,76.19,127.41V85.13L94.5,74.55Z" fill="none" stroke="#001c33" stroke-miterlimit="22.93" stroke-width="0.96"/>
        <path d="M121.62,90.43a1.5,1.5,0,0,0-.46-1.15,1.61,1.61,0,0,0-1.15-.42,1.76,1.76,0,0,0-1.2.42,1.47,1.47,0,0,0-.47,1.15v15.29a1.48,1.48,0,0,0,.47,1.15,1.8,1.8,0,0,0,1.2.41,1.65,1.65,0,0,0,1.15-.41,1.51,1.51,0,0,0,.46-1.15Zm3.93,15.18a5.6,5.6,0,0,1-.44,2.27,5,5,0,0,1-1.19,1.7,4.88,4.88,0,0,1-1.75,1A6.32,6.32,0,0,1,120,111a6.41,6.41,0,0,1-2.17-.35,4.8,4.8,0,0,1-1.75-1,5,5,0,0,1-1.19-1.7,5.6,5.6,0,0,1-.44-2.27v-15a5.77,5.77,0,0,1,.44-2.29,4.91,4.91,0,0,1,1.19-1.71,5,5,0,0,1,1.75-1.06,6.42,6.42,0,0,1,2.17-.36,5.61,5.61,0,0,1,4,1.42,5.15,5.15,0,0,1,1.54,4ZM109.89,107v3.78h-3.82V107H98.64v-3.32L104,85.41h3.83l-5.25,17.87h3.46V97.53h3.82v5.75h1.61V107Z" fill="#fcaf2e"/>
        <path d="M110.43,125.57h-.88l4.2-9.76h.88Zm.58-5.14a1.1,1.1,0,0,1-.4.9,1.55,1.55,0,0,1-1,.31,1.5,1.5,0,0,1-1-.31,1.07,1.07,0,0,1-.4-.9v-3.22a1.09,1.09,0,0,1,.4-.91,1.55,1.55,0,0,1,1-.32,1.52,1.52,0,0,1,1,.32,1.09,1.09,0,0,1,.4.91ZM110,117.26a.37.37,0,0,0-.08-.22.32.32,0,0,0-.25-.1.3.3,0,0,0-.25.1.33.33,0,0,0-.09.22v3.11a.31.31,0,0,0,.09.22.33.33,0,0,0,.26.1.3.3,0,0,0,.24-.1.35.35,0,0,0,.08-.22Zm6,6.91a1.1,1.1,0,0,1-.4.9,1.55,1.55,0,0,1-1,.31,1.5,1.5,0,0,1-1-.31,1.08,1.08,0,0,1-.41-.9V121a1.1,1.1,0,0,1,.41-.91,1.55,1.55,0,0,1,1-.32,1.52,1.52,0,0,1,1,.32,1.09,1.09,0,0,1,.4.91ZM114.88,121a.33.33,0,0,0-.09-.22.31.31,0,0,0-.24-.1.34.34,0,0,0-.25.1.33.33,0,0,0-.09.22v3.11a.35.35,0,0,0,.09.23.35.35,0,0,0,.26.1.29.29,0,0,0,.23-.1.35.35,0,0,0,.09-.23Z" fill="#fff"/>
        <rect x="7.39" y="33.74" width="3.34" height="18.13" fill="#fcaf2e"/>
        <rect y="41.14" width="18.13" height="3.34" fill="#fcaf2e"/>
        <path d="M69.35,51a2.64,2.64,0,0,0,.92-2.19v-3H66v4.14A1.07,1.07,0,0,1,65,51a1,1,0,0,1-1-1.08V38.17a1,1,0,0,1,1-1.07A1.07,1.07,0,0,1,66,38.17v4.17h4.24V38c0-2.39-1.55-4.36-5.35-4.37s-5.37,2-5.37,4.37V50.28a4.15,4.15,0,0,0,4.28,4.16h1.32Z" fill="#fefefe"/>
        <polygon points="86.11 51.5 86.11 38.03 83.18 38.03 83.18 34.06 93.8 34.06 93.8 38.03 90.85 38.03 90.85 54.42 89.59 54.42 86.11 51.5" fill="#fefefe"/>
        <polygon points="88.02 54.45 77.67 45.76 66.96 54.45 88.02 54.45" fill="#fbbc00"/>
        <path d="M76.53,43.41h0l1.15-5.87,1.14,5.87Zm4.1-9.33H74.7L71.25,49.61l6.43-5.2L84.38,50Z" fill="#fefefe"/>
        <path d="M95.88,35h0c.21,0,.26-.1.26-.21s0-.17-.23-.17h-.28V35Zm-.25.23h0v.65H95.4V34.38h.48c.27,0,.55.07.55.41a.34.34,0,0,1-.3.35h0c.2,0,.23.14.25.3a2.2,2.2,0,0,0,.09.43h-.3c0-.09,0-.18,0-.27s0-.24-.08-.31-.13-.06-.22-.07Zm1.31-.08h0a1,1,0,0,0-2.09,0,1,1,0,1,0,2.09,0Zm-2.31,0a1.27,1.27,0,1,1,1.27,1.27A1.27,1.27,0,0,1,94.63,35.14Z" fill="#fefefe"/>
        <path d="M39.57,98.73a7.54,7.54,0,0,1,7.54,7.34v.2a7.54,7.54,0,0,1-15.08,0v-.09A7.55,7.55,0,0,1,39.57,98.73ZM32,106.27H20.14m38.86,0H47.11M39.57,86.84V125.7" fill="none" stroke="#fefefe" stroke-miterlimit="22.93" stroke-width="0.96"/>
      </g>
    </g>
  </g>
</svg>
