<svg xmlns="http://www.w3.org/2000/svg" viewBox="0 0 157.95 156.06" id="icon-4">
    <defs>
        <style>
            #icon-4{background-color:#03579a}#icon-4 .all{backface-visibility:hidden;transition:all .6s}#icon-4 .fill{backface-visibility:hidden;transition:fill .6s}#icon-4 .stroke{backface-visibility:hidden;transition:stroke .6s}#icon-4 .a{fill:#2071b3;opacity:.5}#icon-4 .a,#icon-4 .e,#icon-4 .f{fill-rule:evenodd}#icon-4 .b,#icon-4 .c,#icon-4 .d,#icon-4 .g{fill:none;stroke-miterlimit:22.93}#icon-4 .b,#icon-4 .c{stroke:#003a69}#icon-4 .b,#icon-4 .g{stroke-linecap:round}#icon-4 .b,#icon-4 .c,#icon-4 .d{stroke-width:.96px}#icon-4 .d,#icon-4 .g{stroke:#1989d0}#icon-4 .e{fill:#003a69}#icon-4 .f{fill:#1989d0;transform-origin:96.6% 85.3%}#icon-4 .cross{fill:#1989d0;transform-origin:96.6% 85.3%;transform:scale(0.4)}#icon-4 .g{fill:none;stroke:#1989d0;stroke-width:2.4;stroke-linecap:round;stroke-miterlimit:22.9256;backface-visibility:hidden;transition:all .6s}#icon-4 .circle{transform-origin:49.8% 50%;animation:rotate 3s linear infinite forwards paused}#icon-4 .arcs{transform-origin:50% 50%;display:none}#icon-4 .comp .display{transition-duration:1.2s;stroke-dasharray:168px}#icon-4 .comp .display-1{stroke-dashoffset:-168px}#icon-4 .comp .display-2{stroke-dashoffset:168px}#icon-4 .comp .keyboard{transition-duration:.7s;stroke-dasharray:72px;transition-delay:0s}#icon-4 .comp .keyboard-1{stroke-dashoffset:72px}#icon-4 .comp .keyboard-2{stroke-dashoffset:-72px}#icon-4:hover .border .b,#icon-4:hover .border .c{stroke:#001c33}#icon-4:hover .f{fill:#fcaf2e;transform:scale(0.1)}#icon-4:hover .g{stroke-linecap:butt;stroke-width:16}#icon-4:hover .g-1{stroke:#133e73}#icon-4:hover .g-2{stroke:#fcaf2e}#icon-4:hover .cross{transform:scale(1);fill:#fcaf2e}#icon-4:hover .dots .white{fill:#fff}#icon-4:hover .dots .black{fill:#001c33}#icon-4:hover .circle{animation-play-state:running}#icon-4:hover .comp .display-1{stroke-dashoffset:-68px}#icon-4:hover .comp .display-2{stroke-dashoffset:100px}#icon-4:hover .comp .keyboard{transition-duration:1.1s;transition-delay:.2s}#icon-4:hover .comp .keyboard-1{stroke-dashoffset:46px}#icon-4:hover .comp .keyboard-2{stroke-dashoffset:-26px}@keyframes rotate{100%{transform:rotate(360deg)}}

        </style>
    </defs>
    <a href="https://sitech.kz/ru/catalog/trimble-site-vision-sistema-dopolnennoy-realnosti/">
    <g>

        <path class="a" d="M78.44,20A58.07,58.07,0,1,1,20.37,78,58.07,58.07,0,0,1,78.44,20m0-19.48A77.55,77.55,0,1,1,.89,78,77.55,77.55,0,0,1,78.44.48Z"/>
        <g class="border">
            <path class="b stroke" d="M78.44,20A58.07,58.07,0,1,1,20.37,78,58.07,58.07,0,0,1,78.44,20Zm0-19.48A77.55,77.55,0,1,1,.89,78,77.55,77.55,0,0,1,78.44.48Z"/>
            <path class="c stroke" d="M3.1,96.52,107,68.36l47.83,20.76M3.18,30.18,107,46.63V68.36m0-21.73,38.32-7.84"/>
        </g>
        <g class="comp">
            <polygon class="a" points="55.58 46.92 100.57 52.38 100.57 79.5 55.58 94.69 55.58 46.92"/>
            <polygon class="d" points="55.58 46.92 100.57 52.38 100.57 79.5 55.58 94.69 55.58 46.92"/>
            <polyline class="d" points="100.57 79.5 106.94 83.67 71.65 108.09 55.58 94.69"/>


            <polygon class="all display display-1" points="81,86.1 100.5,79.5 100.5,52.5 55.7,47 55.7,94.7" fill="none" stroke="#fcaf2e" stroke-miterlimit="22.93" stroke-width="0.96"/>
            <polygon class="all display display-2" points="81,86.1 100.5,79.5 100.5,52.5 55.7,47 55.7,94.7" fill="none" stroke="#fcaf2e" stroke-miterlimit="22.93" stroke-width="0.96"/>
            <polyline class="all keyboard keyboard-1" points="100.57 79.5 106.94 83.67 71.65 108.09 55.58 94.69" fill="none" stroke="#fcaf2e" stroke-miterlimit="22.93" stroke-width="0.96"/>
            <polyline class="all keyboard keyboard-2" points="100.57 79.5 106.94 83.67 71.65 108.09 55.58 94.69" fill="none" stroke="#fcaf2e" stroke-miterlimit="22.93" stroke-width="0.96"/>
        </g>

        <g class="dots">
            <path class="e fill white" d="M3.18,27.08a3.11,3.11,0,1,1-3.1,3.1,3.1,3.1,0,0,1,3.1-3.1"/>
            <path class="e fill white" d="M145.34,35.69a3.11,3.11,0,1,1-3.1,3.1,3.1,3.1,0,0,1,3.1-3.1"/>
            <path class="e fill black" d="M154.85,86a3.11,3.11,0,1,1-3.11,3.1,3.1,3.1,0,0,1,3.11-3.1"/>
            <path class="e fill black" d="M3.1,93.42A3.1,3.1,0,1,1,0,96.52a3.1,3.1,0,0,1,3.1-3.1"/>
        </g>

        <g class="cross all">
            <rect x="151.46" y="127.71" width="1.98" height="10.73" />
            <rect x="147.08" y="132.08" width="10.73" height="1.98" />
        </g>
        <path class="f all" d="M152.69,129.85a3.23,3.23,0,1,1-3.23,3.22,3.22,3.22,0,0,1,3.23-3.22"/>

        <g class="arcs all">
            <path class="dark all" d="M21.9,109.47a64.73,64.73,0,0,1,52.84-96.1V29.66a48.47,48.47,0,0,0-39.08,71.08Z" fill="#133e73" fill-rule="evenodd"/>
            <path class="yellow all" d="M131,115.71a64.73,64.73,0,0,1-105.15,0L39.62,107a48.46,48.46,0,0,0,77.63,0Z" fill="#fcaf2e" fill-rule="evenodd"/>
            <path class="blue all" d="M82.13,13.37A64.73,64.73,0,0,1,135,109.47l-13.76-8.73A48.46,48.46,0,0,0,82.13,29.66Z" fill="#1989d0" fill-rule="evenodd"/>
        </g>

        <g class="circle all">
            <path class="g g-1" d="M122.9,109.9c-9.9,13.8-26.1,22.8-44.4,22.8c-18.3,0-34.5-9-44.4-22.8"/>
            <path class="g g-2" d="M81.6,23.4c28.7,1.6,51.6,25.4,51.6,54.6c0,9.7-2.5,18.7-6.9,26.6"/>
            <path class="g g-3" d="M30.7,104.6c-4.4-7.9-6.9-17-6.9-26.6c0-29.2,22.8-53,51.6-54.6"/>
        </g>

    </g>
    </a>
</svg>
