<svg xmlns="http://www.w3.org/2000/svg" viewBox="0 0 149.91 149.11" id="icon-2">
    <defs>
        <style>
            #icon-2{background-color:#03579a}#icon-2 .all{backface-visibility:hidden;transition:all .6s}#icon-2 .fill{backface-visibility:hidden;transition:fill .6s}#icon-2 .stroke{backface-visibility:hidden;transition:stroke .6s}#icon-2 .a,#icon-2 .b,#icon-2 .e{fill:none;stroke-miterlimit:22.93}#icon-2 .a{stroke:#003a69;backface-visibility:hidden;transition:stroke .6s}#icon-2 .a,#icon-2 .e{stroke-width:.96px}#icon-2 .b,#icon-2 .e{stroke:#1989d0}#icon-2 .b{stroke-linecap:round;stroke-width:2.4px}#icon-2 .c,#icon-2 .d{fill:#1989d0}#icon-2 .d{fill-rule:evenodd}#icon-2 .borders-fill{transform:translateX(-1%);backface-visibility:hidden;transition:opacity .6s;opacity:0}#icon-2 .clip-number rect{x:90;y:112;backface-visibility:hidden;transition:all .6s ease}#icon-2 .percent-symbol{transform-origin:74% 66%;transition-delay:.6s}#icon-2 .percent-number{transform:translateX(-1%);clip-path:url(#number)}#icon-2 .lines .top-f{mask:url(#t-mask)}#icon-2 .lines .right-f{mask:url(#r-mask)}#icon-2 .lines .left-f{mask:url(#l-mask)}#icon-2 .lines .b-1{transform-origin:50% 28.5%;stroke-width:12px}#icon-2 .lines .b-2{transform-origin:74% 71%;stroke-width:12px}#icon-2 .lines .b-3{transform-origin:25.5% 71%;stroke-width:12px}#icon-2 .clip-cat rect{y:33;x:58}#icon-2 .st7{fill-rule:evenodd;clip-rule:evenodd;fill:#1989d0}#icon-2 .st14{fill-rule:evenodd;clip-rule:evenodd;fill:#1989d0;backface-visibility:hidden;transition:fill .6s}#icon-2 .car{transform:translate(45px, 34px)}#icon-2 .side{clip-path:url(#side)}#icon-2 .side .st7{transform:translateY(3.4px)}#icon-2 .triang{transition-delay:.6s;transform-origin:51% 30%}#icon-2 .cross{transform-origin:7% 29%;transform:translateX(3px) rotate(0deg)}#icon-2 .symbol .active{transform:translateX(-1%)}#icon-2 .symbol .circ{transform-origin:25.5% 71.5%}#icon-2 .symbol .line.hor-1{transform-origin:8.5% 0%;transform:translate3d(12.2%, 70.6%, 0) scale(0, 1);transition-delay:0s}#icon-2 .symbol .line.hor-2{transform-origin:0% 0%;transform:translate3d(30%, 70.6%, 0) scale(0, 1);transition-delay:0s}#icon-2 .symbol .vert{transform:translate3d(37px, 86px, 0) scale(1, 0);transform-origin:50% 13.5%;transition-delay:0s}#icon-2 .equalizer .bar{backface-visibility:hidden;transition:transform .6s;transform:scale(0, 1)}#icon-2 .equalizer .bar-1{transform-origin:81% 0}#icon-2 .equalizer .bar-2{transform-origin:81% 0}#icon-2 .equalizer .bar-3{transform-origin:81% 0}#icon-2 .circle{transform-origin:49.8% 50%;animation:rotate 3s linear infinite forwards paused}#icon-2:hover .borders-fill{opacity:1}#icon-2:hover .borders-stroke .a{stroke:#001c33}#icon-2:hover .clip-number rect{y:85;transition-delay:.6s}#icon-2:hover .st14{fill:#fefefe}#icon-2:hover .st7{fill:#fcaf2e;transform:translateY(0px)}#icon-2:hover .lines .b{stroke:#fcaf2e}#icon-2:hover .cross{transform:rotate(-45deg) translateX(3px)}#icon-2:hover .cross .fill{fill:#fcaf2e}#icon-2:hover .triang{transform:translateY(6px) scale(0.9);transition-delay:0s}#icon-2:hover .triang .all{fill:#fcaf2e}#icon-2:hover .cat-word{transition-delay:.6s;transform:translateY(0)}#icon-2:hover .percent-symbol{fill:#fff;transform:translateY(11%) scale(0.65);transition-delay:0s}#icon-2:hover .symbol .circ{transform:scale(1.2);stroke:#fefefe}#icon-2:hover .symbol .vert{transform:translate3d(37px, 86px, 0) scale(1, 1);transition-delay:.6s}#icon-2:hover .symbol .hor-1{transform:translate3d(12.2%, 70.6%, 0) scale(1, 1);transition-delay:.6s}#icon-2:hover .symbol .hor-2{transform:translate3d(29.9%, 70.6%, 0) scale(1, 1);transition-delay:.6s}#icon-2:hover .equalizer .bar-1{animation:equalizer 1.4s ease-in infinite forwards alternate}#icon-2:hover .equalizer .bar-2{animation:equalizer 1.2s ease-in infinite forwards alternate}#icon-2:hover .equalizer .bar-3{animation:equalizer 1.45s ease-in .5s infinite forwards alternate}#icon-2:hover .circle{animation-play-state:running}@keyframes equalizer{100%{transform:scale(1, 1)}}@keyframes rotate{100%{transform:rotate(360deg)}}

        </style>
        <clipPath id="number" class="clip-number">
            <rect width="40" height="26" />
        </clipPath>
        <clipPath id="cat" class="clip-cat">
            <rect width="39.5" height="22" />
        </clipPath>
        <clipPath id="side">
            <polygon points="73.1,43.9 93.3,41 92.3,38.3 69.9,38.3"/>
        </clipPath>
        <mask id="t-mask">
            <polyline class="inside" points="74.72,12.03 101.4,27.44 101.4,58.24 74.72,73.7 48.04,58.24 48.04,27.44 74.72,12.03" fill="none" stroke="white" stroke-width="2.4" stroke-linecap="round" />
        </mask>
        <mask id="r-mask">
            <polyline points="111.34,75.4 138.02,90.86 138.02,121.67 111.34,137.08 84.66,121.67 84.66,90.86 111.34,75.4" fill="none" stroke="white" stroke-width="2.4" stroke-linecap="round" />
        </mask>
        <mask id="l-mask">
            <polyline points="38.1,75.4 64.78,90.86 64.78,121.67 38.1,137.08 11.42,121.67 11.42,90.86 38.1,75.4" fill="none" stroke="white" stroke-width="2.4" stroke-linecap="round"/>
        </mask>
    </defs>
    <a href="https://sitech.kz/ru/catalog/cat-grade-controlaccugrade/">
    <g>

        <g class="borders">
            <g class="borders-fill">

                <path d="M39.57,71.63l15,8.66,15,8.66v34.64l-15,8.66-15,8.66-15-8.66-15-8.66V89l15-8.66Zm0-7.65L57.88,74.55,76.19,85.13v42.28L57.88,138,39.57,148.56,21.26,138,3,127.41V85.13L21.26,74.55Z" fill="#2071b3" fill-rule="evenodd" opacity="0.5"/>
                <path d="M76.19,8.2l15,8.66,15,8.66V60.16l-15,8.66-15,8.66-15-8.66-15-8.66V25.52l15-8.66Zm0-7.65L94.5,11.13,112.81,21.7V64L94.5,74.55,76.19,85.13,57.88,74.55,39.57,64V21.7L57.88,11.13Z" fill="#2071b3" fill-rule="evenodd" opacity="0.5"/>
                <path d="M112.81,71.63l15,8.66,15,8.66v34.64l-15,8.66-15,8.66-15-8.66-15-8.66V89l15-8.66Zm0-7.65,18.31,10.57,18.31,10.58v42.28L131.12,138l-18.31,10.58L94.5,138,76.19,127.41V85.13L94.5,74.55Z" fill="#2071b3" fill-rule="evenodd" opacity="0.5"/>
            </g>
            <g class="borders-stroke">
                <path class="a"
                      d="M74.72,8.2l15,8.66,15,8.66V60.16l-15,8.66-15,8.66-15-8.66-15-8.66V25.52l15-8.66Zm0-7.65L93,11.13,111.34,21.7V64L93,74.55,74.72,85.13,56.41,74.55,38.1,64V21.7L56.41,11.13Z"/>
                <path class="a"
                      d="M38.1,71.63l15,8.66,15,8.66v34.64l-15,8.66-15,8.66-15-8.66-15-8.66V88.95l15-8.66Zm0-7.65L56.41,74.55,74.72,85.13v42.29L56.41,138,38.1,148.56,19.79,138,1.48,127.41V85.13L19.79,74.55Z"/>
                <path class="a"
                      d="M111.34,71.63l15,8.66,15,8.66v34.64l-15,8.66-15,8.66-15-8.66-15-8.66V88.95l15-8.66Zm0-7.65,18.31,10.57L148,85.13v42.29L129.65,138l-18.31,10.57L93,138,74.72,127.41V85.13L93,74.55Z"/>
            </g>
        </g>

        <g class="lines">
            <g class="top-f">
                <polyline class="b stroke circle b-1" points="48.04,42.84 48.04,27.44 61.38,19.73 74.72,12.03  101.4,27.44 101.4,58.24"/>
            </g>

            <g class="right-f">
                <polyline class="b stroke circle b-2" points="138.02 90.86 138.02 106.27 138.02 121.67 124.68 129.38 111.34 137.08 98 129.38 84.66 121.67"/>
            </g>

            <g class="left-f">
                <polyline class="b stroke circle b-3" points="64.78 90.86 64.78 106.27 64.78 121.67 51.44 129.38 38.1 137.08 24.76 129.38 11.42 121.67 11.42 106.27 11.42 90.86 24.76 83.16"/>
            </g>
        </g>

        <g class="percent">
            <path class="c percent-symbol all" d="M108.79,113.73h-1.35l6.41-14.93h1.35Zm.88-7.86a1.65,1.65,0,0,1-.61,1.38,2.56,2.56,0,0,1-3,0,1.65,1.65,0,0,1-.61-1.38v-4.92a1.67,1.67,0,0,1,.62-1.39,2.51,2.51,0,0,1,3,0,1.69,1.69,0,0,1,.6,1.39ZM108.06,101a.5.5,0,0,0-.13-.34.54.54,0,0,0-.76,0,.5.5,0,0,0-.13.34v4.76a.49.49,0,0,0,.53.49.45.45,0,0,0,.36-.15.5.5,0,0,0,.13-.34Zm9.15,10.56a1.65,1.65,0,0,1-.61,1.38,2.56,2.56,0,0,1-3,0,1.65,1.65,0,0,1-.61-1.38v-4.92a1.67,1.67,0,0,1,.62-1.39,2.51,2.51,0,0,1,3,0,1.69,1.69,0,0,1,.6,1.39Zm-1.61-4.84a.5.5,0,0,0-.13-.34.54.54,0,0,0-.76,0,.5.5,0,0,0-.13.34v4.76a.49.49,0,0,0,.53.49.45.45,0,0,0,.36-.15.5.5,0,0,0,.13-.34Z"/>
            <g  class="percent-number">
                <path d="M121.62,90.43a1.5,1.5,0,0,0-.46-1.15,1.61,1.61,0,0,0-1.15-.42,1.76,1.76,0,0,0-1.2.42,1.47,1.47,0,0,0-.47,1.15v15.29a1.48,1.48,0,0,0,.47,1.15,1.8,1.8,0,0,0,1.2.41,1.65,1.65,0,0,0,1.15-.41,1.51,1.51,0,0,0,.46-1.15Zm3.93,15.18a5.6,5.6,0,0,1-.44,2.27,5,5,0,0,1-1.19,1.7,4.88,4.88,0,0,1-1.75,1A6.32,6.32,0,0,1,120,111a6.41,6.41,0,0,1-2.17-.35,4.8,4.8,0,0,1-1.75-1,5,5,0,0,1-1.19-1.7,5.6,5.6,0,0,1-.44-2.27v-15a5.77,5.77,0,0,1,.44-2.29,4.91,4.91,0,0,1,1.19-1.71,5,5,0,0,1,1.75-1.06,6.42,6.42,0,0,1,2.17-.36,5.61,5.61,0,0,1,4,1.42,5.15,5.15,0,0,1,1.54,4ZM109.89,107v3.78h-3.82V107H98.64v-3.32L104,85.41h3.83l-5.25,17.87h3.46V97.53h3.82v5.75h1.61V107Z" fill="#fcaf2e"/>
            </g>
        </g>

        <g class="cat">
            <g class="car">
                <rect x="41.8" y="2.9" class="st14" width="8.6" height="0.6"/>
                <rect x="46.6" y="0.2" class="st14" width="2.8" height="0.6"/>
                <rect x="49.1" y="6.3" class="st14" width="2.8" height="0.6"/>
                <path class="st14" d="M20.3,13.2c1.7,0,3.1,1.4,3.1,3.1c0,1.7-1.4,3.1-3.1,3.1c-1.7,0-3.1-1.4-3.1-3.1
		C17.1,14.6,18.5,13.2,20.3,13.2 M39.4,13.2c1.7,0,3.1,1.4,3.1,3.1c0,1.7-1.4,3.1-3.1,3.1c-1.7,0-3.1-1.4-3.1-3.1
		C36.3,14.6,37.7,13.2,39.4,13.2z M39.4,10.6c3.2,0,5.8,2.6,5.8,5.7c0,3.2-2.6,5.8-5.8,5.8c-3.2,0-5.7-2.6-5.7-5.8
		C33.7,13.2,36.2,10.6,39.4,10.6z M12.3,0l9.5,0.1l6.1,10.2l20.7-2.9L48.8,8l-4.9,0.8l-2,1.8c-0.8-0.3-1.6-0.5-2.5-0.5
		c-3.5,0-6.3,2.8-6.3,6.3c0,0.1,0,0.2,0,0.3L33,17.2l-5.7,0l-1-2.4c-0.7-2.7-3.2-4.7-6.1-4.7c-3.4,0-6.1,2.7-6.3,6l-0.5,0l-2.1,0.5
		H8.9l1.4-7.1h0.9L12.3,7h1.3l2.1-3.9h5L24,8.9h1L21,2h-8.7V0z M15.8,3.6h4.7l1.3,3.1h-7.4L15.8,3.6z M20.3,10.6
		c3.2,0,5.7,2.6,5.7,5.7c0,3.2-2.6,5.8-5.7,5.8c-3.2,0-5.8-2.6-5.8-5.8C14.5,13.2,17.1,10.6,20.3,10.6z"/>
                <polygon class="st14" points="45.8,0.4 22.6,0.2 27.1,7.6 36.6,7.8 48.3,6.7"/>
            </g>

            <g class="side">
                <polygon class="st7 all" points="73.1,43.9 93.3,41 93.3,38.5 69.9,38.5" stroke="#03579A" stroke-width="0.5"/>
            </g>

        </g>

        <g class="cross all">
            <polygon class="d fill" points="12.82 35.22 15.18 37.58 9.95 42.8 15.18 48.03 12.82 50.39 7.59 45.17 2.36 50.39 0 48.03 5.23 42.8 0 37.58 2.36 35.22 7.59 40.44 12.82 35.22"/>
        </g>

        <g class="symbol">
            <path class="e circ all" d="M38.1,100.12a6.15,6.15,0,0,1,6.15,6c0,.05,0,.11,0,.16a6.15,6.15,0,1,1-12.31,0v-.07A6.15,6.15,0,0,1,38.1,100.12Z"/>
            <line class="vert line all" stroke-miterlimit="22.93" stroke-width="0.96" x1="1" y1="1" x2="1" y2="39.7" stroke="#fefefe" />
            <line class="hor-1 line all" x1="1" y1="1" x2="12.5" y2="1" stroke-miterlimit="22.93" stroke-width="0.96" stroke="#fefefe" />
            <line class="hor-2 line all" x1="1" y1="1" x2="12.5" y2="1" stroke-miterlimit="22.93" stroke-width="0.96" stroke="#fefefe" />

        </g>

        <g class="equalizer">
            <rect class="bar bar-1" x="121.49" y="45.74" width="12.23" height="1.67" fill="#fcaf2e"/>
            <rect class="bar bar-2" x="121.49" y="43.54" width="6.11" height="1.67" fill="#fff"/>
            <rect class="bar bar-3" x="121.49" y="41.35" width="19.94" height="1.67" fill="#fff"/>
        </g>

    </g>
    </a>
</svg>
