<svg xmlns="http://www.w3.org/2000/svg" viewBox="0 0 197.8 156.06" id="icon-3">
    <defs>
        <style>
            #icon-3{background-color:#03579a}#icon-3 .all{backface-visibility:hidden;transition:all .6s}#icon-3 .fill{backface-visibility:hidden;transition:fill .6s}#icon-3 .stroke{backface-visibility:hidden;transition:stroke .6s}#icon-3 .a{fill:#0d4d82}#icon-3 .a,#icon-3 .b,#icon-3 .f{fill-rule:evenodd}#icon-3 .a,#icon-3 .b{opacity:.5}#icon-3 .b{fill:#2071b3}#icon-3 .c,#icon-3 .d,#icon-3 .e,#icon-3 .g,#icon-3 .h{fill:none;stroke-miterlimit:22.93}#icon-3 .c,#icon-3 .d{stroke:#003a69}#icon-3 .c,#icon-3 .d,#icon-3 .h{stroke-width:.96px}#icon-3 .d,#icon-3 .e,#icon-3 .g{stroke-linecap:round}#icon-3 .e,#icon-3 .g,#icon-3 .h{stroke:#1989d0}#icon-3 .e{stroke-width:2.4px}#icon-3 .f{fill:#1989d0}#icon-3 .g{stroke-width:.96px}#icon-3 .h{transform-origin:50% 50%}#icon-3 .circle{transform-origin:50.3% 50%;animation:rotate 3s linear infinite forwards paused}#icon-3 .pin{transform:scale(0);transform-origin:50.3% 50%}#icon-3 .path-top{stroke-dasharray:22px;stroke-dashoffset:-22px;transition-timing-function:linear;transition-delay:1.1s}#icon-3 .path-down{stroke-dasharray:6px;stroke-dashoffset:6px;transition-duration:.3s;transition-timing-function:linear;transition-delay:.8s}#icon-3 .path-bottom{stroke-dasharray:66px;stroke-dashoffset:-66px;transition-duration:.8s;transition-timing-function:linear;transition-delay:0s}#icon-3 .path-dot{transform:scale(0);transform-origin:79% 79%;transition-delay:0s}#icon-3:hover .d,#icon-3:hover .map .c{stroke:#001c33}#icon-3:hover .g{stroke:#fcaf2e}#icon-3:hover .h{transform:translate3d(0, -14%, 0) scale(0.8);stroke:#fcaf2e;opacity:.7}#icon-3:hover .f{fill:#fcaf2e}#icon-3:hover .path-top{stroke-dashoffset:0;transition-delay:0s}#icon-3:hover .path-down{transition-delay:.6s;stroke-dashoffset:0}#icon-3:hover .path-bottom{transition-delay:.9s;stroke-dashoffset:0}#icon-3:hover .path-dot{transform:scale(1);transition-delay:1.7s}#icon-3:hover .pin{transform:scale(1)}#icon-3:hover .circle{animation-play-state:running}#icon-3:hover .circle .e{stroke:#fcaf2e}@keyframes rotate{100%{transform:rotate(360deg)}}

        </style>
    </defs>
    <a href="https://sitech.kz/ru/catalog/sistemy-3d-navigacii-na-burovye-stanki-i-svaeboynye-mashiny/">
    <g>
        <g class="map">
            <path class="a" d="M94.48,105.74c-25.34,5.54-32.22,5.44-57.31,5.44-8.67,0-16.37.87-24,1.28v5.44c7.63-.42,15.33-1.28,24-1.28,25.09,0,32,.11,57.31-5.44,9.34-2,17.73-.83,29.44-3.69,9.21-2.24,23.2-3.1,32.61-1.19,8.59,1.74,12.73.65,16.9-1.38v-4.3l-.77-.78c-3.93,1.79-8.08,2.65-16.14,1-9.41-1.91-23.4-1-32.61,1.19-11.71,2.85-20.1,1.64-29.44,3.69"/>
            <path class="b" d="M42.12,83.86,13.17,112.45h0c7.63-.42,15.33-1.28,24-1.28,25.09,0,32,.11,57.31-5.44,9.34-2,17.73-.83,29.44-3.69,9.21-2.24,23.2-3.1,32.61-1.19,8.06,1.63,12.21.77,16.14-1l-.54-.55L157,83.86Z"/>
            <polygon class="c stroke" points="41.81 84.17 157.29 84.17 173.43 100.62 173.27 104.75 196.73 130.87 1.1 130.87 13.14 117.88 13.17 112.45 41.81 84.17"/>
        </g>

        <path class="b" d="M99.55,20A58.07,58.07,0,1,1,41.48,78,58.07,58.07,0,0,1,99.55,20m0-19.48A77.55,77.55,0,1,1,22,78,77.55,77.55,0,0,1,99.55.48Z"/>

        <path class="d stroke" d="M156.3,130.87a77.53,77.53,0,0,1-113.51,0H75.45a58.2,58.2,0,0,0,48.2,0ZM99.55.48a77.59,77.59,0,0,1,73.84,101.31l0-1.17L157.29,84.17h0a58.07,58.07,0,1,0-115.48,0L25.3,100.47A77.6,77.6,0,0,1,99.55.48Z"/>
        <g class="circle">
            <path class="e stroke" d="M123.22,127.15a54.53,54.53,0,1,1,25.45-72.79"/>
        </g>
        <g class="pin all">
            <path d="M99.55,45.69a10.77,10.77,0,0,1,9.28,16.22h0a8.28,8.28,0,0,1-.52.79L99.55,76.15,90.8,62.71a8.28,8.28,0,0,1-.52-.79h0a10.77,10.77,0,0,1,9.28-16.22m0,5.06a5.71,5.71,0,1,1-5.71,5.7A5.71,5.71,0,0,1,99.55,50.75Z" fill="#fcaf2e" fill-rule="evenodd"/>
        </g>
        <polygon class="f fill" points="179.45 7.29 182.79 7.29 182.79 14.69 190.18 14.69 190.18 18.03 182.79 18.03 182.79 25.42 179.45 25.42 179.45 18.03 172.06 18.03 172.06 14.69 179.45 14.69 179.45 7.29"/>
        <line class="g stroke" x1="99.55" y1="78.03" x2="99.55" y2="89.13"/>
        <circle class="h all" cx="99.55" cy="78.03" r="11.1"/>
        <g class="path">
            <path class="path-top all" d="M93.82,105.89c0-1.77-6.07-2.89-4.89-4.79.72-1.17,1.85-7.24,10.36-7.54" fill="none" stroke="#fff" stroke-miterlimit="22.93" stroke-width="0.96"/>
            <line class="path-down all" x1="93.82" y1="105.89" x2="93.82" y2="111.29" fill="none" stroke="#b3b3b3" stroke-miterlimit="22.93" stroke-width="0.96"/>
            <path class="path-bottom all" d="M156.76,123.4c-.12,0-11.31-6.34-18.27-6.73-2.87-.16-5.36-1.63-11.23-1.52-3.85.07-24.33,1.16-26.31-1.5-.75-1-7.15-1.09-7.13-2.36" fill="none" stroke="#fff" stroke-miterlimit="22.93" stroke-width="0.96"/>
            <path class="path-dot all" d="M156.76,122.18c-1.34,0-2.44.54-2.44,1.22s1.1,1.22,2.44,1.22,2.44-.54,2.44-1.22-1.09-1.22-2.44-1.22" fill="#fff" fill-rule="evenodd"/>

        </g>
    </g>
    </a>
</svg>
