<svg xmlns="http://www.w3.org/2000/svg" viewBox="0 0 202.12 156.06" id="icon-1">
    <defs>
        <style>
            #icon-1{background-color:#03579a}#icon-1 .circle{transform-origin:49.8% 50%;animation:rotate 3s linear infinite forwards paused}#icon-1 .light-circle{cx:50%;cy:50%;r:68px;stroke-width:18px;backface-visibility:hidden;transition:opacity .6s;opacity:0}#icon-1 .fill{backface-visibility:hidden;transition:fill .6s}#icon-1 .stroke{backface-visibility:hidden;transition:stroke .6s}#icon-1 .center-elms{transform-origin:50% 50%}#icon-1 .bot-plus,#icon-1 .bot-dot{backface-visibility:hidden;transition:all .6s}#icon-1 .bot-plus{transform:scale(0.3) translate(185px, 126px);transform-origin:190px 131px;fill:#1989d0}#icon-1 .top-plus{backface-visibility:hidden;transition:all .6s;transform-origin:9px 19px;fill:#1989d0;transform:scale(0.55) rotate(225deg)}#icon-1 .bot-dot{transform-origin:94.3% 84.4%}#icon-1 .a,#icon-1 .b,#icon-1 .c,#icon-1 .d,#icon-1 .f{fill:none;stroke-miterlimit:22.93;position:relative;z-index:1}#icon-1 .a,#icon-1 .b{stroke:#003a69;stroke-width:.96px;backface-visibility:hidden;transition:stroke .6s}#icon-1 .a,#icon-1 .d,#icon-1 .f{stroke-linecap:round}#icon-1 .c{stroke:#001c33}#icon-1 .c,#icon-1 .d{stroke-width:.96px}#icon-1 .d,#icon-1 .f{stroke:#1989d0}#icon-1 .e{fill:#1989d0;fill-rule:evenodd}#icon-1 .f{stroke-width:2.4px}#icon-1 .legend polyline{stroke-dasharray:76px;stroke-dashoffset:76px;backface-visibility:hidden;transition:all .6s}#icon-1 .legend .bar{backface-visibility:hidden;transition:transform .6s;transform:scale(0, 1)}#icon-1 .legend .bar-1{transform-origin:181px 15px}#icon-1 .legend .bar-2{transform-origin:181px 17px}#icon-1 .legend .bar-3{transform-origin:181px 19px}#icon-1:hover .a,#icon-1:hover .b{stroke:#001c33}#icon-1:hover .legend polyline{stroke-dasharray:76px;stroke-dashoffset:0}#icon-1:hover .legend .bar-1{animation:equalizer 1.2s ease-in-out .25s infinite forwards alternate}#icon-1:hover .legend .bar-2{animation:equalizer 1s linear .25s infinite forwards alternate}#icon-1:hover .legend .bar-3{animation:equalizer 1.05s ease .3s infinite forwards alternate}#icon-1:hover .light-circle{opacity:.5}#icon-1:hover .circle{animation-play-state:running}#icon-1:hover .fill{fill:#fcaf2e}#icon-1:hover .fill--triang{fill:#fff}#icon-1:hover .top-plus{fill:#fcaf2e;transform:rotate(0deg) scale(1)}#icon-1:hover .bot-plus{transform:scale(1) translate(185px, 126px) rotate(0deg);fill:#fcaf2e}#icon-1:hover .bot-dot{transform:scale(0.3);fill:#fcaf2e}#icon-1:hover .stroke{stroke:#fcaf2e}#icon-1:hover .center-elms{animation:mechAnimation 2s linear 0s infinite forwards}@keyframes equalizer{100%{transform:scale(1, 1)}}@keyframes initMechAnim{0%{transform:rotate(0deg)}}@keyframes mechAnimation{25%{transform:rotate(20deg)}75%{transform:rotate(-20deg)}}@keyframes rotate{100%{transform:rotate(360deg)}}

        </style>
    </defs>
    <a href="https://sitech.kz/ru/catalog/sistemy-nivelirovaniya-dlya-tehniki/">
    <g>
        <circle class="light-circle" stroke="#2071b3"   opacity="0.5" fill-rule="evenodd" fill="#fff" fill-opacity="0" />

        <path class="a" d="M100.6,20A58.07,58.07,0,1,1,42.54,78,58.07,58.07,0,0,1,100.6,20Zm0-19.48A77.55,77.55,0,1,1,23.05,78,77.55,77.55,0,0,1,100.6.48Z"/>
        <path class="b" d="M119,9.27l-1.61,6m18.78,1.1-3.11,5.39m17.86,5.92-4.4,4.4m15.71,10.34-5.39,3.11M54.66,32.09l-4.4-4.4m17.86-5.92L65,16.38m18.78-1.1-1.61-6m1.61,131.51-1.61,6m-14.06-12.5L65,139.68M54.66,124l-4.4,4.4m-5.92-17.86L39,113.62m-1.1-18.78-6,1.61M35.64,78H29.41m8.44-16.81-6-1.61m12.5-14.06L39,42.44M169.36,59.6l-6,1.61M171.79,78h-6.22m3.8,18.42-6-1.61m-1.1,18.78-5.39-3.11m-5.92,17.86-4.4-4.4M136.2,139.68l-3.11-5.39M119,146.79l-1.61-6M100.6,6.84v6.22"/>
        <line class="b" x1="100.6" y1="142.99" x2="100.6" y2="149.22"/>
        <line class="c" x1="42.54" y1="78.03" x2="158.65" y2="78.03"/>



        <g class="legend">
            <polyline points="136.84 55.27 180.79 23.03 202.12 23.03" fill="none" stroke="#fff"  stroke-miterlimit="22.93" stroke-width="0.57"/>
            <rect class="bar bar-1" x="181.31" y="15.4" width="19.94" height="1.67" fill="#fff"/>
            <rect class="bar bar-2" x="181.31" y="17.6" width="6.11" height="1.67" fill="#fff"/>
            <rect class="bar bar-3" x="181.31" y="19.79" width="12.23" height="1.67" fill="#fcaf2e"/>


        </g>



        <g class="circle">
            <path class="f stroke" d="M154.87,83.39A54.53,54.53,0,1,1,106,23.77"/>
        </g>

        <g class="center-elms">

            <line class="d stroke" x1="40.65" y1="78.21" x2="160.55" y2="77.85"/>

            <polygon class="e fill" points="165.06 77.94 168.03 76.21 171 74.49 171.01 77.93 171.01 81.36 168.04 79.65 165.06 77.94"/>
            <polygon class="e fill" points="36.14 78.12 33.17 76.41 30.19 74.7 30.19 78.13 30.2 81.57 33.17 79.84 36.14 78.12"/>

            <polygon class="e fill fill--triang" points="100.6 99.37 104.48 106.09 108.36 112.8 100.6 112.8 92.84 112.8 96.72 106.09 100.6 99.37"/>


            <path class="e fill" d="M87.43,49.12l19.85-.1L108,72.88,88.14,73Zm22.63.95.3,10h2.53l0-1.26h-1.1L111.53,51h1.1l0-.93ZM85,60.16l-.3-10H82.18l0,.93h1.1l.23,7.79h-1.1l0,1.26ZM84.63,47.4,110,47.28l.06,2.18,3.15,0,0,1.53h.57l.23,7.79h-.57l.06,1.87-3.15,0,.36,12.19h1.65l-.1-3.24,8.68,0,.1,3.24,11-.05.48,16.15-68.08.33L64,73.06,75,73,75,69.77l8.68,0,.1,3.24h1.65L85,60.77l-3.15,0-.06-1.87h-.57L81,51.13h.57l0-1.53,3.15,0Z"/>
        </g>

        <g class="elms">
            <g class="top-plus">
                <rect x="7.75" y="9.34" width="3.5" height="19"/>
                <rect y="17.09" width="19" height="3.5"/>
            </g>

            <path class="e bot-dot" d="M190.20,128a3.22,3.22,0,1,1-3.23,3.23,3.23,3.23,0,0,1,3.23-3.23"/>

            <g class="bot-plus">
                <rect x="4.5" y="0" width="2" height="11" />
                <rect x="0" y="4.5" width="11" height="2" />
            </g>

        </g>

    </g>
    </a>
</svg>
