<svg xmlns="http://www.w3.org/2000/svg" viewBox="0 0 162.29 156.06" id="icon-8">
    <defs>
        <style>
            #icon-8{background-color:#03579a}#icon-8 .all{backface-visibility:hidden;transition:all .6s}#icon-8 .fill{backface-visibility:hidden;transition:fill .6s}#icon-8 .stroke{backface-visibility:hidden;transition:stroke .6s}#icon-8 .a{fill:#2071b3;opacity:.5}#icon-8 .a,#icon-8 .b,#icon-8 .g{fill-rule:evenodd}#icon-8 .b,#icon-8 .i{fill:#1989d0}#icon-8 .c,#icon-8 .d,#icon-8 .f{fill:none;stroke-miterlimit:22.93}#icon-8 .c,#icon-8 .f{stroke:#003a69;backface-visibility:hidden;transition:stroke .6s}#icon-8 .c,#icon-8 .d{stroke-linecap:round}#icon-8 .c{stroke-width:.96px}#icon-8 .d{stroke:#1989d0;stroke-width:2.4px}#icon-8 .e{fill:#003a69;backface-visibility:hidden;transition:all .6s}#icon-8 .f{stroke-width:.57px}#icon-8 .g{fill:#133e73}#icon-8 .h{fill:#1164a7}#icon-8 .circle{transform-origin:49.4% 50%;animation:rotate 3s linear infinite forwards paused}#icon-8 .screen .loader{transform-origin:30.8% 0;animation:loading 6s ease-out infinite forwards paused}#icon-8 .screen .text-clip{clip-path:url(#screen-text)}#icon-8 .screen .text .e{transform:scale(0, 1)}#icon-8 .cross-1{transform:scale(0.5) rotate(45deg);transform-origin:5% 8%}#icon-8 .cross-1 rect{backface-visibility:hidden;transition:fill .6s}#icon-8 .cross-2 .all{transform-origin:78.71% 0;transform:scale(0, 1)}#icon-8 .cross-3{transform-origin:92.7% 87.3%;transform:scale(0.5)}#icon-8 .dot{transform-origin:92.7% 87.3%}#icon-8:hover .f,#icon-8:hover .c{stroke:#001c33}#icon-8:hover .e{fill:#001c33}#icon-8:hover .pad{fill:#fcaf2e}#icon-8:hover .loader{fill:#fcaf2e}#icon-8:hover .circle{animation-play-state:running}#icon-8:hover .circle .d{stroke:#fcaf2e}#icon-8:hover .screen .loader{animation-play-state:running}#icon-8:hover .screen .text{animation:text 4.15s linear 4.2s infinite forwards}#icon-8:hover .screen .text .e{animation:text-type 4.15s ease infinite forwards}#icon-8:hover .screen .text .e-1{animation-delay:0s}#icon-8:hover .screen .text .e-2{animation-delay:.7s}#icon-8:hover .screen .text .e-3{animation-delay:1.4s}#icon-8:hover .screen .text .e-4{animation-delay:2.1s}#icon-8:hover .screen .text .e-5{animation-delay:2.8s}#icon-8:hover .screen .text .e-6{animation-delay:3.5s}#icon-8:hover .screen .text .e-7{animation-delay:4.2s}#icon-8:hover .screen .text .e-8{animation-delay:4.9s}#icon-8:hover .screen .text .e-9{animation-delay:5.6s}#icon-8:hover .screen .text .e-10{animation-delay:6.3s}#icon-8:hover .screen .text .e-11{animation-delay:7s}#icon-8:hover .screen .text .e-12{animation-delay:7.7s}#icon-8:hover .dot{transform:scale(0.2);fill:#fcaf2e}#icon-8:hover .cross-1{transform:rotate(0deg) scale(1)}#icon-8:hover .cross-1 rect{fill:#fcaf2e}#icon-8:hover .cross-2 .i{fill:#fcaf2e}#icon-8:hover .cross-2 .all{transform:scale(1, 1)}#icon-8:hover .cross-3{transform:scale(1)}#icon-8:hover .cross-3 .i{fill:#fcaf2e}@keyframes rotate{100%{transform:rotate(360deg)}}@keyframes text{0%{transform:translate3d(0, 0, 0)}100%{transform:translate3d(0, -18px, 0)}}@keyframes text-type{0%{transform:scale(0, 1)}20%{transform:scale(1, 1)}100%{transform:scale(1, 1)}}@keyframes loading{0%{transform:scale(0, 1)}100%{transform:scale(1, 1)}}

        </style>
        <clipPath id="screen-text">
            <rect width="35" height="17" x="50" y="47" />
        </clipPath>
    </defs>
    <a href="https://sitech.kz/ru/catalog/programmnoe-obespechenie-trimble/">
    <g>
        <path class="a" d="M80.15,20A58.07,58.07,0,1,1,22.09,78,58.07,58.07,0,0,1,80.15,20m0-19.48A77.55,77.55,0,1,1,2.6,78,77.55,77.55,0,0,1,80.15.48Z"/>
        <g class="cross-1 all">

            <rect x="6.4" y="4.92" width="2.89" height="15.68" fill="#1989d0"/>
            <rect y="11.31" width="15.68" height="2.89" fill="#1989d0"/>
        </g>

        <path class="c" d="M80.15,20A58.07,58.07,0,1,1,22.09,78,58.07,58.07,0,0,1,80.15,20Zm0-19.48A77.55,77.55,0,1,1,2.6,78,77.55,77.55,0,0,1,80.15.48Z"/>
        <g class="circle">
            <path class="d stroke" d="M127.63,104.85A54.53,54.53,0,1,1,107,30.55"/>
        </g>

        <rect class="e" x="44.09" y="41.45" width="72.11" height="46.26"/>
        <rect class="f" x="44.09" y="41.45" width="72.11" height="46.26"/>
        <polygon class="g" points="21.87 115.83 138.28 115.83 116.2 87.71 44.09 87.71 21.87 115.83"/>
        <polygon class="f" points="21.87 115.83 138.28 115.83 116.2 87.71 44.09 87.71 21.87 115.83"/>
        <rect class="h" x="45.43" y="42.58" width="69.43" height="44.01"/>
        <rect class="f" x="45.43" y="42.58" width="69.43" height="44.01"/>
        <rect class="e" x="21.87" y="115.83" width="116.4" height="3.81"/>
        <rect class="f" x="21.87" y="115.83" width="116.4" height="3.81"/>
        <polygon class="b fill pad" points="67.97 112.99 92.17 112.99 87.58 107.14 72.59 107.14 67.97 112.99"/>
        <polygon class="f" points="67.97 112.99 92.17 112.99 87.58 107.14 72.59 107.14 67.97 112.99"/>
        <polygon class="f" points="126.39 105.39 114.27 89.96 46.01 89.96 33.81 105.39 126.39 105.39"/>

        <g class="screen">
            <g class="text-clip">
                <g class="text">
                    <rect class="e e-1" x="50.04" y="47" width="15.5" height="1.23"/>
                    <rect class="e e-2" x="50.04" y="50" width="34.88" height="1.23"/>
                    <rect class="e e-3" x="50.04" y="53" width="12.25" height="1.23"/>
                    <rect class="e e-4" x="50.04" y="56" width="8.63" height="1.23"/>
                    <rect class="e e-5" x="50.04" y="59" width="9.63" height="1.23"/>
                    <rect class="e e-6" x="50.04" y="62" width="18.31" height="1.23"/>
                    <rect class="e e-7" x="50.04" y="65" width="15.5" height="1.23"/>
                    <rect class="e e-8" x="50.04" y="68" width="34.88" height="1.23"/>
                    <rect class="e e-9" x="50.04" y="71" width="12.25" height="1.23"/>
                    <rect class="e e-10" x="50.04" y="74" width="8.63" height="1.23"/>
                    <rect class="e e-11" x="50.04" y="77" width="9.63" height="1.23"/>
                    <rect class="e e-12" x="50.04" y="80" width="18.31" height="1.23"/>
                </g>

            </g>
            <rect class="i loader all" x="50.04" y="73.79" width="34.88" height="1.23"/>
        </g>

        <g class="cross-2">
            <rect class="i fill" x="127.21" y="70.46" width="1.16" height="6.29"/>
            <rect class="i all" x="124.76" y="73.02" width="6.29" height="1.16"/>
        </g>

        <g class="cross-3 all">
            <rect class="i fill" x="149.85" y="131.29" width="1.85" height="10.02"/>
            <rect class="i fill" x="145.76" y="135.37" width="10.02" height="1.85" />
        </g>

        <path class="b dot all" d="M150.66,133.71a2.59,2.59,0,1,1-2.59,2.59,2.59,2.59,0,0,1,2.59-2.59"/>
    </g>
    </a>
</svg>
